<svg width="574" height="500" viewBox="0 0 574 500" fill="none" xmlns="http://www.w3.org/2000/svg">
<g clip-path="url(#clip0_902_9213)" filter="url(#filter0_dd_902_9213)">
<path d="M441.615 103.813C397.277 34.8749 327.524 -3.59038 243.466 2.15838C159.409 7.90714 155.516 63.4902 155.516 125.815C155.516 187.416 56.1775 158.684 24.5074 232.985C-0.168801 290.882 64.0158 396.661 93.5745 440.571H512.886C529.157 390.807 558.715 292.868 561.922 229.48C567.688 115.509 476.993 158.847 441.615 103.813Z" fill="#4B59F7"/>
<path opacity="0.7" d="M441.615 103.813C397.277 34.8749 327.524 -3.59038 243.466 2.15838C159.409 7.90714 155.516 63.4902 155.516 125.815C155.516 187.416 56.1775 158.684 24.5074 232.985C-0.168801 290.882 64.0158 396.661 93.5745 440.571H512.886C529.157 390.807 558.715 292.868 561.922 229.48C567.688 115.509 476.993 158.847 441.615 103.813Z" fill="white"/>
<path d="M406.937 360.836C406.937 360.836 433.988 288.801 400.022 355.332C400.022 355.332 388.04 297.424 391.168 360.614C391.168 360.614 356.146 312.123 385.678 371.13C385.678 371.13 340.232 328.213 387.156 384.135C387.156 384.135 478.814 380.057 407.596 377.287C407.596 377.287 490.506 346.183 411.476 368.547C411.476 368.571 482.14 306.608 406.937 360.836Z" fill="#4B59F7"/>
<path d="M401.17 362.436C401.17 362.436 382.947 385.186 376.349 408.765" stroke="black" stroke-width="0.75" stroke-linecap="round" stroke-linejoin="round"/>
<path d="M351.276 363.149C351.276 363.149 287.488 318.655 343.504 366.83C343.504 366.83 281.404 357.681 345.972 375.511C345.972 375.511 285.93 387.558 354.813 383.223C354.813 383.223 297.028 405.283 368.378 386.238C368.378 386.238 393.728 312.626 368.048 367.916C368.048 367.916 363.403 292.517 360.514 362.074C360.514 362.051 320.82 286.406 351.276 363.149Z" fill="#4B59F7"/>
<path opacity="0.3" d="M351.276 363.149C351.276 363.149 287.488 318.655 343.504 366.83C343.504 366.83 281.404 357.681 345.972 375.511C345.972 375.511 285.93 387.558 354.813 383.223C354.813 383.223 297.028 405.283 368.378 386.238C368.378 386.238 393.728 312.626 368.048 367.916C368.048 367.916 363.403 292.517 360.514 362.074C360.514 362.051 320.82 286.406 351.276 363.149Z" fill="white"/>
<path d="M381.31 410.927C369.843 377.042 349.64 368.769 349.64 368.769" stroke="black" stroke-width="0.75" stroke-linecap="round" stroke-linejoin="round"/>
<path d="M377.088 367.087C377.088 367.087 385.269 373.887 387.446 383.13C395.294 380.753 403.593 379.765 411.872 380.22" stroke="black" stroke-width="0.5" stroke-linecap="round" stroke-linejoin="round"/>
<path d="M385.731 359.761C385.731 359.761 391.352 365.802 387.446 383.13L408.956 369.774" stroke="black" stroke-width="0.5" stroke-linecap="round" stroke-linejoin="round"/>
<path d="M370.767 367.94C368.431 373.092 367.291 378.607 367.415 384.158C367.415 384.158 358.178 385.069 351.923 387.663" stroke="black" stroke-width="0.5" stroke-linecap="round" stroke-linejoin="round"/>
<path d="M360.804 365.79C361.774 372.207 364.007 378.424 367.402 384.158C367.402 384.158 361.516 379.484 345.945 378.713" stroke="black" stroke-width="0.5" stroke-linecap="round" stroke-linejoin="round"/>
<path d="M359.511 406.183H397.568L391.722 437.731H389.874V438.993C389.876 439.209 389.83 439.423 389.737 439.623C389.645 439.823 389.51 440.004 389.338 440.157C389.166 440.311 388.962 440.432 388.737 440.515C388.512 440.598 388.271 440.641 388.027 440.641H386.259C386.015 440.641 385.774 440.598 385.549 440.515C385.324 440.432 385.119 440.311 384.948 440.157C384.776 440.004 384.64 439.823 384.548 439.623C384.456 439.423 384.409 439.209 384.411 438.993V437.731H372.667V438.993C372.667 439.209 372.619 439.424 372.525 439.624C372.432 439.823 372.295 440.005 372.122 440.158C371.949 440.311 371.744 440.432 371.518 440.515C371.293 440.598 371.051 440.641 370.806 440.641H369.038C368.547 440.638 368.077 440.463 367.731 440.154C367.385 439.845 367.191 439.428 367.191 438.993V437.731H365.343L359.511 406.183Z" fill="black" stroke="black" stroke-width="0.75" stroke-linecap="round" stroke-linejoin="round"/>
<path d="M527.322 440.571H81.9622C55.0823 444.216 33.5202 448.937 40.2897 454.311C56.1247 466.896 170.163 452.197 166.812 466.767C163.46 481.338 248.982 477.727 295.511 477.727C342.039 477.727 392.83 473.86 376.48 462.678C360.131 451.496 468.667 459.663 515.314 459.663C549.359 459.663 572.69 451.25 527.322 440.571Z" fill="#4B59F7"/>
<path d="M-0.300751 440.571H586.73" stroke="black" stroke-width="0.75" stroke-linecap="round" stroke-linejoin="round"/>
<path d="M422.006 29.6277H195.724C189.704 29.6277 184.824 33.9488 184.824 39.2791V302.822C184.824 308.153 189.704 312.474 195.724 312.474H422.006C428.026 312.474 432.906 308.153 432.906 302.822V39.2791C432.906 33.9488 428.026 29.6277 422.006 29.6277Z" fill="black" stroke="black" stroke-linecap="round" stroke-linejoin="round"/>
<path d="M418.047 25.4797H191.765C185.745 25.4797 180.865 29.8008 180.865 35.1311V298.674C180.865 304.005 185.745 308.326 191.765 308.326H418.047C424.067 308.326 428.947 304.005 428.947 298.674V35.1311C428.947 29.8008 424.067 25.4797 418.047 25.4797Z" fill="#4B59F7"/>
<path opacity="0.8" d="M418.047 25.4797H191.765C185.745 25.4797 180.865 29.8008 180.865 35.1311V298.674C180.865 304.005 185.745 308.326 191.765 308.326H418.047C424.067 308.326 428.947 304.005 428.947 298.674V35.1311C428.947 29.8008 424.067 25.4797 418.047 25.4797Z" fill="white"/>
<path d="M418.047 25.4797H191.765C185.745 25.4797 180.865 29.8008 180.865 35.1311V298.674C180.865 304.005 185.745 308.326 191.765 308.326H418.047C424.067 308.326 428.947 304.005 428.947 298.674V35.1311C428.947 29.8008 424.067 25.4797 418.047 25.4797Z" stroke="black" stroke-linecap="round" stroke-linejoin="round"/>
<path d="M418.391 65.8963H191.422V144.276H418.391V65.8963Z" fill="white" stroke="black" stroke-linecap="round" stroke-linejoin="round"/>
<path d="M418.391 144.276L191.422 65.8963" stroke="black" stroke-width="0.75" stroke-linecap="round" stroke-linejoin="round"/>
<path d="M191.422 144.276L418.391 65.8963" stroke="black" stroke-width="0.75" stroke-linecap="round" stroke-linejoin="round"/>
<path d="M304.906 160.155H191.422V238.534H304.906V160.155Z" fill="#4B59F7"/>
<path opacity="0.5" d="M304.906 160.155H191.422V238.534H304.906V160.155Z" fill="white"/>
<path d="M304.906 160.155H191.422V238.534H304.906V160.155Z" stroke="black" stroke-linecap="round" stroke-linejoin="round"/>
<path d="M354.061 38.9986H255.752C254.658 38.9986 253.772 39.7833 253.772 40.7513C253.772 41.7193 254.658 42.504 255.752 42.504H354.061C355.154 42.504 356.04 41.7193 356.04 40.7513C356.04 39.7833 355.154 38.9986 354.061 38.9986Z" fill="black" stroke="black" stroke-width="0.75" stroke-linecap="round" stroke-linejoin="round"/>
<path d="M416.411 163.66H318.102C317.577 163.66 317.074 163.476 316.702 163.147C316.331 162.818 316.123 162.372 316.123 161.908C316.123 161.443 316.331 160.997 316.702 160.668C317.074 160.34 317.577 160.155 318.102 160.155H416.411C416.936 160.155 417.44 160.34 417.811 160.668C418.182 160.997 418.391 161.443 418.391 161.908C418.391 162.372 418.182 162.818 417.811 163.147C417.44 163.476 416.936 163.66 416.411 163.66Z" fill="black" stroke="black" stroke-width="0.75" stroke-linecap="round" stroke-linejoin="round"/>
<path d="M395.298 183.033H318.102C317.577 183.033 317.074 182.848 316.702 182.52C316.331 182.191 316.123 181.745 316.123 181.28C316.123 180.816 316.331 180.37 316.702 180.041C317.074 179.712 317.577 179.528 318.102 179.528H395.298C395.823 179.528 396.326 179.712 396.697 180.041C397.069 180.37 397.277 180.816 397.277 181.28C397.277 181.745 397.069 182.191 396.697 182.52C396.326 182.848 395.823 183.033 395.298 183.033Z" fill="black" stroke="black" stroke-width="0.75" stroke-linecap="round" stroke-linejoin="round"/>
<path d="M385.071 193.234H318.102C317.009 193.234 316.123 194.018 316.123 194.986C316.123 195.954 317.009 196.739 318.102 196.739H385.071C386.164 196.739 387.05 195.954 387.05 194.986C387.05 194.018 386.164 193.234 385.071 193.234Z" fill="black" stroke="black" stroke-width="0.75" stroke-linecap="round" stroke-linejoin="round"/>
<path d="M404.535 210.433H318.102C317.577 210.433 317.074 210.249 316.702 209.92C316.331 209.591 316.123 209.145 316.123 208.681C316.123 208.216 316.331 207.77 316.702 207.441C317.074 207.112 317.577 206.928 318.102 206.928H404.535C405.06 206.928 405.563 207.112 405.935 207.441C406.306 207.77 406.514 208.216 406.514 208.681C406.514 209.145 406.306 209.591 405.935 209.92C405.563 210.249 405.06 210.433 404.535 210.433Z" fill="black" stroke="black" stroke-width="0.75" stroke-linecap="round" stroke-linejoin="round"/>
<path d="M396.287 224.127H318.102C317.577 224.127 317.074 223.943 316.702 223.614C316.331 223.285 316.123 222.84 316.123 222.375C316.123 221.91 316.331 221.464 316.702 221.135C317.074 220.807 317.577 220.622 318.102 220.622H396.287C396.812 220.622 397.316 220.807 397.687 221.135C398.058 221.464 398.267 221.91 398.267 222.375C398.267 222.84 398.058 223.285 397.687 223.614C397.316 223.943 396.812 224.127 396.287 224.127Z" fill="black" stroke="black" stroke-width="0.75" stroke-linecap="round" stroke-linejoin="round"/>
<path d="M385.071 237.833H318.102C317.577 237.833 317.074 237.649 316.702 237.32C316.331 236.991 316.123 236.545 316.123 236.081C316.123 235.616 316.331 235.17 316.702 234.841C317.074 234.513 317.577 234.328 318.102 234.328H385.071C385.596 234.328 386.099 234.513 386.471 234.841C386.842 235.17 387.05 235.616 387.05 236.081C387.05 236.545 386.842 236.991 386.471 237.32C386.099 237.649 385.596 237.833 385.071 237.833Z" fill="black" stroke="black" stroke-width="0.75" stroke-linecap="round" stroke-linejoin="round"/>
<path d="M368.906 54.3754H240.906C240.381 54.3754 239.878 54.1907 239.507 53.8621C239.135 53.5334 238.927 53.0876 238.927 52.6227C238.927 52.1579 239.135 51.7121 239.507 51.3834C239.878 51.0547 240.381 50.8701 240.906 50.8701H368.906C369.431 50.8701 369.935 51.0547 370.306 51.3834C370.677 51.7121 370.885 52.1579 370.885 52.6227C370.885 53.0876 370.677 53.5334 370.306 53.8621C369.935 54.1907 369.431 54.3754 368.906 54.3754Z" fill="black" stroke="black" stroke-width="0.75" stroke-linecap="round" stroke-linejoin="round"/>
<path d="M304.906 296.244C316.567 296.244 326.02 287.874 326.02 277.549C326.02 267.224 316.567 258.854 304.906 258.854C293.246 258.854 283.793 267.224 283.793 277.549C283.793 287.874 293.246 296.244 304.906 296.244Z" fill="#4B59F7" stroke="black" stroke-width="0.75" stroke-linecap="round" stroke-linejoin="round"/>
<path d="M241.566 296.244C253.227 296.244 262.679 287.874 262.679 277.549C262.679 267.224 253.227 258.854 241.566 258.854C229.905 258.854 220.453 267.224 220.453 277.549C220.453 287.874 229.905 296.244 241.566 296.244Z" fill="#4B59F7" stroke="black" stroke-linecap="round" stroke-linejoin="round"/>
<path d="M368.246 296.244C379.907 296.244 389.36 287.874 389.36 277.549C389.36 267.224 379.907 258.854 368.246 258.854C356.586 258.854 347.133 267.224 347.133 277.549C347.133 287.874 356.586 296.244 368.246 296.244Z" fill="#4B59F7" stroke="black" stroke-linecap="round" stroke-linejoin="round"/>
<path d="M360.487 193.935H325.069V150.761H350.867L360.487 159.267V193.935Z" fill="white" stroke="black" stroke-linecap="round" stroke-linejoin="round"/>
<path d="M350.867 150.761V151.929V160.447H360.487V159.267L350.867 150.761Z" fill="black" stroke="black" stroke-width="0.75" stroke-linecap="round" stroke-linejoin="round"/>
<path d="M350.867 159.279H360.487L350.867 150.761V159.279Z" fill="white" stroke="black" stroke-linecap="round" stroke-linejoin="round"/>
<path d="M341.353 161.639H347.08L351.461 185.452H347.225L346.46 180.72V180.79H341.657L340.891 185.463H336.933L341.353 161.639ZM345.998 177.53L344.124 165.763H344.045L342.198 177.53H345.998Z" fill="#4B59F7" stroke="#4B59F7" stroke-width="0.5" stroke-linecap="round" stroke-linejoin="round"/>
<path d="M338.714 160.47H344.441L348.822 184.283H344.586L343.821 179.551V179.621H339.018L338.252 184.295H334.293L338.714 160.47ZM343.359 176.361L341.485 164.595H341.406L339.559 176.361H343.359Z" fill="white" stroke="black" stroke-width="0.75" stroke-linecap="round" stroke-linejoin="round"/>
<path d="M465.988 271.601L489.741 351.056C489.741 351.056 490.07 359.819 494.689 366.538L501.168 433.466C501.168 433.466 506.117 440.185 523.931 433.466C523.931 433.466 524.71 385.56 518.112 355.73L512.503 298.966C513.767 290.049 513.433 281.011 511.514 272.186L465.988 271.601Z" fill="black"/>
<path opacity="0.5" d="M504.903 279.255C501.67 280.26 498.12 280.867 494.966 281.592C494.771 281.642 494.573 281.681 494.372 281.708C491.654 287.551 488.936 293.393 485.887 299.165C482.298 305.942 477.706 314.472 477.548 322.534C478.757 322.659 479.887 323.129 480.768 323.873C481.649 324.617 482.232 325.595 482.43 326.659C482.759 328.547 483.2 330.419 483.75 332.267C484.541 334.429 485.505 336.45 486.112 338.694C486.27 339.278 486.428 339.862 486.574 340.435C486.23 327.769 485.36 315.442 494.953 304.353C501.933 296.361 504.216 286.347 504.903 279.255Z" fill="black"/>
<path d="M465.988 271.601L489.741 351.056C489.741 351.056 490.07 359.819 494.689 366.538L501.168 433.466C501.168 433.466 506.117 440.185 523.931 433.466C523.931 433.466 524.71 385.56 518.112 355.73L512.503 298.966C513.767 290.049 513.433 281.011 511.514 272.186L465.988 271.601Z" stroke="black" stroke-width="0.75" stroke-linecap="round" stroke-linejoin="round"/>
<path d="M502.541 433.431C502.541 433.431 491.1 438.105 486.996 438.105C484.185 438.105 478.933 435.593 476.439 441.424C476.439 441.424 473.457 446.576 491.535 448.434C503.028 449.439 514.6 449.514 526.108 448.656C526.46 448.632 526.802 448.543 527.112 448.394C527.422 448.245 527.693 448.039 527.907 447.791C528.121 447.543 528.274 447.258 528.355 446.954C528.436 446.65 528.444 446.334 528.378 446.027L528.154 444.987C528.154 444.987 527.705 437.322 522.321 433.478L502.541 433.431Z" fill="#4B59F7" stroke="black" stroke-linecap="round" stroke-linejoin="round"/>
<path d="M488.249 445.478C476.492 443.445 476.795 440.582 476.795 440.582C476.65 440.839 476.518 441.096 476.386 441.388C476.386 441.388 473.404 446.541 491.482 448.399C502.975 449.404 514.548 449.478 526.056 448.621C526.407 448.597 526.749 448.507 527.059 448.358C527.369 448.209 527.64 448.004 527.854 447.756C528.068 447.508 528.221 447.222 528.302 446.918C528.383 446.615 528.391 446.299 528.325 445.992L528.233 445.606L517.505 446.459C517.505 446.459 499.994 447.499 488.249 445.478Z" fill="white" stroke="black" stroke-width="0.75" stroke-linecap="round" stroke-linejoin="round"/>
<path d="M502.29 353.264C503.933 354.824 505.969 356.018 508.233 356.747C510.497 357.476 512.923 357.72 515.314 357.459" stroke="#7F7F7F" stroke-width="0.75" stroke-linecap="round" stroke-linejoin="round"/>
<path d="M443.238 268.353C443.238 268.353 437.3 282.082 448.187 340.797C448.187 340.797 446.207 346.347 450.166 357.447L455.445 395.13V432.52C455.445 432.52 459.073 440.407 480.517 432.52C480.517 432.52 481.176 366.211 478.867 352.189L483.921 309.401C484.168 307.409 484.883 305.485 486.019 303.753C487.155 302.02 488.688 300.517 490.519 299.34C495.23 296.267 501.274 289.829 502.263 276.778L443.238 268.353Z" fill="black" stroke="black" stroke-width="0.75" stroke-linecap="round" stroke-linejoin="round"/>
<path d="M456.923 431.795C456.923 431.795 444.294 436.937 439.768 436.902C436.667 436.902 430.861 434.132 428.063 440.559C428.063 440.559 424.764 446.249 444.716 448.294C457.407 449.403 470.184 449.489 482.892 448.551C483.279 448.523 483.656 448.423 483.997 448.257C484.337 448.091 484.634 447.863 484.869 447.589C485.103 447.314 485.269 446.998 485.356 446.663C485.443 446.327 485.448 445.979 485.373 445.642L485.135 444.473C485.135 444.473 484.634 436.002 478.696 431.772L456.923 431.795Z" fill="#4B59F7" stroke="black" stroke-linecap="round" stroke-linejoin="round"/>
<path d="M441.14 445.081C428.169 442.849 428.512 439.694 428.512 439.694C428.342 439.982 428.192 440.278 428.063 440.582C428.063 440.582 424.764 446.273 444.716 448.317C457.407 449.426 470.184 449.512 482.892 448.574C483.279 448.546 483.656 448.446 483.997 448.28C484.337 448.114 484.634 447.887 484.869 447.612C485.103 447.337 485.269 447.022 485.356 446.686C485.443 446.351 485.448 446.003 485.373 445.665L485.28 445.244L473.404 446.179C473.404 446.179 454.125 447.324 441.14 445.081Z" fill="white" stroke="black" stroke-width="0.75" stroke-linecap="round" stroke-linejoin="round"/>
<path d="M459.733 349.268C459.733 349.268 464.906 354.76 475.238 354.012" stroke="#7F7F7F" stroke-width="0.75" stroke-linecap="round" stroke-linejoin="round"/>
<path d="M469.247 120.545C469.247 120.545 458.572 124.786 457.754 120.545C460.339 119.658 462.587 118.138 464.233 116.163C466.872 112.95 480.068 113.826 480.068 113.826C480.068 113.826 503.332 111.898 500.363 122.437C500.363 122.437 509.6 130.161 501.683 141.413C493.765 152.665 489.2 156.428 489.2 156.428L481.282 155.259L470.277 125.616L469.247 120.545Z" fill="black" stroke="black" stroke-width="0.75" stroke-linecap="round" stroke-linejoin="round"/>
<path d="M470.87 164.128V159.699C470.87 159.699 462.306 160.868 461.132 158.916C459.958 156.965 461.871 148.856 461.871 148.856C461.871 148.856 457.754 148.985 457.754 147.29C457.754 145.596 462.61 138.422 462.61 138.422C462.61 138.422 462.029 132.673 462.61 130.85C463.19 129.027 469.208 118.71 469.208 118.71C469.208 118.71 478.049 123.01 477.759 125.359C477.468 127.707 474.961 129.927 477.02 131.89C479.078 133.853 481.889 139.135 480.979 141.647L482.298 142.465C482.298 142.465 483.037 137.791 485.993 136.985C488.949 136.178 491.271 141.413 489.226 145.07C487.181 148.728 484.805 148.073 484.805 148.073C484.805 148.073 485.993 154.348 489.081 156.428L490.018 162.959L470.87 164.128Z" fill="white"/>
<path d="M461.132 158.916C461.132 158.916 465.5 159.886 475.067 156.428C484.634 152.969 484.871 148.073 484.871 148.073L485.294 148.739C485.294 148.739 484.475 156.428 470.87 159.699C459.892 162.328 459.892 160.424 459.892 160.424L461.132 158.916Z" fill="black" stroke="black" stroke-width="0.5" stroke-linecap="round" stroke-linejoin="round"/>
<path d="M470.87 164.128V159.699C470.87 159.699 462.306 160.868 461.132 158.916C459.958 156.965 461.871 148.856 461.871 148.856C461.871 148.856 457.754 148.985 457.754 147.29C457.754 145.596 462.61 138.422 462.61 138.422C462.61 138.422 462.029 132.673 462.61 130.85C463.19 129.027 469.208 118.71 469.208 118.71C469.208 118.71 478.049 123.01 477.759 125.359C477.468 127.707 474.961 129.927 477.02 131.89C479.078 133.853 481.889 139.135 480.979 141.647L482.298 142.465C482.298 142.465 483.037 137.791 485.993 136.985C488.949 136.178 491.271 141.413 489.226 145.07C487.181 148.728 484.805 148.073 484.805 148.073C484.805 148.073 485.993 154.348 489.081 156.428L490.018 162.959L470.87 164.128Z" stroke="black" stroke-linecap="round" stroke-linejoin="round"/>
<path d="M470.435 148.856C470.435 148.856 468.944 153.074 464.193 150.807" stroke="black" stroke-width="0.75" stroke-linecap="round" stroke-linejoin="round"/>
<path d="M465.196 132.545C466.074 132.448 466.963 132.629 467.704 133.057C468.446 133.485 468.992 134.131 469.247 134.881" stroke="black" stroke-width="0.75" stroke-linecap="round" stroke-linejoin="round"/>
<path d="M464.233 136.985C464.233 137.849 464.668 138.55 465.196 138.55C465.724 138.55 466.146 137.849 466.146 136.985C466.146 136.12 465.724 135.419 465.196 135.419C464.668 135.419 464.233 136.12 464.233 136.985Z" fill="#2E353A"/>
<path d="M519.933 189.6C519.933 189.6 544.847 235.017 539.568 242.051C534.29 249.085 511.527 272.151 511.527 272.151L502.29 262.803L520.764 235.041L511.197 217.818C511.197 217.818 506.908 204.311 519.933 189.6Z" fill="#4B59F7"/>
<path opacity="0.2" d="M521.054 220.447C522.48 213.436 521.371 200.583 521.054 197.732C519.664 206.395 517.703 214.978 515.182 223.438C515.072 223.84 514.917 224.231 514.72 224.606C517.096 227.901 519.906 231.021 519.497 235.193C519.088 239.364 514.496 244.797 511.817 248.303C511.512 248.702 511.158 249.07 510.762 249.401C510.973 249.747 511.146 250.111 511.276 250.488C512.385 253.818 512.213 257.241 512.239 260.665C515.459 243.302 527.177 237.88 528.193 233.954C529.421 229.187 519.444 228.334 521.054 220.447Z" fill="black"/>
<path d="M519.933 189.6C519.933 189.6 544.847 235.017 539.568 242.051C534.29 249.085 511.527 272.151 511.527 272.151L502.29 262.803L520.764 235.041L511.197 217.818C511.197 217.818 506.908 204.311 519.933 189.6Z" stroke="black" stroke-linecap="round" stroke-linejoin="round"/>
<path d="M523.971 234.398C526.769 233.719 529.723 233.719 532.522 234.398" stroke="black" stroke-width="0.75" stroke-linecap="round" stroke-linejoin="round"/>
<path d="M465.012 170.788L470.95 162.188C470.95 162.188 487.445 156.217 495.692 162.188L500.311 173.709L465.012 170.788Z" fill="#4B59F7" stroke="black" stroke-linecap="round" stroke-linejoin="round"/>
<path d="M441.259 271.087L446.181 235.251L444.189 181.502C444.086 179.15 444.878 176.835 446.438 174.928C447.998 173.021 450.236 171.633 452.792 170.986C469.551 166.687 505.43 161.405 519.933 189.611C521.156 191.966 521.547 194.593 521.054 197.148L511.197 247.333L513.836 274.709C513.836 274.709 481.718 295.625 441.259 271.087Z" fill="#4B59F7"/>
<path opacity="0.2" d="M482.654 268.353C481.836 257.837 503.28 253.748 502.29 249.413C501.3 245.078 486.125 247.321 486.125 243.045C486.125 238.768 445.97 229.537 455.154 209.639C457.727 204.385 459.113 198.737 459.232 193.012C454.922 197.919 450.058 202.426 444.716 206.46C445.051 207.315 445.164 208.226 445.046 209.125C445.046 209.253 445.165 209.382 445.205 209.51C445.984 212.499 446.056 215.598 445.416 218.612C445.468 219.218 445.428 219.827 445.297 220.423C445.804 223.863 445.998 227.332 445.878 230.799C445.878 231.08 445.957 231.36 446.023 231.641C446.202 232.529 446.166 233.441 445.917 234.316C446.427 235.488 446.464 236.78 446.023 237.973C445.785 238.64 445.534 239.306 445.284 239.972C445.376 240.297 445.429 240.63 445.442 240.965C445.68 246.258 444.4 251.481 443.384 256.634C442.433 261.436 442.249 266.355 441.246 271.146C441.939 271.434 442.57 271.83 443.106 272.314C446.564 275.399 452.858 277.409 457.398 278.951C462.692 280.69 468.169 281.958 473.747 282.737C485.097 284.504 496.787 282.772 506.869 277.829C502.791 277.934 483.393 277.782 482.654 268.353Z" fill="black"/>
<path d="M441.259 271.087L446.181 235.251L444.189 181.502C444.086 179.15 444.878 176.835 446.438 174.928C447.998 173.021 450.236 171.633 452.792 170.986C469.551 166.687 505.43 161.405 519.933 189.611C521.156 191.966 521.547 194.593 521.054 197.148L511.197 247.333L513.836 274.709C513.836 274.709 481.718 295.625 441.259 271.087Z" stroke="black" stroke-linecap="round" stroke-linejoin="round"/>
<path d="M507.568 248.489C507.568 248.489 458.084 257.837 455.445 248.489C452.805 239.142 469.3 244.984 482.654 243.524" stroke="black" stroke-width="0.75" stroke-linecap="round" stroke-linejoin="round"/>
<path d="M385.058 193.187L369.223 188.104C369.223 188.104 365.066 178.5 362.084 176.513C359.102 174.527 355.486 170.671 354.509 172.143C353.81 173.183 355.631 175.952 358.165 177.88C360.909 179.972 359.722 182.624 359.154 183.722C358.587 184.821 354.18 186.62 350.617 187.73C347.054 188.84 338.74 186.094 336.616 187.999C334.491 189.904 339.954 190.546 339.954 190.546C339.954 190.546 335.89 190.803 335.521 192.883C335.309 194.133 339.361 193.35 341.38 193.164C343.399 192.977 347.542 192.743 347.542 192.743C347.542 192.743 340.522 194.905 341.036 196.634C341.551 198.363 346.46 195.734 350.537 195.115C350.537 195.115 345.061 197.522 345.787 199.134C346.513 200.747 349.139 198.422 353.836 196.797L363.681 194.799L379.687 202.534L385.058 193.187Z" fill="white" stroke="black" stroke-linecap="round" stroke-linejoin="round"/>
<path d="M341.459 190.523C343.691 190.973 345.981 191.154 348.268 191.06" stroke="black" stroke-width="0.75" stroke-linecap="round" stroke-linejoin="round"/>
<path d="M451.103 172.155C450.585 171.975 450.017 171.936 449.474 172.044C448.93 172.153 448.436 172.403 448.055 172.762L419.75 199.45L373.34 188.104L368.207 199.555C368.207 199.555 403.413 217 421.307 216.042C434.885 215.306 451.486 202.371 458.704 196.178C459.898 195.145 460.788 193.87 461.299 192.463C461.809 191.056 461.924 189.559 461.633 188.104" fill="#4B59F7"/>
<path d="M451.103 172.155C450.585 171.975 450.017 171.936 449.474 172.044C448.93 172.153 448.436 172.403 448.055 172.762L419.75 199.45L373.34 188.104L368.207 199.555C368.207 199.555 403.413 217 421.307 216.042C434.885 215.306 451.486 202.371 458.704 196.178C459.898 195.145 460.788 193.87 461.299 192.463C461.809 191.056 461.924 189.559 461.633 188.104" stroke="black" stroke-linecap="round" stroke-linejoin="round"/>
<path d="M378.024 198.34C378.07 198.611 378.024 198.888 377.892 199.136C377.76 199.384 377.548 199.592 377.283 199.733C377.018 199.875 376.712 199.944 376.403 199.933C376.094 199.921 375.795 199.828 375.545 199.666C375.295 199.505 375.105 199.281 374.998 199.024C374.891 198.767 374.872 198.488 374.944 198.221C375.015 197.955 375.174 197.713 375.401 197.526C375.627 197.339 375.911 197.216 376.217 197.171C376.422 197.14 376.633 197.145 376.837 197.187C377.04 197.229 377.232 197.307 377.4 197.416C377.569 197.525 377.711 197.663 377.818 197.822C377.926 197.98 377.996 198.157 378.024 198.34Z" fill="white" stroke="black" stroke-width="0.75" stroke-linecap="round" stroke-linejoin="round"/>
<path d="M419.288 207.36C420.792 203.913 418.734 201.074 420.845 200.747C422.956 200.42 423.115 206.332 426.612 206.25" stroke="black" stroke-width="0.75" stroke-linecap="round" stroke-linejoin="round"/>
<path d="M256.266 441.564L222.96 438.245V371.527L240.049 362.436V359.106H194.246V362.413L211.4 371.48V438.245L178.094 441.564C176.599 441.713 175.218 442.345 174.215 443.338C173.212 444.332 172.658 445.618 172.657 446.95V449.684H261.795V446.95C261.793 445.605 261.225 444.309 260.203 443.313C259.182 442.318 257.778 441.694 256.266 441.564Z" fill="white" stroke="black" stroke-width="0.75" stroke-linecap="round" stroke-linejoin="round"/>
<path d="M184.296 320.01H175.191V356.629H184.296V320.01Z" fill="white" stroke="black" stroke-width="0.75" stroke-linecap="round" stroke-linejoin="round"/>
<path d="M265.543 349.046H168.778C165.622 349.046 163.064 351.311 163.064 354.105V359.153C163.064 361.947 165.622 364.212 168.778 364.212H265.543C268.699 364.212 271.257 361.947 271.257 359.153V354.105C271.257 351.311 268.699 349.046 265.543 349.046Z" fill="black" stroke="black" stroke-linecap="round" stroke-linejoin="round"/>
<path d="M198.825 282.585H160.675C154.612 282.585 149.697 286.937 149.697 292.306V313.63C149.697 318.999 154.612 323.352 160.675 323.352H198.825C204.888 323.352 209.804 318.999 209.804 313.63V292.306C209.804 286.937 204.888 282.585 198.825 282.585Z" fill="black"/>
<path opacity="0.5" d="M208.854 282.585H170.704C164.641 282.585 159.725 286.937 159.725 292.306V313.63C159.725 318.999 164.641 323.352 170.704 323.352H208.854C214.917 323.352 219.833 318.999 219.833 313.63V292.306C219.833 286.937 214.917 282.585 208.854 282.585Z" fill="black"/>
<path d="M198.825 282.585H160.675C154.612 282.585 149.697 286.937 149.697 292.306V313.63C149.697 318.999 154.612 323.352 160.675 323.352H198.825C204.888 323.352 209.804 318.999 209.804 313.63V292.306C209.804 286.937 204.888 282.585 198.825 282.585Z" stroke="black" stroke-linecap="round" stroke-linejoin="round"/>
<path d="M252.03 346.756C254.877 344.741 258.037 343.1 261.413 341.883" stroke="black" stroke-width="0.75" stroke-linecap="round" stroke-linejoin="round"/>
<path d="M257.691 339.114C257.691 339.114 248.124 346.055 250.064 347.095" stroke="black" stroke-width="0.75" stroke-linecap="round" stroke-linejoin="round"/>
<path d="M287.936 403.998L290.905 422.518C290.905 422.518 285.35 426.537 285.073 437.474L294.864 440.559L297.503 437.474L306.239 445.536C306.239 445.536 321.718 451.706 323.829 447.581C325.94 443.457 317.403 440.407 310.185 431.34C308.311 429.003 302.043 422.319 302.043 422.319L302.663 402.993L287.936 403.998Z" fill="black" stroke="black" stroke-width="0.75" stroke-linecap="round" stroke-linejoin="round"/>
<path d="M213.195 325.397C213.195 325.397 295.128 320.536 298.862 330.783C302.597 341.031 304.352 373.829 304.537 386.869C304.721 399.909 303.56 416.372 303.56 416.372C298.639 417.693 293.386 417.693 288.464 416.372C288.464 416.372 284.862 397.455 282.262 388.259C279.663 379.064 276.905 366.795 278.475 347.364C278.475 347.364 199.96 357.88 199.524 345.681C199.089 333.482 213.195 325.397 213.195 325.397Z" fill="white"/>
<path opacity="0.5" d="M213.195 325.397C213.195 325.397 295.128 320.536 298.862 330.783C302.597 341.031 304.352 373.829 304.537 386.869C304.721 399.909 303.56 416.372 303.56 416.372C298.639 417.693 293.386 417.693 288.464 416.372C288.464 416.372 284.862 397.455 282.262 388.259C279.663 379.064 276.905 366.795 278.475 347.364C278.475 347.364 199.96 357.88 199.524 345.681C199.089 333.482 213.195 325.397 213.195 325.397Z" fill="black"/>
<path opacity="0.2" d="M270.914 328.832L272.339 329.393L272.906 329.591L273.249 329.732C273.859 329.96 274.438 330.246 274.978 330.585C280.85 333.12 283.621 337.747 281.576 343.648C281.566 343.977 281.53 344.305 281.47 344.629C280.556 348.779 279.231 352.849 277.512 356.793C278.038 357.598 278.256 358.533 278.132 359.457C277.921 360.941 277.749 362.413 277.617 363.897C278.23 365.175 278.422 366.581 278.171 367.952C278.022 368.841 277.951 369.74 277.96 370.639C278.449 373.887 278.924 377.135 279.61 380.349L280.402 383.036C280.402 382.405 280.402 381.727 280.322 380.968C278.792 354.316 283.437 365.147 285.482 346.756C287.105 332.921 276.35 329.615 270.914 328.832Z" fill="black"/>
<path d="M213.195 325.397C213.195 325.397 295.128 320.536 298.862 330.783C302.597 341.031 304.352 373.829 304.537 386.869C304.721 399.909 303.56 416.372 303.56 416.372C298.639 417.693 293.386 417.693 288.464 416.372C288.464 416.372 284.862 397.455 282.262 388.259C279.663 379.064 276.905 366.795 278.475 347.364C278.475 347.364 199.96 357.88 199.524 345.681C199.089 333.482 213.195 325.397 213.195 325.397Z" stroke="black" stroke-linecap="round" stroke-linejoin="round"/>
<path d="M287.277 340.762C287.277 340.762 286.432 344.127 281.127 347.387" stroke="black" stroke-width="0.75" stroke-linecap="round" stroke-linejoin="round"/>
<path d="M305.46 412.201L304.893 417.108C304.893 417.108 295.524 421.56 287.277 417.447L285.561 412.621C285.561 412.621 291.143 416.01 305.46 412.201Z" fill="#4B59F7"/>
<path opacity="0.3" d="M305.46 412.201L304.893 417.108C304.893 417.108 295.524 421.56 287.277 417.447L285.561 412.621C285.561 412.621 291.143 416.01 305.46 412.201Z" fill="#4B59F7" stroke="black" stroke-width="0.75" stroke-miterlimit="10"/>
<path d="M305.46 412.201L304.893 417.108C304.893 417.108 295.524 421.56 287.277 417.447L285.561 412.621C285.561 412.621 291.143 416.01 305.46 412.201Z" stroke="black" stroke-width="0.75" stroke-linecap="round" stroke-linejoin="round"/>
<path d="M301.528 423.979C305.273 427.296 308.584 430.977 311.399 434.95" stroke="#7F7F7F" stroke-linecap="round" stroke-linejoin="round"/>
<path d="M228.383 391.063L219.239 407.924C219.239 407.924 212.1 408.532 205.014 417.494L211.229 424.867L215.359 423.605L217.576 434.611C217.576 434.611 226.576 447.348 230.917 444.952C235.258 442.557 230.086 435.827 229.769 424.738C229.677 421.852 228.647 413.229 228.647 413.229L241.289 397.466L228.383 391.063Z" fill="black" stroke="black" stroke-width="0.75" stroke-linecap="round" stroke-linejoin="round"/>
<path d="M185.009 328.131C185.009 328.131 173.383 348.696 188.242 350.518C203.1 352.341 248.52 350.004 248.52 350.004C242.83 358.087 237.785 366.512 233.424 375.219C227.539 387.535 221.667 400.212 221.667 400.212C221.667 400.212 224.214 406.288 234.599 407.503C234.599 407.503 243.031 395.819 261.452 377.65C279.874 359.48 284.98 341.194 281.061 334.943C277.142 328.692 256.755 325.315 223.818 323.971L185.009 328.131Z" fill="white"/>
<path opacity="0.5" d="M185.009 328.131C185.009 328.131 173.383 348.696 188.242 350.518C203.1 352.341 248.52 350.004 248.52 350.004C242.83 358.087 237.785 366.512 233.424 375.219C227.539 387.535 221.667 400.212 221.667 400.212C221.667 400.212 224.214 406.288 234.599 407.503C234.599 407.503 243.031 395.819 261.452 377.65C279.874 359.48 284.98 341.194 281.061 334.943C277.142 328.692 256.755 325.315 223.818 323.971L185.009 328.131Z" fill="black"/>
<path d="M185.009 328.131C185.009 328.131 173.383 348.696 188.242 350.518C203.1 352.341 248.52 350.004 248.52 350.004C242.83 358.087 237.785 366.512 233.424 375.219C227.539 387.535 221.667 400.212 221.667 400.212C221.667 400.212 224.214 406.288 234.599 407.503C234.599 407.503 243.031 395.819 261.452 377.65C279.874 359.48 284.98 341.194 281.061 334.943C277.142 328.692 256.755 325.315 223.818 323.971L185.009 328.131Z" stroke="black" stroke-linecap="round" stroke-linejoin="round"/>
<path d="M238.082 405.762L234.559 409.583C234.559 409.583 224.002 408.719 219.661 401.252L221.231 396.392C221.231 396.392 223.778 401.942 238.082 405.762Z" fill="#4B59F7"/>
<path opacity="0.3" d="M238.082 405.762L234.559 409.583C234.559 409.583 224.002 408.719 219.661 401.252L221.231 396.392C221.231 396.392 223.778 401.942 238.082 405.762Z" fill="#4B59F7" stroke="black" stroke-width="0.75" stroke-miterlimit="10"/>
<path d="M238.082 405.762L234.559 409.583C234.559 409.583 224.002 408.719 219.661 401.252L221.231 396.392C221.231 396.392 223.778 401.942 238.082 405.762Z" stroke="black" stroke-width="0.75" stroke-linecap="round" stroke-linejoin="round"/>
<path d="M226.84 414.818C227.367 417.365 228.357 422.553 228.872 428.15" stroke="#7F7F7F" stroke-linecap="round" stroke-linejoin="round"/>
<path d="M222.604 205.128C222.604 205.128 232.698 200.688 222.063 194.764C211.427 188.84 192.834 205.128 192.834 205.128L191.026 212.735C191.026 212.735 191.805 218.799 194.272 222.316C196.252 225.156 199.775 225.167 201.437 227.983C203.984 232.26 203.14 235.298 205.766 233.428C212.258 228.754 214.356 210.281 214.356 210.281L222.604 205.128Z" fill="black" stroke="black" stroke-linecap="round" stroke-linejoin="round"/>
<path d="M218.711 241.619L220.466 232.505L207.191 222.375L203.443 237.635L218.711 241.619Z" fill="white"/>
<path d="M205.898 223.438C205.898 223.438 206.98 228.696 210.213 232.003C213.446 235.309 221.878 239.235 221.878 239.235L222.604 232.973L209.408 224.069L207.191 222.398L205.898 223.438Z" fill="black" stroke="black" stroke-width="0.5" stroke-linecap="round" stroke-linejoin="round"/>
<path d="M218.711 241.619L220.466 232.505L207.191 222.375L203.443 237.635L218.711 241.619Z" stroke="black" stroke-linecap="round" stroke-linejoin="round"/>
<path d="M222.934 201.915C222.934 201.915 228.964 211.263 228.832 213.962C228.832 213.962 236.75 232.365 228.832 235.391C222.683 237.728 214.963 233.171 211.941 231.091C211.114 230.513 210.419 229.799 209.896 228.988L207.323 224.98C207.323 224.98 204.156 225.787 201.266 222.141C198.376 218.495 201.345 215.037 204.525 217.187C204.525 217.187 206.927 212.782 206.175 210.351C205.423 207.921 209.025 207.886 209.183 205.304C209.223 205.304 217.787 205.035 222.934 201.915Z" fill="white"/>
<path d="M222.934 201.915C222.934 201.915 228.964 211.263 228.832 213.962C228.832 213.962 236.75 232.365 228.832 235.391C222.683 237.728 214.963 233.171 211.941 231.091C211.114 230.513 210.419 229.799 209.896 228.988L207.323 224.98C207.323 224.98 204.156 225.787 201.266 222.141C198.376 218.495 201.345 215.037 204.525 217.187C204.525 217.187 206.927 212.782 206.175 210.351C205.423 207.921 209.025 207.886 209.183 205.304C209.223 205.304 217.787 205.035 222.934 201.915Z" stroke="black" stroke-linecap="round" stroke-linejoin="round"/>
<path d="M221.825 227.142C221.825 227.142 223.778 229.479 227.75 226.359" stroke="black" stroke-width="0.75" stroke-linecap="round" stroke-linejoin="round"/>
<path d="M225.111 216.24C225.837 218.764 224.992 221.124 223.224 221.522C221.456 221.919 219.437 220.213 218.711 217.701C217.985 215.189 219.146 214.196 220.915 213.81C222.683 213.424 224.385 213.728 225.111 216.24Z" stroke="black" stroke-width="0.75" stroke-linecap="round" stroke-linejoin="round"/>
<path d="M233.187 214.219C233.912 216.743 233.332 219.045 231.867 219.372C230.402 219.699 228.661 217.923 227.908 215.411C227.156 212.899 228.106 211.976 229.545 211.648C230.983 211.321 232.514 211.648 233.187 214.219Z" fill="white" stroke="black" stroke-width="0.75" stroke-linecap="round" stroke-linejoin="round"/>
<path d="M217.774 213.74C218.004 213.32 218.327 212.944 218.723 212.636C219.119 212.327 219.581 212.092 220.082 211.944C220.582 211.796 221.111 211.738 221.637 211.774C222.163 211.809 222.675 211.937 223.145 212.151" stroke="black" stroke-width="0.75" stroke-linecap="round" stroke-linejoin="round"/>
<path d="M226.51 211.134C226.603 210.748 226.806 210.388 227.099 210.09C227.392 209.792 227.766 209.564 228.185 209.428" stroke="black" stroke-width="0.75" stroke-linecap="round" stroke-linejoin="round"/>
<path d="M218.711 217.701L215.346 218.904L204.565 217.187" stroke="black" stroke-width="0.75" stroke-linecap="round" stroke-linejoin="round"/>
<path d="M227.856 214.932L225.164 215.902" stroke="black" stroke-width="0.75" stroke-linecap="round" stroke-linejoin="round"/>
<path d="M223.62 216.848C223.712 217.643 223.356 218.332 222.788 218.39C222.221 218.449 221.693 217.841 221.588 217.047C221.482 216.252 221.851 215.563 222.406 215.504C222.96 215.446 223.514 216.042 223.62 216.848Z" fill="black"/>
<path d="M230.204 214.733C230.31 215.516 230.073 216.17 229.663 216.217C229.254 216.264 228.858 215.656 228.766 214.885C228.674 214.114 228.898 213.448 229.294 213.413C229.69 213.378 230.099 213.962 230.204 214.733Z" fill="black"/>
<path d="M227.156 215.2L232.698 219.512C232.83 219.615 232.933 219.744 232.999 219.889C233.064 220.033 233.091 220.189 233.077 220.344C233.063 220.5 233.008 220.65 232.917 220.783C232.826 220.917 232.702 221.029 232.553 221.113L229.703 222.69" fill="white"/>
<path d="M227.156 215.2L232.698 219.512C232.83 219.615 232.933 219.744 232.999 219.889C233.064 220.033 233.091 220.189 233.077 220.344C233.063 220.5 233.008 220.65 232.917 220.783C232.826 220.917 232.702 221.029 232.553 221.113L229.703 222.69" stroke="black" stroke-width="0.75" stroke-linecap="round" stroke-linejoin="round"/>
<path d="M195.763 205.444C195.763 205.444 194.787 189.904 181.169 196.096C167.551 202.289 180.562 220.517 176.484 224.536C172.407 228.556 180.205 226.756 181.169 223.847C182.132 220.938 181.34 228.696 183.227 228.976C185.114 229.257 185.418 222.316 187.186 222.316C188.954 222.316 186.724 226.64 188.136 227.119C189.548 227.598 192.834 218.636 193.771 213.681C194.266 210.906 194.931 208.156 195.763 205.444Z" fill="black" stroke="black" stroke-linecap="round" stroke-linejoin="round"/>
<path d="M195.763 203.329C195.763 203.329 191 208.003 192.86 219.687C192.926 219.664 183.689 207.828 195.763 203.329Z" fill="#4B59F7" stroke="black" stroke-linecap="round" stroke-linejoin="round"/>
<path d="M207.046 205.128C207.046 205.128 212.324 206.425 213.05 210.281C213.776 214.137 216.23 201.424 207.046 205.128Z" fill="black" stroke="black" stroke-width="0.75" stroke-linecap="round" stroke-linejoin="round"/>
<path d="M224.596 204.299C224.596 204.299 230.336 202.768 232.052 206.098C232.012 206.098 231.194 198.071 224.596 204.299Z" fill="black" stroke="black" stroke-width="0.75" stroke-linecap="round" stroke-linejoin="round"/>
<path d="M269.911 200.957C271.072 200.677 272.273 202.009 272.273 202.009C273.513 200.139 275.493 203.247 275.493 203.247C277.155 201.448 278 205.386 278 205.386C278 205.386 279.755 205.023 279.544 206.998C279.267 209.592 275.862 215.528 275.862 215.528L273.645 225.576L265.345 224.712L267.984 215.072L265.503 210.842C264.592 209.142 264.14 207.278 264.184 205.397C264.58 203.002 268.75 201.226 269.911 200.957Z" fill="white" stroke="black" stroke-linecap="round" stroke-linejoin="round"/>
<path d="M269.924 203.364C269.924 203.364 272.405 207.956 272.101 203.364C272.101 203.364 273.909 209.054 275.057 204.427C275.057 204.427 274.358 209.744 276.799 206.764C276.799 206.764 275.77 208.353 276.232 209.101C276.694 209.849 278 208.622 278 208.622" fill="white"/>
<path d="M269.924 203.364C269.924 203.364 272.405 207.956 272.101 203.364C272.101 203.364 273.909 209.054 275.057 204.427C275.057 204.427 274.358 209.744 276.799 206.764C276.799 206.764 275.77 208.353 276.232 209.101C276.694 209.849 278 208.622 278 208.622" stroke="black" stroke-width="0.75" stroke-linecap="round" stroke-linejoin="round"/>
<path d="M229.413 244.879L255.989 245.37L265.965 220.832L274.741 223.567C274.741 223.567 270.241 254.636 265.741 256.482C261.241 258.328 233.833 260.957 233.833 260.957C233.833 260.957 225.309 252.626 229.413 244.879Z" fill="#4B59F7"/>
<path opacity="0.2" d="M238.848 251.925C237.67 250.021 236.066 248.351 234.132 247.016C232.199 245.682 229.977 244.712 227.605 244.166C231.682 246.503 234.11 251.177 235.707 254.998C236.351 256.546 236.841 258.141 237.172 259.765C242.934 259.753 248.68 259.236 254.327 258.223C250.183 258.024 242.173 256.996 238.848 251.925Z" fill="black"/>
<path d="M229.413 244.879L255.989 245.37L265.965 220.832L274.741 223.567C274.741 223.567 270.241 254.636 265.741 256.482C261.241 258.328 233.833 260.957 233.833 260.957C233.833 260.957 225.309 252.626 229.413 244.879Z" stroke="black" stroke-linecap="round" stroke-linejoin="round"/>
<path d="M264.395 222.725L274.741 225.845L275.44 221.674L265.649 218.916L264.395 222.725Z" fill="#4B59F7" stroke="black" stroke-linecap="round" stroke-linejoin="round"/>
<path d="M278.91 211.567C277.962 211.76 276.979 211.786 276.019 211.643C275.058 211.5 274.14 211.191 273.315 210.733C272.49 210.275 271.775 209.677 271.211 208.974C270.647 208.271 270.246 207.476 270.03 206.636L259.776 166.967L274.292 164.034L284.492 203.703C284.709 204.544 284.737 205.414 284.573 206.265C284.41 207.115 284.059 207.928 283.541 208.659C283.023 209.389 282.347 210.021 281.552 210.52C280.758 211.019 279.86 211.375 278.91 211.567Z" fill="white" stroke="black" stroke-width="0.75" stroke-linecap="round" stroke-linejoin="round"/>
<path d="M272.082 166.491L262.769 168.378L264.288 174.256L273.601 172.368L272.082 166.491Z" fill="#4B59F7"/>
<path opacity="0.7" d="M272.082 166.491L262.769 168.378L264.288 174.256L273.601 172.368L272.082 166.491Z" fill="white"/>
<path d="M273.974 173.764L264.661 175.651L266.18 181.528L275.493 179.641L273.974 173.764Z" fill="#4B59F7"/>
<path opacity="0.3" d="M273.974 173.764L264.661 175.651L266.18 181.528L275.493 179.641L273.974 173.764Z" fill="white"/>
<path d="M275.853 181.05L266.54 182.937L268.059 188.815L277.372 186.928L275.853 181.05Z" fill="#4B59F7"/>
<path d="M277.729 188.311L268.416 190.199L269.934 196.076L279.248 194.189L277.729 188.311Z" fill="#4B59F7"/>
<path opacity="0.2" d="M277.729 188.311L268.416 190.199L269.934 196.076L279.248 194.189L277.729 188.311Z" fill="black"/>
<path d="M279.608 195.598L270.295 197.485L271.814 203.362L281.127 201.475L279.608 195.598Z" fill="#4B59F7"/>
<path opacity="0.3" d="M279.608 195.598L270.295 197.485L271.814 203.362L281.127 201.475L279.608 195.598Z" fill="black"/>
<path d="M266.374 204.556C266.412 204.293 266.535 204.045 266.727 203.841C266.919 203.637 267.173 203.487 267.459 203.407C267.745 203.327 268.051 203.321 268.34 203.39C268.63 203.459 268.891 203.6 269.093 203.796C271.23 205.187 274.371 205.643 274.015 206.507C273.658 207.372 272.84 207.898 269.779 206.799C269.779 206.799 269.238 207.091 270.003 207.968C271.032 208.921 271.736 210.112 272.035 211.403" fill="white"/>
<path d="M266.374 204.556C266.412 204.293 266.535 204.045 266.727 203.841C266.919 203.637 267.173 203.487 267.459 203.407C267.745 203.327 268.051 203.321 268.34 203.39C268.63 203.459 268.891 203.6 269.093 203.796C271.23 205.187 274.371 205.643 274.015 206.507C273.658 207.372 272.84 207.898 269.779 206.799C269.779 206.799 269.238 207.091 270.003 207.968C271.032 208.921 271.736 210.112 272.035 211.403" stroke="black" stroke-width="0.75" stroke-linecap="round" stroke-linejoin="round"/>
<path d="M179.941 245.393L188.242 311.107L182.963 330.865C182.963 330.865 188.519 331.975 203.918 327.687C219.318 323.399 235.8 324.684 235.8 324.684C235.8 324.684 242.622 280.937 239.89 267.266C238.338 259.207 234.767 251.557 229.439 244.879C229.439 244.879 199.867 233.428 181.802 242.18C181.166 242.491 180.65 242.963 180.319 243.535C179.987 244.108 179.856 244.754 179.941 245.393Z" fill="#4B59F7"/>
<path opacity="0.12" d="M195.763 283.379C196.383 275.2 192.266 261.751 192.266 261.751L189.192 262.114C188.578 270.029 188.657 277.975 189.429 285.88C189.746 289.046 191.633 292.341 191.514 295.484C191.409 298.277 189.601 300.158 188.07 302.495C187.806 302.892 187.569 303.29 187.305 303.664C188.059 304.702 188.355 305.95 188.136 307.169C187.964 308.653 187.687 310.113 187.384 311.562C187.479 312.293 187.426 313.033 187.226 313.747C186.302 317.183 185.484 320.583 184.771 324.053C184.075 326.36 183.533 328.701 183.148 331.064C188.958 330.91 194.733 330.221 200.382 329.007C202.701 328.511 204.953 327.794 207.099 326.869C185.734 329.662 193.058 317.428 193.705 312.345C194.351 307.262 214.976 301.058 216.006 295.508C217.035 289.958 195.13 291.523 195.763 283.379Z" fill="black"/>
<path d="M179.941 245.393L188.242 311.107L182.963 330.865C182.963 330.865 188.519 331.975 203.918 327.687C219.318 323.399 235.8 324.684 235.8 324.684C235.8 324.684 242.622 280.937 239.89 267.266C238.338 259.207 234.767 251.557 229.439 244.879C229.439 244.879 199.867 233.428 181.802 242.18C181.166 242.491 180.65 242.963 180.319 243.535C179.987 244.108 179.856 244.754 179.941 245.393V245.393Z" stroke="black" stroke-linecap="round" stroke-linejoin="round"/>
<path d="M198.653 239.235L202.546 232.505C207.026 233.845 211.586 234.968 216.204 235.87C223.686 237.319 221.878 239.235 221.878 239.235L219.964 244.342C219.964 244.342 217.022 246.935 198.653 239.235Z" fill="#4B59F7" stroke="black" stroke-linecap="round" stroke-linejoin="round"/>
<path d="M184.191 290.168C184.191 290.168 188.426 287.212 189.469 288.474C190.511 289.736 188.281 289.315 186.605 293.615" stroke="black" stroke-linecap="round" stroke-linejoin="round"/>
<path d="M222.168 321.319C221.874 319.949 222.204 318.533 223.087 317.378C223.97 316.224 225.334 315.427 226.879 315.161L262.983 309.015L265.226 319.332L229.122 325.478C227.577 325.742 225.977 325.453 224.673 324.673C223.369 323.893 222.468 322.687 222.168 321.319Z" fill="white" stroke="black" stroke-width="0.75" stroke-linecap="round" stroke-linejoin="round"/>
<path d="M263.065 317.738L261.62 311.083L256.268 311.995L257.714 318.65L263.065 317.738Z" fill="#4B59F7"/>
<path opacity="0.7" d="M263.068 317.737L261.62 311.083L256.267 311.993L257.716 318.647L263.068 317.737Z" fill="white"/>
<path d="M256.44 318.873L254.994 312.218L249.642 313.13L251.088 319.785L256.44 318.873Z" fill="#4B59F7"/>
<path opacity="0.3" d="M256.443 318.873L254.994 312.218L249.642 313.128L251.091 319.783L256.443 318.873Z" fill="white"/>
<path d="M249.812 319.988L248.368 313.344L243.016 314.256L244.46 320.9L249.812 319.988Z" fill="#4B59F7"/>
<path d="M243.186 321.114L241.743 314.47L236.391 315.382L237.834 322.026L243.186 321.114Z" fill="#4B59F7"/>
<path opacity="0.2" d="M243.189 321.113L241.743 314.47L236.391 315.38L237.837 322.023L243.189 321.113Z" fill="black"/>
<path d="M236.56 322.238L235.117 315.594L229.765 316.506L231.209 323.149L236.56 322.238Z" fill="#4B59F7"/>
<path opacity="0.3" d="M236.563 322.237L235.117 315.594L229.765 316.504L231.211 323.147L236.563 322.237Z" fill="black"/>
<path d="M223.607 322.698C223.095 322.176 222.705 321.57 222.458 320.915C222.211 320.26 222.112 319.568 222.167 318.879C222.222 318.19 222.43 317.517 222.779 316.899C223.128 316.281 223.611 315.73 224.2 315.278L251.991 293.965L259.763 301.911L231.973 323.223C231.385 323.676 230.702 324.021 229.963 324.24C229.224 324.458 228.444 324.546 227.666 324.497C226.889 324.448 226.131 324.264 225.434 323.955C224.737 323.646 224.116 323.219 223.607 322.698Z" fill="white" stroke="black" stroke-width="0.75" stroke-linecap="round" stroke-linejoin="round"/>
<path d="M256.983 301.484L251.982 296.37L247.862 299.529L252.863 304.643L256.983 301.484Z" fill="#4B59F7"/>
<path opacity="0.7" d="M256.989 301.479L251.982 296.37L247.858 299.525L252.865 304.634L256.989 301.479Z" fill="white"/>
<path d="M251.901 305.397L246.89 300.273L242.77 303.432L247.781 308.555L251.901 305.397Z" fill="#4B59F7"/>
<path opacity="0.3" d="M251.906 305.391L246.89 300.273L242.767 303.428L247.783 308.546L251.906 305.391Z" fill="white"/>
<path d="M246.786 309.308L241.785 304.193L237.665 307.352L242.666 312.467L246.786 309.308Z" fill="#4B59F7"/>
<path d="M241.693 313.228L236.692 308.113L232.572 311.272L237.573 316.387L241.693 313.228Z" fill="#4B59F7"/>
<path opacity="0.2" d="M241.699 313.223L236.692 308.113L232.569 311.268L237.576 316.378L241.699 313.223Z" fill="black"/>
<path d="M236.597 317.128L231.587 312.005L227.467 315.164L232.478 320.287L236.597 317.128Z" fill="#4B59F7"/>
<path opacity="0.3" d="M236.603 317.123L231.587 312.005L227.464 315.16L232.48 320.278L236.603 317.123Z" fill="black"/>
<path d="M224.728 322.885C223.244 322.426 222.025 321.465 221.34 320.212C220.655 318.959 220.559 317.517 221.073 316.201L233.108 285.494L244.311 288.929L232.276 319.695C231.751 321.002 230.661 322.072 229.246 322.67C227.832 323.268 226.207 323.345 224.728 322.885Z" fill="white" stroke="black" stroke-width="0.75" stroke-linecap="round" stroke-linejoin="round"/>
<path d="M241.68 289.748L234.448 287.53L232.664 292.089L239.896 294.308L241.68 289.748Z" fill="#4B59F7"/>
<path opacity="0.7" d="M241.681 289.744L234.448 287.53L232.661 292.088L239.894 294.303L241.681 289.744Z" fill="white"/>
<path d="M239.452 295.381L232.233 293.166L230.449 297.726L237.668 299.941L239.452 295.381Z" fill="#4B59F7"/>
<path opacity="0.3" d="M239.454 295.377L232.233 293.166L230.446 297.725L237.666 299.935L239.454 295.377Z" fill="white"/>
<path d="M237.25 301.021L230.03 298.806L228.246 303.366L235.466 305.581L237.25 301.021Z" fill="#4B59F7"/>
<path d="M235.06 306.677L227.828 304.458L226.043 309.018L233.275 311.237L235.06 306.677Z" fill="#4B59F7"/>
<path opacity="0.2" d="M235.061 306.673L227.828 304.458L226.04 309.017L233.273 311.231L235.061 306.673Z" fill="black"/>
<path d="M232.832 312.309L225.613 310.095L223.828 314.654L231.048 316.869L232.832 312.309Z" fill="#4B59F7"/>
<path opacity="0.3" d="M232.833 312.305L225.613 310.095L223.825 314.653L231.046 316.864L232.833 312.305Z" fill="black"/>
<path d="M210.859 303.64L220.862 310.102C220.862 310.102 232.21 310.102 234.269 312.848C236.327 315.593 236.908 318.69 235.061 319.8C233.213 320.91 236.024 316.832 230.891 314.764C230.891 314.764 233.53 325.362 228.951 323.095C228.951 323.095 228.357 324.894 226.628 323.247C226.928 321.928 226.704 320.557 225.995 319.367C225.79 318.927 225.46 318.54 225.037 318.246C224.614 317.951 224.112 317.758 223.58 317.685C223.58 317.685 226.8 321.576 224.675 322.639C222.96 323.492 222.036 317.895 219.74 317.264C218.499 317.191 217.302 316.828 216.271 316.212C215.239 315.597 214.41 314.75 213.868 313.759L206.122 310.032L210.859 303.64Z" fill="white" stroke="black" stroke-linecap="round" stroke-linejoin="round"/>
<path d="M229.347 321.447C229.602 319.474 228.977 317.491 227.605 315.921" stroke="black" stroke-width="0.75" stroke-linecap="round" stroke-linejoin="round"/>
<path d="M231.828 312.941C231.828 312.941 231.616 313.747 229.558 313.572C228.04 313.443 225.81 316.154 223.488 315.745" stroke="black" stroke-width="0.75" stroke-linecap="round" stroke-linejoin="round"/>
<path d="M182.106 243.582C181.986 243.438 181.825 243.325 181.64 243.255C181.454 243.185 181.251 243.161 181.051 243.185C180.851 243.209 180.662 243.28 180.504 243.391C180.346 243.502 180.224 243.649 180.153 243.816C177.975 248.77 172.143 265.327 175.283 294.678C175.283 294.678 177.804 300.672 207.415 312.123L213.05 304.411L191.158 288.672C191.158 288.672 194.021 267.64 191.857 259.788" fill="#4B59F7"/>
<path d="M182.106 243.582C181.986 243.438 181.825 243.325 181.64 243.255C181.454 243.185 181.251 243.161 181.051 243.185C180.851 243.209 180.662 243.28 180.504 243.391C180.346 243.502 180.224 243.649 180.153 243.816C177.975 248.77 172.143 265.327 175.283 294.678C175.283 294.678 177.804 300.672 207.415 312.123L213.05 304.411L191.158 288.672C191.158 288.672 194.021 267.64 191.857 259.788" stroke="black" stroke-linecap="round" stroke-linejoin="round"/>
<path d="M211.743 302.635L204.948 312.38L210.279 314.074L216.006 305.556L211.743 302.635Z" fill="#4B59F7" stroke="black" stroke-linecap="round" stroke-linejoin="round"/>
<path d="M92.5585 148.996C92.6772 152.128 93.0467 161.522 93.0467 161.522L114.081 172.692L115.401 151.403L116.126 122.192L119.584 117.939C119.584 117.939 124.756 110.928 116.126 108.206C107.496 105.483 109.898 110.543 101.321 111.396C92.7432 112.249 72.6327 124.249 81.7379 134.683C90.843 145.117 92.3473 143.762 92.5585 148.996Z" fill="#999999"/>
<path d="M100.621 143.423C101.853 144.365 103.332 145.02 104.923 145.327C104.923 145.327 108.182 153.506 109.819 154.605C111.455 155.703 117.288 156.579 117.288 156.579L119.003 145.795L106.889 138.784L100.291 137.031L100.621 143.423Z" fill="black" stroke="black" stroke-linecap="round" stroke-linejoin="round"/>
<path d="M92.5585 148.996C92.6772 152.128 93.0467 161.522 93.0467 161.522L114.081 172.692L115.401 151.403L116.126 122.192L119.584 117.939C119.584 117.939 124.756 110.928 116.126 108.206C107.496 105.483 109.898 110.543 101.321 111.396C92.7432 112.249 72.6327 124.249 81.7379 134.683C90.843 145.117 92.3473 143.762 92.5585 148.996Z" stroke="black" stroke-linecap="round" stroke-linejoin="round"/>
<path d="M116.113 122.215L119.57 117.962C119.57 117.962 124.743 110.952 116.113 108.229C107.483 105.507 109.885 110.566 101.307 111.419C92.73 112.272 72.6327 124.249 81.7379 134.683C87.6496 141.506 90.368 143.294 91.5952 145.199C92.5648 144.647 93.7204 144.409 94.8655 144.526C96.0106 144.643 97.0746 145.108 97.8764 145.841C101.307 148.868 104.804 131.96 104.804 131.96L116.047 124.891L116.113 122.215Z" fill="black" stroke="black" stroke-linecap="round" stroke-linejoin="round"/>
<path d="M100.793 133.468C100.793 133.468 92.3209 133.666 96.8339 139.31C101.347 144.953 106.071 143.878 106.071 143.878L111.231 152.583C111.231 152.583 129.19 154.827 133.426 153.752C137.662 152.677 130.338 139.567 130.338 139.567L133.149 136.716C133.306 136.56 133.424 136.377 133.498 136.179C133.572 135.98 133.599 135.771 133.578 135.563C133.557 135.355 133.488 135.153 133.376 134.97C133.264 134.786 133.11 134.625 132.925 134.496L126.221 129.729C126.789 126.796 119.465 117.974 119.465 117.974C119.465 117.974 108.591 117.869 107.589 121.117C106.973 123.039 106.475 124.99 106.097 126.959L99.9218 129.191L100.793 133.468Z" fill="#999999"/>
<path opacity="0.3" d="M104.923 124.646L106.243 126.983C106.243 126.983 111.679 130.278 111.97 132.054C112.339 134.391 109.528 136.003 115.269 140.969C121.009 145.935 126.511 140.163 130.51 139.555C134.508 138.948 137.833 147.968 137.833 147.968L137.385 156.147L115.269 156.755L110.478 154.126L104.21 144.778C104.21 144.778 111.006 144.241 107.615 138.936C102.917 131.61 97.4277 132.65 97.4277 132.65L93.6405 129.67L103.379 123.466L104.923 124.646Z" fill="black"/>
<path d="M100.793 133.468C100.793 133.468 92.3209 133.666 96.8339 139.31C101.347 144.953 106.071 143.878 106.071 143.878L111.231 152.583C111.231 152.583 129.19 154.827 133.426 153.752C137.662 152.677 130.338 139.567 130.338 139.567L133.149 136.716C133.306 136.56 133.424 136.377 133.498 136.179C133.572 135.98 133.599 135.771 133.578 135.563C133.557 135.355 133.488 135.153 133.376 134.97C133.264 134.786 133.11 134.625 132.925 134.496L126.221 129.729C126.789 126.796 119.465 117.974 119.465 117.974C119.465 117.974 108.591 117.869 107.589 121.117C106.973 123.039 106.475 124.99 106.097 126.959L99.9218 129.191L100.793 133.468Z" stroke="black" stroke-linecap="round" stroke-linejoin="round"/>
<path d="M124.677 130.5C125.02 131.399 124.967 132.241 124.545 132.369C124.123 132.498 123.503 131.867 123.16 130.955C122.817 130.044 122.883 129.226 123.292 129.098C123.701 128.969 124.308 129.6 124.677 130.5Z" fill="black"/>
<path d="M122.988 126.27C122.988 126.27 119.9 125.662 119.029 129.413" stroke="black" stroke-linecap="round" stroke-linejoin="round"/>
<path d="M129.124 141.39C129.124 141.39 128.055 144.03 123.978 142.698" stroke="black" stroke-linecap="round" stroke-linejoin="round"/>
<path d="M203.602 140.887C204.921 141.39 205.027 143.505 205.027 143.505C207.851 142.488 207.164 146.858 207.164 146.858C210.318 146.192 207.824 150.644 207.824 150.644C207.824 150.644 209.87 151.462 207.983 153.261C205.502 155.598 197.109 159.22 197.109 159.22L186.394 167.68L178.939 161.3L189.68 153.506C189.68 153.506 190.195 150.971 190.868 147.664C190.868 147.664 191.857 143.598 194.233 141.46C196.608 139.322 202.163 140.385 203.602 140.887Z" fill="#999999" stroke="black" stroke-linecap="round" stroke-linejoin="round"/>
<path d="M201.583 143.271C201.583 143.271 200.118 149.464 203.734 144.696C203.734 144.696 200.699 151.52 205.753 147.723C205.753 147.723 200.54 152.502 205.502 151.146C205.502 151.146 203.153 152.034 202.968 153.062C202.783 154.091 205.119 153.764 205.119 153.764" fill="#999999"/>
<path d="M201.583 143.271C201.583 143.271 200.118 149.464 203.734 144.696C203.734 144.696 200.699 151.52 205.753 147.723C205.753 147.723 200.54 152.502 205.502 151.146C205.502 151.146 203.153 152.034 202.968 153.062C202.783 154.091 205.119 153.764 205.119 153.764" stroke="black" stroke-linecap="round" stroke-linejoin="round"/>
<path d="M92.0306 193.187C92.0306 193.187 111.125 197.125 152.032 191.785C152.032 191.785 183.452 177.249 191.475 163.871L184.019 156.287L145.421 175.473C145.421 175.473 105.226 169.982 97.784 170.799L92.0306 193.187Z" fill="black" stroke="black" stroke-linecap="round" stroke-linejoin="round"/>
<path d="M257.656 102.324L193.175 112.402L201.632 154.827L266.113 144.749L257.656 102.324Z" fill="#999999" stroke="black" stroke-width="0.75" stroke-linecap="round" stroke-linejoin="round"/>
<path d="M204.643 113.435L197.885 114.491L198.771 118.932L205.528 117.876L204.643 113.435Z" fill="black" stroke="black" stroke-linecap="round" stroke-linejoin="round"/>
<path d="M210.266 143.949L221.429 120.895L240.827 139.17L210.266 143.949Z" fill="#4B59F7"/>
<path opacity="0.5" d="M210.266 143.949L221.429 120.895L240.827 139.17L210.266 143.949Z" fill="white"/>
<path d="M210.266 143.949L221.429 120.895L240.827 139.17L210.266 143.949Z" stroke="black" stroke-width="0.75" stroke-linecap="round" stroke-linejoin="round"/>
<path d="M230.455 140.794L238.98 123.197L253.799 137.148L230.455 140.794Z" fill="#4B59F7" stroke="black" stroke-width="0.75" stroke-linecap="round" stroke-linejoin="round"/>
<path d="M236.618 118.523C236.755 119.206 236.66 119.91 236.345 120.545C236.03 121.18 235.51 121.719 234.849 122.092C234.189 122.465 233.418 122.656 232.635 122.641C231.852 122.626 231.091 122.406 230.449 122.008C229.807 121.61 229.313 121.053 229.03 120.406C228.746 119.759 228.686 119.053 228.856 118.375C229.026 117.698 229.419 117.081 229.986 116.602C230.553 116.123 231.267 115.803 232.039 115.684C233.071 115.524 234.133 115.733 234.991 116.266C235.849 116.798 236.434 117.61 236.618 118.523Z" fill="#4B59F7"/>
<path opacity="0.7" d="M236.618 118.523C236.755 119.206 236.66 119.91 236.345 120.545C236.03 121.18 235.51 121.719 234.849 122.092C234.189 122.465 233.418 122.656 232.635 122.641C231.852 122.626 231.091 122.406 230.449 122.008C229.807 121.61 229.313 121.053 229.03 120.406C228.746 119.759 228.686 119.053 228.856 118.375C229.026 117.698 229.419 117.081 229.986 116.602C230.553 116.123 231.267 115.803 232.039 115.684C233.071 115.524 234.133 115.733 234.991 116.266C235.849 116.798 236.434 117.61 236.618 118.523Z" fill="white"/>
<path d="M236.618 118.523C236.755 119.206 236.66 119.91 236.345 120.545C236.03 121.18 235.51 121.719 234.849 122.092C234.189 122.465 233.418 122.656 232.635 122.641C231.852 122.626 231.091 122.406 230.449 122.008C229.807 121.61 229.313 121.053 229.03 120.406C228.746 119.759 228.686 119.053 228.856 118.375C229.026 117.698 229.419 117.081 229.986 116.602C230.553 116.123 231.267 115.803 232.039 115.684C233.071 115.524 234.133 115.733 234.991 116.266C235.849 116.798 236.434 117.61 236.618 118.523V118.523Z" stroke="black" stroke-width="0.75" stroke-linecap="round" stroke-linejoin="round"/>
<path d="M197.043 140.911C197.306 140.678 197.639 140.517 198.002 140.446C198.365 140.375 198.743 140.397 199.093 140.51C199.442 140.623 199.747 140.822 199.973 141.083C200.199 141.345 200.337 141.658 200.369 141.986C201.306 144.766 205.357 146.157 204.248 146.753C203.14 147.349 200.593 148.517 198.495 145.397C198.495 145.397 197.716 145.327 197.769 146.671C197.835 148.307 197.769 150.352 196.859 151.403" fill="#999999"/>
<path d="M197.043 140.911C197.306 140.678 197.639 140.517 198.002 140.446C198.365 140.375 198.743 140.397 199.093 140.51C199.442 140.623 199.747 140.822 199.973 141.083C200.199 141.345 200.337 141.658 200.369 141.986C201.306 144.766 205.357 146.157 204.248 146.753C203.14 147.349 200.593 148.517 198.495 145.397C198.495 145.397 197.716 145.327 197.769 146.671C197.835 148.307 197.769 150.352 196.859 151.403" stroke="black" stroke-linecap="round" stroke-linejoin="round"/>
<path d="M51.2291 425.509C47.7818 429.427 45.3572 433.972 44.1297 438.818C44.0063 439.297 43.9928 439.793 44.0902 440.277C44.1876 440.761 44.3938 441.223 44.6966 441.635C44.9994 442.047 45.3926 442.401 45.8529 442.675C46.3131 442.95 46.831 443.14 47.3759 443.235L74.1634 448.072C80.0488 449.147 89.0616 448.925 93.6141 448.726C94.1393 448.709 94.6543 448.593 95.1248 448.386C95.5953 448.179 96.0106 447.886 96.3428 447.525C96.675 447.165 96.9165 446.746 97.0513 446.296C97.186 445.846 97.2109 445.376 97.1242 444.917C96.8753 444.018 96.3975 443.181 95.7274 442.47C95.0573 441.759 94.2126 441.193 93.2579 440.816C86.9238 437.708 71.8674 435.616 65.6653 427.192L51.2291 425.509Z" fill="black" stroke="black" stroke-linecap="round" stroke-linejoin="round"/>
<path d="M131.104 279.582C131.104 279.582 117.01 314.25 98.9717 347.422C98.9717 347.422 95.4748 362.004 87.5968 371.959L67.803 427.916C67.803 427.916 59.1202 431.083 48.8274 425.579C48.8274 425.579 53.7362 389.778 66.2855 363.804L73.6884 343.227L82.9255 301.794C82.9255 301.794 75.1003 289.806 77.1853 272.209L111.93 271.788L131.104 279.582Z" fill="#4B59F7"/>
<path opacity="0.2" d="M86.4884 274.16C84.1527 275.329 81.9358 276.649 79.5606 277.747C78.3248 278.272 77.1301 278.869 75.9845 279.535C76.0637 279.535 75.9053 279.64 75.747 279.769C75.7708 279.959 75.7708 280.151 75.747 280.341C75.681 280.695 75.5657 281.041 75.4039 281.37C76.0186 281.9 76.4907 282.546 76.7854 283.26C77.08 283.974 77.1897 284.738 77.1061 285.494C77.1061 286.032 77.1061 286.569 77.0006 287.107L77.1721 287.34C77.941 288.856 78.4609 290.461 78.716 292.108C79.2753 294.559 80.1936 296.936 81.4476 299.177C81.7144 299.696 81.9137 300.241 82.0414 300.801L82.9255 301.794C82.9255 301.794 91.4764 352.458 97.85 351.325C104.224 350.191 108.407 323.2 108.407 323.2L86.4884 274.16Z" fill="black"/>
<path d="M131.104 279.582C131.104 279.582 117.01 314.25 98.9717 347.422C98.9717 347.422 95.4748 362.004 87.5968 371.959L67.803 427.916C67.803 427.916 59.1202 431.083 48.8274 425.579C48.8274 425.579 53.7362 389.778 66.2855 363.804L73.6884 343.227L82.9255 301.794C82.9255 301.794 75.1003 289.806 77.1853 272.209L111.93 271.788L131.104 279.582Z" stroke="black" stroke-linecap="round" stroke-linejoin="round"/>
<path d="M111.112 431.071C111.112 431.071 106.889 436.06 106.665 444.964C106.66 445.48 106.77 445.992 106.99 446.471C107.21 446.949 107.535 447.384 107.946 447.75C108.358 448.117 108.847 448.407 109.386 448.605C109.924 448.802 110.502 448.903 111.085 448.902H140.116C146.49 448.902 155.793 446.974 160.478 445.91C161.023 445.79 161.534 445.568 161.975 445.259C162.416 444.951 162.778 444.562 163.036 444.12C163.295 443.678 163.444 443.192 163.474 442.695C163.503 442.198 163.413 441.7 163.209 441.237C162.726 440.358 162.025 439.586 161.159 438.979C160.294 438.373 159.285 437.946 158.208 437.731C150.871 435.71 134.732 436.376 126.261 428.793L111.112 431.071Z" fill="black" stroke="black" stroke-linecap="round" stroke-linejoin="round"/>
<path d="M128.596 268.902C128.596 268.902 134.416 306.187 128.596 342.678C128.596 342.678 128.953 357.868 124.836 369.435L128.121 429.342C128.121 429.342 121.062 434.202 109.383 431.772C109.383 431.772 97.3618 394.066 100.146 367.005L98.8265 345.412L89.4707 300.684C89.4707 300.684 78.7424 293.673 74.7045 276.357L107.694 266.624L128.596 268.902Z" fill="#4B59F7" stroke="black" stroke-linecap="round" stroke-linejoin="round"/>
<path d="M89.8137 160.529C89.8137 160.529 75.3907 170.262 73.3189 194.589C71.2472 218.916 66.8002 269.697 75.7338 283.076C75.7338 283.076 84.3111 269.416 130.681 274.896C130.681 274.896 135.485 254.519 128.266 214.686C121.048 174.854 112.814 164.794 89.8137 160.529Z" fill="black" stroke="black" stroke-linecap="round" stroke-linejoin="round"/>
<path d="M89.8137 161.744L91.1333 154.149C98.0584 154.467 104.682 156.758 110.017 160.681C116.153 165.261 118.092 169.654 113.619 174.819L89.8137 162.655V161.744Z" fill="black" stroke="black" stroke-linecap="round" stroke-linejoin="round"/>
<path d="M113.302 171.968C108.275 166.207 101.848 163.134 93.1391 161.183" stroke="#7F7F7F" stroke-width="0.75" stroke-linecap="round" stroke-linejoin="round"/>
<path d="M124.44 196.201C121.998 187.064 119.254 180.287 115.796 175.169" stroke="#7F7F7F" stroke-width="0.75" stroke-linecap="round" stroke-linejoin="round"/>
<path d="M163.907 248.124L98.4288 248.205L98.4967 291.286L163.975 291.205L163.907 248.124Z" fill="#999999" stroke="black" stroke-width="0.75" stroke-linecap="round" stroke-linejoin="round"/>
<path d="M109.531 250.973L102.669 250.981L102.676 255.491L109.538 255.483L109.531 250.973Z" fill="black" stroke="black" stroke-linecap="round" stroke-linejoin="round"/>
<path d="M109.106 281.907L124.598 260.898L140.143 281.86L109.106 281.907Z" fill="#4B59F7"/>
<path opacity="0.5" d="M109.106 281.907L124.598 260.898L140.143 281.86L109.106 281.907Z" fill="white"/>
<path d="M109.106 281.907L124.598 260.898L140.143 281.86L109.106 281.907Z" stroke="black" stroke-width="0.75" stroke-linecap="round" stroke-linejoin="round"/>
<path d="M129.612 281.884L141.436 265.841L153.312 281.849L129.612 281.884Z" fill="#4B59F7" stroke="black" stroke-width="0.75" stroke-linecap="round" stroke-linejoin="round"/>
<path d="M140.024 260.875C140.024 261.568 139.792 262.246 139.357 262.823C138.922 263.399 138.304 263.848 137.58 264.114C136.857 264.379 136.061 264.448 135.293 264.313C134.525 264.178 133.82 263.844 133.266 263.354C132.712 262.863 132.335 262.239 132.183 261.559C132.03 260.879 132.108 260.174 132.408 259.534C132.707 258.893 133.215 258.346 133.866 257.96C134.517 257.575 135.282 257.37 136.065 257.37C137.115 257.37 138.122 257.739 138.864 258.396C139.607 259.054 140.024 259.945 140.024 260.875Z" fill="#4B59F7"/>
<path opacity="0.7" d="M140.024 260.875C140.024 261.568 139.792 262.246 139.357 262.823C138.922 263.399 138.304 263.848 137.58 264.114C136.857 264.379 136.061 264.448 135.293 264.313C134.525 264.178 133.82 263.844 133.266 263.354C132.712 262.863 132.335 262.239 132.183 261.559C132.03 260.879 132.108 260.174 132.408 259.534C132.707 258.893 133.215 258.346 133.866 257.96C134.517 257.575 135.282 257.37 136.065 257.37C137.115 257.37 138.122 257.739 138.864 258.396C139.607 259.054 140.024 259.945 140.024 260.875Z" fill="white"/>
<path d="M140.024 260.875C140.024 261.568 139.792 262.246 139.357 262.823C138.922 263.399 138.304 263.848 137.58 264.114C136.857 264.379 136.061 264.448 135.293 264.313C134.525 264.178 133.82 263.844 133.266 263.354C132.712 262.863 132.335 262.239 132.183 261.559C132.03 260.879 132.108 260.174 132.408 259.534C132.707 258.893 133.215 258.346 133.866 257.96C134.517 257.575 135.282 257.37 136.065 257.37C137.115 257.37 138.122 257.739 138.864 258.396C139.607 259.054 140.024 259.945 140.024 260.875Z" stroke="black" stroke-width="0.75" stroke-linecap="round" stroke-linejoin="round"/>
<path d="M160.467 244.59L95.546 252.138L101.88 294.852L166.8 287.304L160.467 244.59Z" fill="white" stroke="black" stroke-width="0.75" stroke-linecap="round" stroke-linejoin="round"/>
<path d="M106.975 253.622L100.171 254.413L100.834 258.885L107.638 258.094L106.975 253.622Z" fill="black" stroke="black" stroke-linecap="round" stroke-linejoin="round"/>
<path d="M111.059 284.326L123.371 261.728L141.845 280.739L111.059 284.326Z" fill="#4B59F7"/>
<path opacity="0.5" d="M111.059 284.326L123.371 261.728L141.845 280.739L111.059 284.326Z" fill="white"/>
<path d="M111.059 284.326L123.371 261.728L141.845 280.739L111.059 284.326Z" stroke="black" stroke-width="0.75" stroke-linecap="round" stroke-linejoin="round"/>
<path d="M131.394 281.954L140.789 264.708L154.896 279.22L131.394 281.954Z" fill="#4B59F7" stroke="black" stroke-width="0.75" stroke-linecap="round" stroke-linejoin="round"/>
<path d="M138.665 259.94C138.768 260.628 138.638 261.326 138.292 261.948C137.947 262.57 137.4 263.087 136.723 263.435C136.045 263.782 135.267 263.943 134.485 263.898C133.704 263.854 132.955 263.605 132.334 263.184C131.712 262.762 131.246 262.187 130.993 261.531C130.741 260.875 130.713 260.167 130.915 259.498C131.117 258.828 131.538 258.226 132.126 257.768C132.714 257.31 133.442 257.017 134.218 256.926C134.733 256.865 135.257 256.895 135.76 257.013C136.263 257.132 136.734 257.337 137.147 257.617C137.56 257.897 137.906 258.246 138.167 258.645C138.427 259.044 138.597 259.484 138.665 259.94Z" fill="#4B59F7"/>
<path opacity="0.7" d="M138.665 259.94C138.768 260.628 138.638 261.326 138.292 261.948C137.947 262.57 137.4 263.087 136.723 263.435C136.045 263.782 135.267 263.943 134.485 263.898C133.704 263.854 132.955 263.605 132.334 263.184C131.712 262.762 131.246 262.187 130.993 261.531C130.741 260.875 130.713 260.167 130.915 259.498C131.117 258.828 131.538 258.226 132.126 257.768C132.714 257.31 133.442 257.017 134.218 256.926C134.733 256.865 135.257 256.895 135.76 257.013C136.263 257.132 136.734 257.337 137.147 257.617C137.56 257.897 137.906 258.246 138.167 258.645C138.427 259.044 138.597 259.484 138.665 259.94Z" fill="white"/>
<path d="M138.665 259.94C138.768 260.628 138.638 261.326 138.292 261.948C137.947 262.57 137.4 263.087 136.723 263.435C136.045 263.782 135.267 263.943 134.485 263.898C133.704 263.854 132.955 263.605 132.334 263.184C131.712 262.762 131.246 262.187 130.993 261.531C130.741 260.875 130.713 260.167 130.915 259.498C131.117 258.828 131.538 258.226 132.126 257.768C132.714 257.31 133.442 257.017 134.218 256.926C134.733 256.865 135.257 256.895 135.76 257.013C136.263 257.132 136.734 257.337 137.147 257.617C137.56 257.897 137.906 258.246 138.167 258.645C138.427 259.044 138.597 259.484 138.665 259.94V259.94Z" stroke="black" stroke-width="0.75" stroke-linecap="round" stroke-linejoin="round"/>
<path d="M122.342 268.902L129.269 277.642L137.187 279.266C140.433 279.932 142.149 280.563 143.389 283.321C144.273 285.296 143.679 285.903 142.069 286.417C142.069 286.417 146.793 294.445 141.871 293.662C141.871 293.662 142.28 297.342 137.372 295.999C137.372 295.999 135.801 298.487 132.397 296.466C132.397 296.466 129.758 298.254 126.089 292.213L120.811 283.613L113.038 275.855L122.342 268.902Z" fill="#999999" stroke="black" stroke-linecap="round" stroke-linejoin="round"/>
<path d="M141.462 291.068C141.462 291.068 142.122 293.498 139.417 293.405C136.712 293.311 137.2 295.742 130.879 294.889" fill="#999999"/>
<path d="M141.462 291.068C141.462 291.068 142.122 293.498 139.417 293.405C136.712 293.311 137.2 295.742 130.879 294.889" stroke="black" stroke-linecap="round" stroke-linejoin="round"/>
<path d="M84.9972 181.502C84.9972 181.502 78.1354 199.742 81.9094 239.925C81.9094 239.925 98.8133 271.543 116.113 280.365L126.894 272.454L105.952 234.749C105.952 234.749 116.667 196.131 116.113 188.84" fill="black"/>
<path d="M84.9972 181.502C84.9972 181.502 78.1354 199.742 81.9094 239.925C81.9094 239.925 98.8133 271.543 116.113 280.365L126.894 272.454L105.952 234.749C105.952 234.749 116.667 196.131 116.113 188.84" stroke="black" stroke-linecap="round" stroke-linejoin="round"/>
<path d="M113.659 204.521C115.229 197.51 116.298 191.317 116.179 188.817" stroke="#7F7F7F" stroke-width="0.75" stroke-linecap="round" stroke-linejoin="round"/>
<path d="M107.153 236.747L106.031 234.725C106.031 234.725 109.99 220.435 112.972 207.594" stroke="#7F7F7F" stroke-width="0.75" stroke-linecap="round" stroke-linejoin="round"/>
<path d="M112.959 247.239L108.525 239.247" stroke="#7F7F7F" stroke-width="0.75" stroke-linecap="round" stroke-linejoin="round"/>
<path d="M81.6059 235.59C81.7115 237.004 81.8302 238.429 81.9754 239.901C86.0892 247.359 90.776 254.558 96.0026 261.448" stroke="#7F7F7F" stroke-width="0.75" stroke-linecap="round" stroke-linejoin="round"/>
<path d="M85.0632 181.502C85.0632 181.502 79.0855 197.405 81.3552 232.166" stroke="#7F7F7F" stroke-width="0.75" stroke-linecap="round" stroke-linejoin="round"/>
<path d="M523.931 115.602C522.707 105.318 520.047 95.2076 516.013 85.5028" stroke="black" stroke-linecap="round" stroke-linejoin="round"/>
<path d="M483.327 40.2606C483.391 40.3092 483.449 40.3641 483.499 40.424" stroke="black" stroke-linecap="round" stroke-linejoin="round"/>
<path d="M479.606 37.1759C479.012 36.6968 478.419 36.2411 477.825 35.7971C463.125 24.6151 451.644 22.1263 446.828 21.5654" stroke="black" stroke-linecap="round" stroke-linejoin="round"/>
<path d="M445.498 19.1719L442.534 20.4538L443.982 23.0786L446.946 21.7967L445.498 19.1719Z" stroke="black" stroke-linecap="round" stroke-linejoin="round"/>
<path d="M524.826 115.222L521.862 116.504L523.309 119.129L526.274 117.847L524.826 115.222Z" stroke="black" stroke-linecap="round" stroke-linejoin="round"/>
<path d="M499.07 53.9197L500.825 55.4854C500.769 55.6823 500.65 55.8607 500.482 55.9995C500.332 56.1432 500.14 56.2482 499.928 56.3033L498.146 54.7143L482.562 40.9616L483.459 40.1437L499.07 53.9197Z" fill="black" stroke="black" stroke-linecap="round" stroke-linejoin="round"/>
<path d="M501.168 54.2352C501.414 54.4501 501.587 54.7213 501.669 55.0184C501.75 55.3156 501.737 55.627 501.63 55.9177C501.554 56.1829 501.399 56.4252 501.181 56.6188C500.967 56.7987 500.71 56.9343 500.429 57.0161C500.096 57.1139 499.739 57.1285 499.396 57.0585C499.054 56.9884 498.74 56.8363 498.489 56.6188C498.24 56.396 498.066 56.1167 497.984 55.8116C497.903 55.5066 497.918 55.1875 498.028 54.8895C498.119 54.6381 498.278 54.4098 498.489 54.2235C498.702 54.027 498.971 53.8856 499.268 53.8146C499.598 53.7226 499.95 53.7133 500.285 53.7875C500.62 53.8618 500.926 54.0167 501.168 54.2352Z" fill="black" stroke="black" stroke-linecap="round" stroke-linejoin="round"/>
<path d="M479.395 37.1759L464.101 23.7504" stroke="black" stroke-linecap="round" stroke-linejoin="round"/>
<path d="M464.391 22.2665C464.514 22.5007 464.555 22.7618 464.51 23.0168C464.466 23.2719 464.337 23.5095 464.14 23.6998C463.943 23.8902 463.687 24.0247 463.404 24.0865C463.121 24.1483 462.824 24.1347 462.549 24.0473C462.275 23.9598 462.036 23.8026 461.863 23.5952C461.689 23.3878 461.589 23.1397 461.574 22.8819C461.559 22.6241 461.631 22.3683 461.78 22.1465C461.929 21.9247 462.149 21.7469 462.412 21.6355C462.588 21.5607 462.78 21.5177 462.975 21.509C463.171 21.5002 463.366 21.526 463.551 21.5847C463.735 21.6434 463.904 21.7339 464.048 21.8509C464.192 21.9679 464.309 22.1092 464.391 22.2665V22.2665Z" stroke="black" stroke-linecap="round" stroke-linejoin="round"/>
<path d="M483.525 37.1759L483.499 40.097L483.327 40.2606L483.129 40.4475L482.43 41.0785L479.118 41.0551L479.131 37.1759H483.525Z" stroke="black" stroke-linecap="round" stroke-linejoin="round"/>
<path d="M483.499 40.097V40.7864V41.0785H482.43L483.129 40.4475L483.327 40.2606L483.499 40.097Z" stroke="#5C5C5C" stroke-miterlimit="10"/>
<path d="M513.374 47.4816L518.917 60.4046L506.037 71.832L491.443 66.9713L481.124 42.2352L483.129 40.4475L483.327 40.2606L485.399 38.4261L513.374 47.4816Z" stroke="black" stroke-linecap="round" stroke-linejoin="round"/>
<path d="M536.098 68.6071L516.436 86.052L506.037 71.8437L518.917 60.4046L536.098 68.6071Z" stroke="black" stroke-linecap="round" stroke-linejoin="round"/>
<path d="M512.451 70.535L520.381 63.4893L527.771 66.9829" stroke="black" stroke-linecap="round" stroke-linejoin="round"/>
<path d="M509.983 72.7317L510.775 72.019" stroke="black" stroke-linecap="round" stroke-linejoin="round"/>
<path d="M129.441 51.8048C128.484 49.5653 127.033 47.517 125.172 45.7796C123.311 44.0421 121.078 42.6503 118.603 41.6853C116.128 40.7204 113.461 40.2016 110.757 40.1594C108.053 40.1171 105.367 40.5522 102.855 41.4392C100.343 42.3262 98.056 43.6474 96.1271 45.3257C94.1982 47.0039 92.6661 49.0056 91.6204 51.2138C90.5747 53.422 90.0362 55.7926 90.0364 58.1871C90.0366 60.5816 90.5755 62.9521 91.6216 65.1602C94.6434 71.867 102.719 74.274 108.921 78.2351C110.848 79.4736 113.487 85.6664 113.487 85.6664L129.586 80.0111C129.586 80.0111 126.683 73.9118 127.132 71.832C128.478 65.1952 132.463 58.5234 129.441 51.8048Z" stroke="black" stroke-linecap="round" stroke-linejoin="round"/>
<path d="M113.92 86.6117L129.965 80.9466L130.131 81.3156C130.351 81.8043 130.46 82.3269 130.45 82.853C130.441 83.3792 130.315 83.8985 130.077 84.381C129.84 84.8635 129.498 85.2997 129.069 85.6643C128.641 86.0289 128.135 86.3148 127.581 86.5054L119.896 89.2189C118.787 89.6103 117.549 89.5958 116.452 89.1785C115.356 88.7612 114.491 87.9753 114.049 86.9937L113.883 86.6247L113.92 86.6117Z" stroke="black" stroke-linecap="round" stroke-linejoin="round"/>
<path opacity="0.5" d="M113.92 86.6117L129.965 80.9466L130.131 81.3156C130.351 81.8043 130.46 82.3269 130.45 82.853C130.441 83.3792 130.315 83.8985 130.077 84.381C129.84 84.8635 129.498 85.2997 129.069 85.6643C128.641 86.0289 128.135 86.3148 127.581 86.5054L119.896 89.2189C118.787 89.6103 117.549 89.5958 116.452 89.1785C115.356 88.7612 114.491 87.9753 114.049 86.9937L113.883 86.6247L113.92 86.6117Z" stroke="black" stroke-linecap="round" stroke-linejoin="round"/>
<path d="M120.447 90.1433L127.949 87.4958L128.086 87.7997C128.446 88.6 128.433 89.4942 128.048 90.2856C127.664 91.077 126.94 91.7008 126.037 92.0198L125.362 92.2577C124.459 92.5767 123.449 92.5646 122.555 92.2243C121.661 91.8839 120.957 91.2432 120.596 90.4429L120.46 90.139L120.447 90.1433Z" stroke="black" stroke-linecap="round" stroke-linejoin="round"/>
<path opacity="0.2" d="M120.447 90.1433L127.949 87.4958L128.086 87.7997C128.446 88.6 128.433 89.4942 128.048 90.2856C127.664 91.077 126.94 91.7008 126.037 92.0198L125.362 92.2577C124.459 92.5767 123.449 92.5646 122.555 92.2243C121.661 91.8839 120.957 91.2432 120.596 90.4429L120.46 90.139L120.447 90.1433Z" stroke="black" stroke-linecap="round" stroke-linejoin="round"/>
<path d="M99.3939 20.2334L104.052 35.6569" stroke="black" stroke-linecap="round" stroke-linejoin="round"/>
<path d="M97.5069 14.0056L98.457 17.1487" stroke="black" stroke-linecap="round" stroke-linejoin="round"/>
<path d="M79.1911 65.2069L61.3635 69.4367" stroke="black" stroke-linecap="round" stroke-linejoin="round"/>
<path d="M85.8154 63.6412L82.7935 64.3539" stroke="black" stroke-linecap="round" stroke-linejoin="round"/>
<path d="M154.315 47.3764L135.656 51.8048" stroke="black" stroke-linecap="round" stroke-linejoin="round"/>
<path d="M160.095 46.0093L157.443 46.6403" stroke="black" stroke-linecap="round" stroke-linejoin="round"/>
<path d="M97.8368 77.5107L85.182 96.9185" stroke="black" stroke-linecap="round" stroke-linejoin="round"/>
<path d="M136.29 18.5274L123.635 37.9353" stroke="black" stroke-linecap="round" stroke-linejoin="round"/>
<path d="M88.3754 46.3014L66.4703 35.096" stroke="black" stroke-linecap="round" stroke-linejoin="round"/>
<path d="M136.408 70.8505L133.083 69.1446" stroke="black" stroke-linecap="round" stroke-linejoin="round"/>
<path d="M155.001 80.35L139.443 72.4045" stroke="black" stroke-linecap="round" stroke-linejoin="round"/>
</g>
<defs>
<filter id="filter0_dd_902_9213" x="0" y="0" width="574" height="500" filterUnits="userSpaceOnUse" color-interpolation-filters="sRGB">
<feFlood flood-opacity="0" result="BackgroundImageFix"/>
<feColorMatrix in="SourceAlpha" type="matrix" values="0 0 0 0 0 0 0 0 0 0 0 0 0 0 0 0 0 0 127 0" result="hardAlpha"/>
<feMorphology radius="2" operator="erode" in="SourceAlpha" result="effect1_dropShadow_902_9213"/>
<feOffset dy="4"/>
<feGaussianBlur stdDeviation="3"/>
<feColorMatrix type="matrix" values="0 0 0 0 0 0 0 0 0 0 0 0 0 0 0 0 0 0 0.05 0"/>
<feBlend mode="normal" in2="BackgroundImageFix" result="effect1_dropShadow_902_9213"/>
<feColorMatrix in="SourceAlpha" type="matrix" values="0 0 0 0 0 0 0 0 0 0 0 0 0 0 0 0 0 0 127 0" result="hardAlpha"/>
<feMorphology radius="3" operator="erode" in="SourceAlpha" result="effect2_dropShadow_902_9213"/>
<feOffset dy="10"/>
<feGaussianBlur stdDeviation="7.5"/>
<feColorMatrix type="matrix" values="0 0 0 0 0 0 0 0 0 0 0 0 0 0 0 0 0 0 0.1 0"/>
<feBlend mode="normal" in2="effect1_dropShadow_902_9213" result="effect2_dropShadow_902_9213"/>
<feBlend mode="normal" in="SourceGraphic" in2="effect2_dropShadow_902_9213" result="shape"/>
</filter>
<clipPath id="clip0_902_9213">
<rect width="550" height="476" fill="white" transform="translate(12 2)"/>
</clipPath>
</defs>
</svg>
