<svg width="504" height="522" viewBox="0 0 504 522" fill="none" xmlns="http://www.w3.org/2000/svg">
<g filter="url(#filter0_dd_902_10648)">
<path d="M161.187 471.942C232.425 509.163 347.939 509.163 419.177 471.942C490.415 434.722 490.415 374.39 419.177 337.17C347.939 299.949 232.425 299.962 161.187 337.17C89.9489 374.377 89.9489 434.669 161.187 471.942Z" fill="#F5F5F5"/>
<path d="M208.97 320.584C208.639 320.134 208.825 289.995 198.606 281.034C188.388 272.073 179.374 279.181 185.29 289.916C189.261 296.997 200.234 309.532 200.247 321.537L208.97 320.584Z" fill="#4B59F7"/>
<path opacity="0.6" d="M208.97 320.584C208.639 320.134 208.825 289.995 198.606 281.034C188.388 272.073 179.374 279.181 185.29 289.916C189.261 296.997 200.234 309.532 200.247 321.537L208.97 320.584Z" fill="white"/>
<path d="M205.383 321.286C205.248 321.287 205.117 321.237 205.017 321.146C204.917 321.056 204.854 320.931 204.84 320.796C201.77 291.901 190.201 281.55 190.082 281.444C189.973 281.35 189.906 281.216 189.896 281.072C189.887 280.928 189.934 280.786 190.029 280.677C190.124 280.568 190.258 280.501 190.402 280.491C190.546 280.481 190.688 280.529 190.797 280.624C191.286 281.047 202.815 291.306 205.926 320.677C205.941 320.823 205.898 320.968 205.806 321.082C205.714 321.196 205.581 321.269 205.436 321.286H205.383Z" fill="white"/>
<path d="M206.998 352.484C203.252 335.475 197.905 325.601 176.74 314.707C157.243 304.661 140.472 294.045 159.969 290.194C176.157 286.99 207.316 312.695 208.428 335.197L206.998 352.484Z" fill="#4B59F7"/>
<path d="M204.92 331.107C204.809 331.11 204.7 331.078 204.608 331.016C204.515 330.955 204.444 330.866 204.404 330.763C198.011 313.715 177.587 297.222 159.89 294.747C159.747 294.724 159.618 294.646 159.532 294.53C159.445 294.414 159.407 294.269 159.427 294.125C159.436 294.053 159.46 293.984 159.497 293.922C159.534 293.86 159.582 293.806 159.64 293.762C159.698 293.719 159.764 293.688 159.834 293.671C159.904 293.654 159.977 293.65 160.049 293.662C178.13 296.19 198.911 313 205.436 330.379C205.483 330.516 205.475 330.666 205.413 330.797C205.351 330.928 205.241 331.03 205.105 331.081L204.92 331.107Z" fill="white"/>
<path d="M362.803 378.282C362.247 379.023 362.155 380.73 361.585 383.047C361.01 384.75 360.878 386.572 361.202 388.341C362.532 390.562 364.641 392.209 367.118 392.961C370.163 393.914 373.908 393.12 377.535 390.949C381.162 388.778 383.902 386.144 389.077 384.675C394.253 383.206 396.821 382.028 399.269 380.042C402.142 377.739 405.967 371.386 400.487 369.916C395.007 368.447 383.081 373.636 372.241 374.112L362.803 378.282Z" fill="#263238"/>
<path d="M362.803 371.505V379.632C363.131 380.548 363.709 381.353 364.472 381.957C365.235 382.56 366.152 382.938 367.118 383.047C368.01 383.19 368.923 383.094 369.765 382.769C371.082 382.263 372.223 381.386 373.05 380.244C373.877 379.102 374.354 377.744 374.425 376.336L374.742 371.505H362.803Z" fill="#FFA8A7"/>
<path d="M378.316 321.312C378.382 331.412 375.484 375.065 375.484 375.065C375.484 375.065 371.354 380.294 362.38 375.065L359.322 326.342L378.316 321.312Z" fill="#4B59F7"/>
<path opacity="0.5" d="M378.316 321.312C378.382 331.412 375.484 375.065 375.484 375.065C375.484 375.065 371.354 380.294 362.38 375.065L359.322 326.342L378.316 321.312Z" fill="black"/>
<path d="M352.108 412.935C353.247 404.503 361.996 388.646 377.019 381.948C392.042 375.251 410.216 377.143 413.67 380.055C417.125 382.967 418.025 389.056 410.798 391.015C403.571 392.974 397.893 396.31 402.367 400.082C406.841 403.854 408.23 409.056 400.911 410.473C393.591 411.889 384.948 406.674 382.909 411.333C380.871 415.992 385.173 419.566 377.019 421.247C368.865 422.928 358.846 416.627 353.194 425.919L352.108 412.935Z" fill="#4B59F7"/>
<path d="M352.598 419.314C352.528 419.327 352.456 419.327 352.386 419.314C352.32 419.287 352.26 419.247 352.209 419.196C352.158 419.145 352.118 419.084 352.091 419.018C352.064 418.951 352.051 418.88 352.051 418.808C352.052 418.737 352.067 418.666 352.095 418.6C363.24 392.127 395.457 380.214 406.695 380.929C406.84 380.939 406.975 381.006 407.072 381.115C407.168 381.224 407.218 381.366 407.211 381.511C407.208 381.584 407.19 381.655 407.159 381.72C407.127 381.786 407.083 381.844 407.029 381.893C406.975 381.941 406.911 381.977 406.843 382.001C406.774 382.024 406.701 382.033 406.629 382.028C397.707 381.485 364.709 391.531 353.101 419.023C353.053 419.114 352.981 419.19 352.892 419.242C352.803 419.293 352.701 419.319 352.598 419.314Z" fill="white"/>
<path d="M396.715 403.113C396.64 403.126 396.564 403.126 396.49 403.113C396.344 403.034 381.215 396.336 367.237 399.473C367.168 399.491 367.095 399.494 367.024 399.482C366.954 399.471 366.886 399.445 366.825 399.407C366.764 399.369 366.712 399.318 366.672 399.259C366.631 399.2 366.603 399.133 366.589 399.063C366.573 398.993 366.571 398.921 366.584 398.851C366.596 398.781 366.622 398.714 366.66 398.653C366.737 398.532 366.859 398.446 366.999 398.414C381.334 395.198 396.794 402.041 396.94 402.107C397.058 402.155 397.156 402.243 397.216 402.356C397.276 402.469 397.295 402.6 397.268 402.725C397.241 402.85 397.171 402.961 397.069 403.04C396.968 403.118 396.843 403.158 396.715 403.153V403.113Z" fill="white"/>
<path d="M272.425 280.531L225.079 307.864L337.535 372.789L373.048 352.285L384.881 345.455L272.425 280.531Z" fill="#4B59F7"/>
<path d="M384.881 345.455V352.299L349.368 372.802L349.355 365.959L384.881 345.455Z" fill="#4B59F7"/>
<path opacity="0.2" d="M384.881 345.455V352.299L349.368 372.802L349.355 365.959L384.881 345.455Z" fill="black"/>
<path d="M277.495 314.707C277.495 314.707 318.964 302.186 326.165 300.214C333.366 298.241 347.211 294.919 351.248 296.732C355.285 298.546 357.337 300.637 357.707 306.474C357.787 307.573 357.707 312.907 357.707 312.907C357.707 312.907 337.667 319.102 321.254 319.102C304.841 319.102 277.495 314.707 277.495 314.707Z" fill="#4B59F7"/>
<path opacity="0.6" d="M277.495 314.707C277.495 314.707 318.964 302.186 326.165 300.214C333.366 298.241 347.211 294.919 351.248 296.732C355.285 298.546 357.337 300.637 357.707 306.474C357.787 307.573 357.707 312.907 357.707 312.907C357.707 312.907 337.667 319.102 321.254 319.102C304.841 319.102 277.495 314.707 277.495 314.707Z" fill="black"/>
<path d="M312.942 244.237L310.189 259.102L294.94 260.862L297.138 240.346L312.942 244.237Z" fill="#FFA8A7"/>
<path d="M327.158 232.364C327.158 232.364 329.156 238.492 328.547 238.876C327.452 239.109 326.327 239.171 325.212 239.062L327.158 232.364Z" fill="#F28F8F"/>
<path d="M323.187 212.708C325.834 215.474 328.309 220.094 327.158 231.808C325.953 244.647 322.115 248.076 320.54 248.817C318.117 249.942 309.95 247.983 307.224 246.011C303.888 243.549 297.588 237.407 295.946 229.849C294.014 220.954 296.489 210.842 302.988 208.79C312.201 205.891 321.016 210.365 323.187 212.708Z" fill="#FFA8A7"/>
<path d="M329.236 219.022C327.674 221.96 324.735 229.28 316.383 231.345C316.383 231.345 315.92 226.368 311.79 226.315C307.661 226.262 306.257 231.358 308.309 234.905C310.361 238.453 312.942 237.645 312.942 237.645C312.942 237.645 312.518 244.647 307.475 247.149C307.475 247.149 301.4 249.915 295.867 246.381C293.378 244.793 290.493 237.897 289.01 232.364C285.86 220.663 286.429 211.702 293.868 209.862C295.43 204.952 297.958 203.376 302.631 203.072C312.717 202.397 319.229 209.862 327.608 209.862C331.976 209.862 331.009 215.673 329.236 219.022Z" fill="#263238"/>
<path d="M294.067 210.709L289.01 208.539C289.152 208.207 289.358 207.907 289.615 207.656C289.873 207.404 290.178 207.206 290.512 207.072C290.846 206.938 291.204 206.871 291.564 206.875C291.924 206.879 292.28 206.954 292.611 207.096C292.942 207.237 293.242 207.443 293.494 207.701C293.745 207.958 293.944 208.263 294.078 208.597C294.212 208.931 294.279 209.289 294.274 209.649C294.27 210.009 294.195 210.365 294.054 210.696L294.067 210.709Z" fill="#263238"/>
<path d="M277.601 309.717C277.601 317.659 276.846 325.972 280.169 331.809C283.491 337.646 298.541 349.665 315.483 346.806C326.549 344.939 362.327 331.306 362.327 331.306C362.327 331.306 378.21 325.469 378.316 321.312C378.422 315.171 377.999 306.541 364.114 306.911C351.46 307.242 313.908 313.397 313.908 313.397L277.601 309.717Z" fill="#4B59F7"/>
<path opacity="0.5" d="M277.601 309.717C277.601 317.659 276.846 325.972 280.169 331.809C283.491 337.646 298.541 349.665 315.483 346.806C326.549 344.939 362.327 331.306 362.327 331.306C362.327 331.306 378.21 325.469 378.316 321.312C378.422 315.171 377.999 306.541 364.114 306.911C351.46 307.242 313.908 313.397 313.908 313.397L277.601 309.717Z" fill="black"/>
<path d="M280.552 258.228C281.876 254.072 287.171 249.545 292.465 250.524C302.167 252.324 312.783 255.475 315.589 256.295C315.589 256.295 314.265 277.685 325.291 284.092L326.734 311.319C326.734 311.319 324.021 316.733 319.838 319.406C315.298 322.279 308.997 326.607 297.601 325.654C293.658 325.343 289.826 324.201 286.356 322.303C282.886 320.405 279.857 317.794 277.468 314.641C277.468 314.641 277.601 288.91 278.038 277.394C278.435 267.679 279.613 261.087 280.552 258.228Z" fill="#4B59F7"/>
<path opacity="0.2" d="M280.552 258.228C281.876 254.072 287.171 249.545 292.465 250.524C302.167 252.324 312.783 255.475 315.589 256.295C315.589 256.295 314.265 277.685 325.291 284.092L326.734 311.319C326.734 311.319 324.021 316.733 319.838 319.406C315.298 322.279 308.997 326.607 297.601 325.654C293.658 325.343 289.826 324.201 286.356 322.303C282.886 320.405 279.857 317.794 277.468 314.641C277.468 314.641 277.601 288.91 278.038 277.394C278.435 267.679 279.613 261.087 280.552 258.228Z" fill="black"/>
<path d="M325.596 289.426C325.596 289.426 319.864 283.483 317.853 276.587C317.853 276.587 317.853 286.673 325.715 292.126L325.596 289.426Z" fill="#4B59F7"/>
<path opacity="0.4" d="M325.596 289.426C325.596 289.426 319.864 283.483 317.853 276.587C317.853 276.587 317.853 286.673 325.715 292.126L325.596 289.426Z" fill="black"/>
<path d="M363.28 269.889L369.435 261.047C369.435 261.047 370.904 258.916 371.447 258.029C371.989 257.143 372.36 254.178 370.546 253.423C367.264 252.1 360.434 248.83 358.435 248.817C357.615 248.817 354.186 254.561 348.309 262.305C344.789 266.937 339.931 273.37 339.931 273.94C339.931 274.509 338.673 275.091 343.783 277.699C347.445 279.497 351.237 281.019 355.126 282.252L363.28 269.889Z" fill="#4B59F7"/>
<path opacity="0.6" d="M363.28 269.889L369.435 261.047C369.435 261.047 370.904 258.916 371.447 258.029C371.989 257.143 372.36 254.178 370.546 253.423C367.264 252.1 360.434 248.83 358.435 248.817C357.615 248.817 354.186 254.561 348.309 262.305C344.789 266.937 339.931 273.37 339.931 273.94C339.931 274.509 338.673 275.091 343.783 277.699C347.445 279.497 351.237 281.019 355.126 282.252L363.28 269.889Z" fill="black"/>
<path d="M367.198 260.293C363.425 265.72 355.378 279.141 355.139 279.512C354.901 279.883 343.227 274.84 340.09 273.476C340.012 273.621 339.958 273.777 339.931 273.939C339.931 274.495 338.673 275.091 343.783 277.699C347.445 279.496 351.237 281.018 355.126 282.252L363.28 269.889L369.435 261.047C369.435 261.047 370.904 258.916 371.447 258.029C371.989 257.143 372.36 254.178 370.546 253.423C370.904 253.608 370.957 254.866 367.198 260.293Z" fill="#263238"/>
<path d="M357.244 251.636L368.892 256.362L355.894 276.229L344.286 271.253L357.244 251.636Z" fill="#4B59F7"/>
<path opacity="0.8" d="M357.244 251.636L368.892 256.362L355.894 276.229L344.286 271.253L357.244 251.636Z" fill="white"/>
<path d="M315.616 256.295C321.598 258.096 325.252 258.426 331.87 268.605C338.488 278.784 352.982 298.969 354.372 301.405C356.37 304.78 357.231 308.791 355.51 311.901C353.895 314.787 349.209 313.529 342.644 307.758C336.291 302.186 323.716 286.435 323.716 286.435C319.574 276.832 316.845 266.68 315.616 256.295Z" fill="#FFA8A7"/>
<path d="M354.094 313.397C357.125 312.523 361.691 301.259 365.186 288.486C368.68 275.713 370.48 272.867 370.48 268.843C370.48 264.82 370.295 259.684 370.295 259.684L364.312 268.301C364.072 266.611 363.562 264.971 362.803 263.443C362.035 261.868 360.593 260.637 359.415 261.577C358.779 262.08 360.447 264.224 360.09 269.082C359.984 271.017 360.104 272.958 360.447 274.866L349.302 301.842L354.094 313.397Z" fill="#FFA8A7"/>
<path d="M315.616 256.295C318.585 256.925 321.484 257.848 324.272 259.049C326.963 260.107 329.251 261.988 330.811 264.423C335.444 272.113 342.062 283.059 342.062 283.059C342.062 283.059 343.2 292.589 331.618 295.925L325.45 289.307C322.93 286.612 320.86 283.528 319.322 280.174C316.714 274.403 313.736 265.296 315.616 256.295Z" fill="#4B59F7"/>
<path opacity="0.2" d="M315.616 256.295C318.585 256.925 321.484 257.848 324.272 259.049C326.963 260.107 329.251 261.988 330.811 264.423C335.444 272.113 342.062 283.059 342.062 283.059C342.062 283.059 343.2 292.589 331.618 295.925L325.45 289.307C322.93 286.612 320.86 283.528 319.322 280.174C316.714 274.403 313.736 265.296 315.616 256.295Z" fill="black"/>
<path d="M331.221 129.954L207.713 58.6501C204.602 56.85 202.021 57.9618 201.505 61.0988C201.793 59.1287 202.495 57.2419 203.565 55.5628C204.635 53.8836 206.049 52.4502 207.713 51.3569L212.848 48.3787C214.803 47.3869 216.964 46.87 219.156 46.87C221.347 46.87 223.508 47.3869 225.463 48.3787L348.984 119.683C350.843 120.854 352.377 122.475 353.445 124.395L335.682 134.653C334.624 132.73 333.087 131.111 331.221 129.954Z" fill="#37474F"/>
<path d="M355.285 423.603C355.167 425.792 354.534 427.922 353.437 429.82C352.34 431.717 350.81 433.329 348.971 434.523L343.836 437.528C342.056 438.42 340.107 438.927 338.118 439.013C336.129 439.1 334.144 438.765 332.293 438.031C335.272 439.156 337.588 437.475 337.588 433.874V140.874C337.509 138.681 336.871 136.544 335.735 134.667L353.498 124.408C354.629 126.292 355.262 128.433 355.338 130.629L355.285 423.603Z" fill="#263238"/>
<path d="M331.221 129.954L207.713 58.6501C204.232 56.6381 201.412 58.2662 201.412 62.2901V355.264C201.532 357.451 202.164 359.579 203.259 361.476C204.353 363.373 205.879 364.986 207.713 366.184L331.221 437.528C334.716 439.526 337.522 437.898 337.522 433.874V140.874C337.406 138.687 336.774 136.557 335.68 134.66C334.585 132.762 333.057 131.15 331.221 129.954ZM331.605 392.339C331.605 394.761 329.924 395.74 327.82 394.523L211.115 327.136C210 326.415 209.074 325.438 208.414 324.287C207.753 323.136 207.377 321.844 207.316 320.518V103.799C207.316 101.377 209.01 100.398 211.115 101.615L215.76 104.263L327.82 168.975C328.932 169.697 329.856 170.674 330.514 171.825C331.173 172.977 331.547 174.268 331.605 175.593V392.339Z" fill="#455A64"/>
<path d="M269.46 105.414C270.108 105.832 270.648 106.398 271.035 107.066C271.421 107.733 271.644 108.483 271.684 109.253C271.684 110.669 270.691 111.251 269.46 110.576C268.816 110.155 268.28 109.588 267.896 108.921C267.512 108.254 267.291 107.506 267.25 106.738C267.25 105.295 268.243 104.699 269.46 105.414Z" fill="#263238"/>
<path d="M269.46 371.24C272.003 372.909 274.118 375.153 275.633 377.79C277.148 380.428 278.022 383.385 278.183 386.422C278.183 392.008 274.212 394.284 269.421 391.478C266.872 389.816 264.75 387.576 263.228 384.941C261.705 382.305 260.825 379.348 260.658 376.309C260.698 370.71 264.629 368.447 269.46 371.24Z" fill="#263238"/>
<path d="M290.427 127.969C291.719 128.81 292.794 129.943 293.567 131.277C294.339 132.61 294.787 134.107 294.874 135.646C294.874 138.479 292.876 139.617 290.427 138.214C289.136 137.37 288.062 136.234 287.291 134.898C286.521 133.562 286.076 132.063 285.993 130.523C285.993 127.691 287.978 126.553 290.427 127.969Z" fill="#263238"/>
<path d="M279.573 127.003C279.573 128.895 278.17 129.65 276.423 128.604L247.223 111.741C246.314 111.173 245.553 110.396 245.003 109.475C244.453 108.555 244.13 107.517 244.06 106.447C244.06 104.554 245.476 103.799 247.223 104.845L276.423 121.708C277.331 122.276 278.091 123.053 278.638 123.974C279.186 124.895 279.507 125.933 279.573 127.003Z" fill="#263238"/>
<path d="M225.079 109.676L211.101 101.615C209.01 100.398 207.316 101.377 207.316 103.799V320.584C207.377 321.909 207.753 323.199 208.411 324.35C209.069 325.5 209.991 326.478 211.101 327.203L225.079 335.277V109.676Z" fill="#263238"/>
<g opacity="0.15">
<path opacity="0.15" d="M331.605 175.554V369.374L215.76 302.517V104.289L327.82 169.002C328.923 169.717 329.842 170.684 330.5 171.823C331.158 172.962 331.536 174.24 331.605 175.554Z" fill="white"/>
</g>
<path d="M216.489 105.56L327.462 169.637C328.449 170.293 329.27 171.169 329.863 172.195C330.455 173.222 330.802 174.371 330.877 175.554V368.116L216.489 302.08V105.56ZM215.76 104.236V302.517L331.605 369.387V175.554C331.547 174.229 331.173 172.937 330.514 171.786C329.856 170.634 328.932 169.657 327.82 168.935L215.76 104.223V104.236Z" fill="white"/>
<path d="M331.618 392.339V376.217L225.079 314.707L208.428 324.304C209.053 325.459 209.965 326.434 211.075 327.136L327.806 394.523C329.911 395.74 331.618 394.761 331.618 392.339Z" fill="#37474F"/>
<path d="M331.618 383.047L296.105 403.55V396.72L331.618 376.217V383.047Z" fill="#4B59F7"/>
<path opacity="0.2" d="M331.618 383.047L296.105 403.55V396.72L331.618 376.217V383.047Z" fill="black"/>
<path d="M183.649 331.796L296.105 396.72V403.55L183.649 338.626V331.796Z" fill="#4B59F7"/>
<path opacity="0.2" d="M183.649 331.796L296.105 396.72V403.55L183.649 338.626V331.796Z" fill="black"/>
<path d="M225.079 307.864L183.649 331.796L296.105 396.72L331.618 376.217V369.374L225.079 307.864Z" fill="#4B59F7"/>
<path d="M225.079 307.864L183.649 331.796L296.105 396.72L331.618 376.217V369.374L225.079 307.864Z" fill="#4B59F7"/>
<path d="M226.111 253.807C222.59 253.807 219.904 254.019 213.404 263.443C207.898 271.385 189.883 296.296 188.811 297.474C187.739 298.652 196.938 302.848 196.938 302.848L221.267 278.4L226.111 253.807Z" fill="#FFA8A7"/>
<path d="M192.465 295.462C192.465 295.462 194.397 294.429 199.281 294.469C202.312 294.469 204.205 294.681 204.576 293.701C205.066 292.232 206.257 289.532 206.879 289.545V296.733L192.465 295.462Z" fill="#F28F8F"/>
<path d="M183.914 403.206C175.773 413.954 169.42 416.442 167.196 418.772C164.973 421.101 166.257 425.694 171.697 426.714C177.137 427.733 183.027 426.489 186.535 422.981C190.042 419.473 192.465 414.907 196.038 412.392C199.612 409.877 201.452 409.162 201.995 406.144C202.537 403.126 199.811 394.152 199.811 394.152L183.914 403.206Z" fill="#263238"/>
<path d="M187.819 386.819C188.573 390.724 189.42 394.139 186.76 398.838C185.896 400.347 184.946 401.806 183.914 403.206C179.162 409.599 175.297 414.589 174.648 415.463C174 416.336 177.997 419.116 182.59 417.21C187.183 415.304 191.141 408.5 194.132 404.397C195.456 402.57 196.78 400.916 197.812 399.632C199.211 397.924 199.936 395.763 199.85 393.556L199.599 387.322L187.819 386.819Z" fill="#FFA8A7"/>
<path d="M203.729 418.48C195.588 429.242 189.235 431.717 187.011 434.06C184.787 436.402 186.085 440.969 191.511 442.001C196.938 443.034 202.842 441.763 206.349 438.269C209.857 434.774 212.279 430.181 215.866 427.68C219.453 425.178 221.28 424.437 221.809 421.419C222.339 418.401 219.639 409.427 219.639 409.427L203.729 418.48Z" fill="#263238"/>
<path d="M207.633 402.094C208.401 405.999 209.235 409.414 206.574 414.112C205.717 415.626 204.767 417.085 203.729 418.48C198.977 424.874 195.112 429.864 194.463 430.737C193.815 431.611 197.812 434.404 202.405 432.498C206.998 430.592 210.956 423.788 213.947 419.685C215.271 417.858 216.594 416.191 217.627 414.92C219.024 413.206 219.749 411.041 219.665 408.831L219.427 402.597L207.633 402.094Z" fill="#FFA8A7"/>
<path d="M260.711 306.488C266.946 319.3 264.484 331.994 247.634 340.307C238.223 344.953 220.009 353.159 220.009 353.159C220.009 353.159 222.657 360.439 222.749 372.709C222.842 383.51 219.97 407.005 219.97 407.005C219.97 407.005 212.928 410.274 207.885 407.005C207.885 407.005 205.648 392.445 203.914 377.765C201.809 359.327 200.036 348.487 200.976 344.516C201.809 341.008 209.142 335.872 214.741 331.941L195.204 341.127C195.204 341.127 199.4 346.925 200.393 357.368C201.598 369.996 200.075 391.703 200.075 391.703C198.207 392.617 196.17 393.133 194.092 393.219C192.015 393.306 189.942 392.961 188.004 392.206C188.004 392.206 174.251 338.665 176.316 331.24C179.281 320.584 219.864 304.357 221.929 300.174L260.711 306.488Z" fill="#4B59F7"/>
<path opacity="0.2" d="M260.711 306.488C266.946 319.3 264.484 331.994 247.634 340.307C238.223 344.953 220.009 353.159 220.009 353.159C220.009 353.159 222.657 360.439 222.749 372.709C222.842 383.51 219.97 407.005 219.97 407.005C219.97 407.005 212.928 410.274 207.885 407.005C207.885 407.005 205.648 392.445 203.914 377.765C201.809 359.327 200.036 348.487 200.976 344.516C201.809 341.008 209.142 335.872 214.741 331.941L195.204 341.127C195.204 341.127 199.4 346.925 200.393 357.368C201.598 369.996 200.075 391.703 200.075 391.703C198.207 392.617 196.17 393.133 194.092 393.219C192.015 393.306 189.942 392.961 188.004 392.206C188.004 392.206 174.251 338.665 176.316 331.24C179.281 320.584 219.864 304.357 221.929 300.174L260.711 306.488Z" fill="black"/>
<path d="M246.866 253.833C259.573 255.025 261.598 252.986 265.397 263.284L253.749 292.973L260.711 306.488C259.07 308.936 239.665 319.367 222.617 306.924C219.625 296.035 217.239 284.987 215.469 273.834C214.146 264.449 222.458 254.098 226.575 253.688C228.059 253.511 229.553 253.427 231.048 253.436L246.866 253.833Z" fill="#4B59F7"/>
<path opacity="0.6" d="M246.866 253.833C259.573 255.025 261.598 252.986 265.397 263.284L253.749 292.973L260.711 306.488C259.07 308.936 239.665 319.367 222.617 306.924C219.625 296.035 217.239 284.987 215.469 273.834C214.146 264.449 222.458 254.098 226.575 253.688C228.059 253.511 229.553 253.427 231.048 253.436L246.866 253.833Z" fill="white"/>
<path d="M202.564 295.435C205.211 295.515 205.105 293.82 205.767 292.166C206.548 290.22 207.263 288.486 207.263 288.486L209.01 294.787L211.406 306.461C211.406 306.461 204.377 306.368 199.215 306.461C194.053 306.554 188.189 304.833 187.594 301.167C187.223 298.89 188.917 295.7 194.212 295.197C196.998 295.063 199.79 295.142 202.564 295.435Z" fill="#FFA8A7"/>
<path d="M207.541 280.531C204.893 281.458 205.582 285.892 206.694 290.856C207.805 295.819 209.645 304.158 210.214 306.355C210.784 308.553 211.538 309.916 214.821 309.916C218.103 309.916 223.451 310.273 225.767 309.916C228.084 309.558 228.414 307.507 227.938 302.834C227.38 297.501 226.549 292.199 225.45 286.951C224.523 282.517 223.954 280.161 221.201 280.161C217.997 280.121 210.32 279.565 207.541 280.531Z" fill="#263238"/>
<path d="M207.369 293.94C207.633 295.104 210.016 296.071 212.187 296.163C215.329 296.286 218.475 296.073 221.571 295.528C223.782 294.932 225.185 298.744 223.054 302.226C220.923 305.707 216.105 306.766 210.228 306.448C208.463 304.711 207.295 302.458 206.892 300.015C206.715 297.977 206.876 295.925 207.369 293.94Z" fill="#FFA8A7"/>
<path d="M253.802 292.973C253.802 292.973 252.478 295.171 248.362 295.171C252.002 292.695 255.165 287.798 258.13 281.934L253.802 292.973Z" fill="#4B59F7"/>
<path opacity="0.1" d="M253.802 292.973C253.802 292.973 252.478 295.171 248.362 295.171C252.002 292.695 255.165 287.798 258.13 281.934L253.802 292.973Z" fill="white"/>
<path d="M259.56 255.17C266.575 256.494 269.5 263.112 269.712 276.084C269.924 289.055 268.256 332.047 268.11 333.953C267.96 335.414 268.201 336.889 268.808 338.226C269.415 339.563 270.366 340.715 271.565 341.564C276.568 345.138 282.604 348.01 285.556 350.009C289.447 352.656 285.556 356.971 280.777 357.262C276.304 357.54 269.143 353.662 267.316 352.14C268.221 353.341 268.923 354.683 269.394 356.111C270.175 359.155 269.394 360.942 267.991 360.307C267.197 359.949 266.231 358.745 263.491 355.396C258.739 349.559 257.72 346.938 257.667 339.684C257.667 334.774 257.256 309.453 256.859 299.817C256.608 293.913 256.661 281.087 256.767 273.119C256.873 265.151 258.09 256.295 259.56 255.17Z" fill="#FFA8A7"/>
<path d="M216.078 229.717C216.078 229.717 211.618 222.596 214.755 215.752C217.892 208.909 230.718 199.975 245.344 206.328C259.242 212.377 258.011 228.367 258.064 235.607C258.157 242.463 216.078 229.717 216.078 229.717Z" fill="#263238"/>
<path d="M220.155 215.329C222.18 211.358 235.046 205.018 247.276 211.226C259.507 217.433 258.09 234.151 258.09 245.64V266.818C258.09 269.836 251.009 273.992 244.205 271.583L244.695 240.65C244.695 240.65 246.601 221.762 240.724 217.235C234.847 212.708 220.155 215.329 220.155 215.329Z" fill="#263238"/>
<path d="M244.695 231.94C245.489 232.417 246.628 230.882 247.607 229.849C248.587 228.817 251.803 227.427 253.391 230.789C254.98 234.151 251.327 238.797 249.156 240.306C248.549 240.834 247.79 241.156 246.988 241.225C246.186 241.294 245.384 241.106 244.695 240.69L244.483 253.741C244.483 253.741 241.267 260.809 233.563 261.855C225.86 262.9 227.435 256.56 229.963 253.423V248.645C228.037 249.056 226.057 249.155 224.099 248.936C223.093 248.671 220.684 245.772 219.136 242.53C217.402 238.876 214.503 232.404 217.084 221.457C219.851 209.703 232.478 209.346 240.023 214.085C247.567 218.823 244.695 231.94 244.695 231.94Z" fill="#FFA8A7"/>
<path d="M229.976 248.645C229.976 248.645 237.124 247.202 239.612 245.878C241.084 245.117 242.289 243.926 243.067 242.463C242.686 243.905 242.02 245.255 241.108 246.434C239.281 248.764 229.976 250.485 229.976 250.485V248.645Z" fill="#F28F8F"/>
<path d="M230.056 231.636C230.066 231.919 230.16 232.193 230.325 232.424C230.491 232.654 230.72 232.831 230.985 232.932C231.25 233.032 231.539 233.053 231.816 232.99C232.093 232.928 232.345 232.785 232.541 232.58C232.737 232.375 232.868 232.117 232.918 231.837C232.968 231.558 232.934 231.271 232.822 231.01C232.709 230.75 232.522 230.529 232.285 230.374C232.047 230.219 231.769 230.138 231.485 230.14C231.293 230.144 231.103 230.185 230.927 230.262C230.751 230.34 230.592 230.451 230.459 230.59C230.326 230.729 230.222 230.893 230.153 231.073C230.083 231.252 230.051 231.444 230.056 231.636Z" fill="#263238"/>
<path d="M231.578 226.222L234.636 227.917C234.852 227.497 234.898 227.009 234.765 226.556C234.632 226.102 234.33 225.718 233.921 225.481C233.719 225.372 233.498 225.304 233.269 225.283C233.041 225.261 232.811 225.285 232.592 225.354C232.373 225.424 232.171 225.536 231.997 225.685C231.822 225.834 231.68 226.017 231.578 226.222Z" fill="#263238"/>
<path d="M247.237 203.575L248.07 208.631C248.757 208.511 249.368 208.126 249.772 207.559C250.175 206.991 250.339 206.288 250.228 205.6C250.17 205.268 250.045 204.952 249.862 204.669C249.678 204.386 249.44 204.143 249.161 203.954C248.882 203.765 248.568 203.634 248.237 203.569C247.907 203.504 247.566 203.506 247.237 203.575Z" fill="#263238"/>
<path d="M253.352 206.077L248.666 208.115C248.955 208.743 249.478 209.233 250.124 209.481C250.769 209.728 251.486 209.713 252.121 209.439C252.426 209.303 252.701 209.108 252.93 208.864C253.158 208.62 253.335 208.333 253.45 208.019C253.565 207.705 253.615 207.372 253.598 207.038C253.582 206.704 253.498 206.377 253.352 206.077Z" fill="#263238"/>
<path d="M231.035 240.478L227.766 241.709C227.836 241.93 227.95 242.134 228.101 242.309C228.252 242.484 228.437 242.627 228.645 242.729C228.853 242.83 229.079 242.888 229.311 242.899C229.542 242.911 229.773 242.875 229.99 242.794C230.428 242.617 230.782 242.277 230.977 241.846C231.171 241.414 231.192 240.924 231.035 240.478Z" fill="#F28F8F"/>
<path d="M217.296 227.427L220.089 225.269C219.956 225.081 219.787 224.922 219.591 224.801C219.396 224.68 219.177 224.6 218.95 224.565C218.722 224.53 218.49 224.542 218.268 224.6C218.045 224.657 217.836 224.759 217.653 224.899C217.281 225.194 217.036 225.621 216.97 226.091C216.903 226.562 217.02 227.04 217.296 227.427Z" fill="#263238"/>
<path d="M218.156 231.226C218.169 231.505 218.264 231.775 218.429 232.001C218.593 232.227 218.821 232.4 219.083 232.498C219.345 232.596 219.63 232.615 219.903 232.553C220.176 232.491 220.424 232.35 220.618 232.147C220.811 231.945 220.941 231.69 220.991 231.415C221.041 231.14 221.009 230.856 220.899 230.598C220.789 230.341 220.606 230.121 220.373 229.967C220.139 229.813 219.866 229.73 219.586 229.73C219.198 229.74 218.831 229.903 218.563 230.184C218.295 230.464 218.149 230.838 218.156 231.226Z" fill="#263238"/>
<path d="M224.113 230.577L225.277 239.115L220.565 238.453L224.113 230.577Z" fill="#F28F8F"/>
<path d="M220.089 214.058C220.089 214.058 226.561 227.917 245.847 225.971C245.847 225.971 248.07 216.308 240.46 212.576C232.849 208.843 223.742 208.631 220.089 214.058Z" fill="#263238"/>
<path d="M240.01 224.237C242.273 224.528 242.935 227.983 242.379 230.855C241.823 233.727 244.55 233.966 246.681 230.855C248.051 228.472 248.828 225.793 248.944 223.046L240.01 224.237Z" fill="#263238"/>
<path d="M214.794 331.981C214.794 331.981 226.548 324.039 229.976 322.464C229.976 322.464 223.358 321.14 220.155 316.799C220.693 318.854 221.638 320.781 222.935 322.464L195.257 341.167L214.794 331.981Z" fill="#4B59F7"/>
<path opacity="0.4" d="M214.794 331.981C214.794 331.981 226.548 324.039 229.976 322.464C229.976 322.464 223.358 321.14 220.155 316.799C220.693 318.854 221.638 320.781 222.935 322.464L195.257 341.167L214.794 331.981Z" fill="black"/>
<path d="M487.635 213.423L406.417 166.54C404.326 165.335 402.631 166.301 402.631 168.724V282.993C402.694 284.317 403.07 285.607 403.728 286.758C404.386 287.908 405.308 288.886 406.417 289.611L487.635 336.495C489.727 337.699 491.421 336.719 491.421 334.31V219.975C491.349 218.662 490.969 217.385 490.311 216.246C489.654 215.108 488.737 214.141 487.635 213.423Z" fill="#E0E0E0"/>
<path d="M382.75 262.212L408.548 277.116V256.613L383.306 259.525C380.911 259.803 380.659 261.007 382.75 262.212Z" fill="#E0E0E0"/>
<path d="M417.628 190.087L476.424 224.038C477.332 224.607 478.092 225.384 478.64 226.304C479.188 227.225 479.508 228.264 479.574 229.333C479.574 231.213 478.171 231.98 476.424 230.921L417.628 196.983C416.721 196.413 415.963 195.636 415.415 194.716C414.868 193.795 414.546 192.758 414.478 191.689C414.518 189.796 415.841 189.081 417.628 190.087Z" fill="#F0F0F0"/>
<path d="M417.602 210.577L476.398 244.528C477.307 245.097 478.068 245.873 478.618 246.794C479.168 247.715 479.491 248.753 479.561 249.823C479.561 251.702 478.145 252.47 476.398 251.411L417.602 217.473C416.697 216.901 415.94 216.123 415.393 215.203C414.846 214.283 414.523 213.247 414.451 212.179C414.518 210.286 415.841 209.571 417.602 210.577Z" fill="#F0F0F0"/>
<path d="M417.628 231.04L476.424 264.992C477.324 265.554 478.078 266.32 478.625 267.229C479.173 268.137 479.498 269.162 479.574 270.22C479.574 272.113 478.171 272.867 476.424 271.822L417.628 237.923C416.729 237.361 415.974 236.595 415.427 235.686C414.88 234.778 414.554 233.753 414.478 232.695C414.518 230.802 415.841 230.087 417.628 231.04Z" fill="#F0F0F0"/>
<path d="M417.628 251.596L476.424 285.534C477.331 286.105 478.089 286.882 478.637 287.802C479.185 288.723 479.506 289.76 479.574 290.829C479.574 292.722 478.171 293.476 476.424 292.431L417.628 258.479C416.72 257.911 415.96 257.134 415.412 256.213C414.865 255.292 414.544 254.254 414.478 253.185C414.518 251.305 415.841 250.59 417.628 251.596Z" fill="#F0F0F0"/>
<path d="M417.628 272.073L476.424 306.024C477.332 306.593 478.092 307.37 478.64 308.291C479.188 309.211 479.508 310.25 479.574 311.319C479.574 313.199 478.171 313.966 476.424 312.907L417.628 278.969C416.721 278.399 415.963 277.622 415.415 276.702C414.868 275.781 414.546 274.744 414.478 273.675C414.518 271.808 415.841 271.094 417.628 272.073Z" fill="#F0F0F0"/>
<path d="M156.184 145.004L74.9786 98.121C72.8872 96.9165 71.193 97.896 71.193 100.305V214.627C71.2545 215.952 71.6298 217.242 72.288 218.393C72.9461 219.544 73.8684 220.521 74.9786 221.246L156.184 268.102C158.275 269.307 159.969 268.327 159.969 265.918V151.622C159.908 150.298 159.532 149.008 158.874 147.857C158.216 146.706 157.294 145.728 156.184 145.004Z" fill="#E0E0E0"/>
<path d="M86.1766 121.735L144.972 155.673C145.882 156.241 146.643 157.018 147.193 157.938C147.743 158.859 148.066 159.897 148.136 160.967C148.136 162.86 146.72 163.614 144.972 162.569L86.1766 128.618C85.2705 128.047 84.5126 127.269 83.965 126.349C83.4174 125.429 83.0957 124.392 83.0263 123.323C83.0263 121.443 84.4426 120.729 86.1766 121.735Z" fill="#F0F0F0"/>
<path d="M86.1633 142.224L144.959 176.162C145.865 176.733 146.623 177.511 147.171 178.431C147.718 179.351 148.04 180.388 148.109 181.457C148.109 183.35 146.693 184.104 144.959 183.045L86.1633 149.107C85.255 148.539 84.4954 147.762 83.9476 146.841C83.3997 145.92 83.0793 144.882 83.0131 143.813C83.0131 141.933 84.4161 141.218 86.1633 142.224Z" fill="#F0F0F0"/>
<path d="M86.1766 162.728L144.972 196.626C145.882 197.194 146.643 197.971 147.193 198.892C147.743 199.812 148.066 200.85 148.136 201.92C148.136 203.8 146.72 204.568 144.972 203.509L86.1766 169.571C85.272 168.998 84.5152 168.221 83.9678 167.301C83.4204 166.381 83.0978 165.344 83.0263 164.276C83.0263 162.436 84.4426 161.722 86.1766 162.728Z" fill="#F0F0F0"/>
<path d="M86.1766 183.231L144.972 217.182C145.874 217.743 146.63 218.509 147.18 219.418C147.729 220.326 148.057 221.351 148.136 222.41C148.136 224.303 146.72 225.058 144.972 224.012L86.1766 190.008C85.2791 189.443 84.5266 188.676 83.9795 187.768C83.4323 186.86 83.1059 185.836 83.0263 184.779C83.0263 182.939 84.4426 182.225 86.1766 183.231Z" fill="#F0F0F0"/>
<path d="M86.1766 203.747L144.972 237.659C145.882 238.227 146.643 239.004 147.193 239.924C147.743 240.845 148.066 241.883 148.136 242.953C148.136 244.833 146.72 245.6 144.972 244.542L86.1766 210.604C85.2705 210.033 84.5126 209.255 83.965 208.335C83.4174 207.415 83.0957 206.378 83.0263 205.309C83.0263 203.456 84.4426 202.741 86.1766 203.747Z" fill="#F0F0F0"/>
<path d="M154.053 253.185L177.15 266.514C177.439 266.675 177.775 266.732 178.101 266.675C178.428 266.618 178.724 266.451 178.942 266.201C179.159 265.951 179.284 265.634 179.295 265.303C179.306 264.972 179.203 264.647 179.003 264.383L154.053 232.682V253.185Z" fill="#E0E0E0"/>
<path d="M12 250.736V303.496C12.0626 304.82 12.4383 306.11 13.0964 307.261C13.7545 308.411 14.6761 309.389 15.7856 310.114L79.2407 346.739C81.332 347.944 83.0263 346.978 83.0263 344.555V291.742C82.9637 290.418 82.588 289.128 81.9299 287.978C81.2718 286.827 80.3502 285.849 79.2407 285.124L15.7856 248.552C13.6943 247.334 12 248.314 12 250.736Z" fill="#F0F0F0"/>
<path d="M102.497 330.829L77.1096 304.449V325.019L100.935 333.291C101.259 333.444 101.627 333.473 101.971 333.373C102.315 333.274 102.61 333.052 102.802 332.749C102.994 332.447 103.069 332.085 103.013 331.732C102.956 331.378 102.773 331.057 102.497 330.829Z" fill="#F0F0F0"/>
<path d="M83.0263 277.116C85.6122 278.801 87.7643 281.071 89.3075 283.744C90.8508 286.416 91.7417 289.415 91.9079 292.497C91.9079 298.149 87.937 300.439 83.0263 297.619C80.4419 295.933 78.2909 293.662 76.7479 290.99C75.2048 288.318 74.313 285.32 74.1447 282.239C74.1447 276.573 78.1289 274.284 83.0263 277.116Z" fill="#4B59F7"/>
<path opacity="0.7" d="M83.0263 277.116C85.6122 278.801 87.7643 281.071 89.3075 283.744C90.8508 286.416 91.7417 289.415 91.9079 292.497C91.9079 298.149 87.937 300.439 83.0263 297.619C80.4419 295.933 78.2909 293.662 76.7479 290.99C75.2048 288.318 74.313 285.32 74.1447 282.239C74.1447 276.573 78.1289 274.284 83.0263 277.116Z" fill="white"/>
<path d="M26.9968 265.773L68.0295 289.466C68.9356 290.037 69.6935 290.814 70.2411 291.734C70.7886 292.655 71.1103 293.692 71.1798 294.76C71.1798 296.64 69.7635 297.407 68.0163 296.349L26.9836 272.655C26.0753 272.087 25.3157 271.31 24.7678 270.389C24.2199 269.469 23.8996 268.43 23.8333 267.361C23.8465 265.455 25.2496 264.767 26.9968 265.773Z" fill="#E6E6E6"/>
<path d="M26.9968 282.358L68.0295 306.051C68.9356 306.622 69.6935 307.399 70.2411 308.319C70.7886 309.24 71.1103 310.277 71.1798 311.345C71.1798 313.225 69.7635 313.993 68.0163 312.934L26.9836 289.241C26.0753 288.672 25.3157 287.895 24.7678 286.975C24.2199 286.054 23.8996 285.016 23.8333 283.946C23.8465 282.067 25.2496 281.339 26.9968 282.358Z" fill="#E6E6E6"/>
<path d="M26.9968 298.943L68.0295 322.636C68.9356 323.207 69.6935 323.984 70.2411 324.905C70.7886 325.825 71.1103 326.862 71.1798 327.931C71.1798 329.81 69.7635 330.578 68.0163 329.519L26.9836 305.826C26.0753 305.257 25.3157 304.48 24.7678 303.56C24.2199 302.639 23.8996 301.601 23.8333 300.531C23.8465 298.652 25.2496 297.937 26.9968 298.943Z" fill="#E6E6E6"/>
<path d="M59.3464 4.69869V57.4588C59.4079 58.783 59.7832 60.0736 60.4414 61.2243C61.0996 62.3749 62.0218 63.3527 63.132 64.077L126.587 100.715C128.678 101.92 130.373 100.94 130.373 98.518V45.7314C130.311 44.4072 129.936 43.1166 129.278 41.966C128.62 40.8153 127.697 39.8375 126.587 39.1132L63.132 2.51469C61.1069 1.31018 59.3464 2.28967 59.3464 4.69869Z" fill="#F0F0F0"/>
<path d="M149.79 84.8052L124.403 58.4119V78.915L148.229 87.1877C148.54 87.3089 148.883 87.3196 149.201 87.218C149.519 87.1163 149.792 86.9085 149.975 86.6294C150.158 86.3502 150.24 86.0167 150.206 85.6846C150.172 85.3525 150.026 85.042 149.79 84.8052Z" fill="#F0F0F0"/>
<path d="M130.373 31.0788C132.949 32.769 135.091 35.0423 136.624 37.7144C138.158 40.3866 139.041 43.3825 139.201 46.4594C139.201 52.1246 135.231 54.4012 130.32 51.5819C127.735 49.896 125.584 47.6249 124.041 44.9527C122.498 42.2805 121.607 39.2824 121.438 36.2012C121.491 30.5493 125.475 28.2462 130.373 31.0788Z" fill="#4B59F7"/>
<path opacity="0.7" d="M130.373 31.0788C132.949 32.769 135.091 35.0423 136.624 37.7144C138.158 40.3866 139.041 43.3825 139.201 46.4594C139.201 52.1246 135.231 54.4012 130.32 51.5819C127.735 49.896 125.584 47.6249 124.041 44.9527C122.498 42.2805 121.607 39.2824 121.438 36.2012C121.491 30.5493 125.475 28.2462 130.373 31.0788Z" fill="white"/>
<path d="M74.3432 19.7351L115.376 43.4282C116.282 43.999 117.04 44.7765 117.587 45.6968C118.135 46.6171 118.457 47.6541 118.526 48.7227C118.526 50.6023 117.11 51.37 115.376 50.3111L74.3432 26.618C73.435 26.0496 72.6754 25.2727 72.1275 24.3519C71.5796 23.4311 71.2592 22.3929 71.193 21.3235C71.193 19.4439 72.596 18.7291 74.3432 19.7351Z" fill="#E6E6E6"/>
<path d="M74.3432 36.3203L115.376 60.0134C116.282 60.5842 117.04 61.3617 117.587 62.282C118.135 63.2023 118.457 64.2393 118.526 65.3079C118.526 67.1875 117.11 67.9552 115.376 66.8963L74.3432 43.2032C73.435 42.6348 72.6754 41.8579 72.1275 40.9371C71.5796 40.0163 71.2592 38.9781 71.193 37.9087C71.193 36.0291 72.596 35.3143 74.3432 36.3203Z" fill="#E6E6E6"/>
<path d="M74.3432 52.9055L115.376 76.5986C116.282 77.1694 117.04 77.9469 117.587 78.8672C118.135 79.7875 118.457 80.8245 118.526 81.8931C118.526 83.7727 117.11 84.5404 115.376 83.4815L74.3432 59.7884C73.435 59.22 72.6754 58.4431 72.1275 57.5223C71.5796 56.6015 71.2592 55.5633 71.193 54.4939C71.193 52.6143 72.596 51.8995 74.3432 52.9055Z" fill="#E6E6E6"/>
</g>
<defs>
<filter id="filter0_dd_902_10648" x="0" y="-0.000610352" width="503.421" height="521.858" filterUnits="userSpaceOnUse" color-interpolation-filters="sRGB">
<feFlood flood-opacity="0" result="BackgroundImageFix"/>
<feColorMatrix in="SourceAlpha" type="matrix" values="0 0 0 0 0 0 0 0 0 0 0 0 0 0 0 0 0 0 127 0" result="hardAlpha"/>
<feMorphology radius="2" operator="erode" in="SourceAlpha" result="effect1_dropShadow_902_10648"/>
<feOffset dy="4"/>
<feGaussianBlur stdDeviation="3"/>
<feColorMatrix type="matrix" values="0 0 0 0 0 0 0 0 0 0 0 0 0 0 0 0 0 0 0.05 0"/>
<feBlend mode="normal" in2="BackgroundImageFix" result="effect1_dropShadow_902_10648"/>
<feColorMatrix in="SourceAlpha" type="matrix" values="0 0 0 0 0 0 0 0 0 0 0 0 0 0 0 0 0 0 127 0" result="hardAlpha"/>
<feMorphology radius="3" operator="erode" in="SourceAlpha" result="effect2_dropShadow_902_10648"/>
<feOffset dy="10"/>
<feGaussianBlur stdDeviation="7.5"/>
<feColorMatrix type="matrix" values="0 0 0 0 0 0 0 0 0 0 0 0 0 0 0 0 0 0 0.1 0"/>
<feBlend mode="normal" in2="effect1_dropShadow_902_10648" result="effect2_dropShadow_902_10648"/>
<feBlend mode="normal" in="SourceGraphic" in2="effect2_dropShadow_902_10648" result="shape"/>
</filter>
</defs>
</svg>
