<svg width="546" height="420" viewBox="0 0 546 420" fill="none" xmlns="http://www.w3.org/2000/svg">
<g filter="url(#filter0_dd_902_10361)">
<path d="M534 347.904H12.5432V348.182H534V347.904Z" fill="#E6E6E6"/>
<path d="M142.72 364.688H108.178V364.965H142.72V364.688Z" fill="#E6E6E6"/>
<path d="M97.2486 364.688H77.2351V364.965H97.2486V364.688Z" fill="#E6E6E6"/>
<path d="M232.129 368.77H212.115V369.047H232.129V368.77Z" fill="#E6E6E6"/>
<path d="M336.483 374.96H291.439V375.237H336.483V374.96Z" fill="#E6E6E6"/>
<path d="M282.157 374.96H275.556V375.237H282.157V374.96Z" fill="#E6E6E6"/>
<path d="M485.348 368.77H387.648V369.047H485.348V368.77Z" fill="#E6E6E6"/>
<path d="M291.418 253.15H268.485V349.912H291.418V253.15Z" fill="#E0E0E0"/>
<path d="M287.059 349.912H291.418V336.734H282.491L287.059 349.912Z" fill="#FAFAFA"/>
<path d="M190.923 253.15H167.99V349.912H190.923V253.15Z" fill="#E0E0E0"/>
<path d="M291.418 253.15H187.127V341.826H291.418V253.15Z" fill="#FAFAFA"/>
<path d="M287.633 257.51V280.971H190.881V257.51H287.601H287.633ZM288.008 257.077H190.506V281.392H288.039V257.077H288.008Z" fill="#E0E0E0"/>
<path d="M191.476 349.912H187.127V336.734H196.044L191.476 349.912Z" fill="#FAFAFA"/>
<path d="M236.968 269.235C236.968 269.72 237.103 270.194 237.356 270.597C237.609 271 237.969 271.314 238.391 271.5C238.812 271.685 239.275 271.734 239.722 271.639C240.169 271.545 240.58 271.311 240.902 270.968C241.225 270.625 241.444 270.189 241.533 269.713C241.622 269.238 241.576 268.745 241.402 268.297C241.228 267.849 240.932 267.466 240.553 267.196C240.174 266.927 239.728 266.783 239.273 266.783C238.661 266.783 238.075 267.042 237.643 267.501C237.211 267.961 236.968 268.585 236.968 269.235Z" fill="#E6E6E6"/>
<path d="M287.633 285.752V309.213H190.881V285.752H287.601H287.633ZM288.008 285.33H190.506V309.646H288.039V285.341L288.008 285.33Z" fill="#E0E0E0"/>
<path d="M236.968 297.543C236.968 298.028 237.103 298.502 237.356 298.905C237.609 299.309 237.969 299.623 238.391 299.808C238.812 299.994 239.275 300.042 239.722 299.948C240.169 299.853 240.58 299.62 240.902 299.277C241.225 298.934 241.444 298.497 241.533 298.022C241.622 297.546 241.576 297.053 241.402 296.605C241.228 296.157 240.932 295.774 240.553 295.505C240.174 295.236 239.728 295.092 239.273 295.092C238.661 295.092 238.075 295.35 237.643 295.81C237.211 296.27 236.968 296.893 236.968 297.543Z" fill="#E6E6E6"/>
<path d="M287.633 314.005V337.477H190.881V314.005H287.601H287.633ZM288.008 313.572H190.506V337.899H288.039V313.572H288.008Z" fill="#E0E0E0"/>
<path d="M236.968 325.741C236.97 326.226 237.107 326.699 237.361 327.1C237.616 327.502 237.976 327.814 238.398 327.998C238.819 328.182 239.282 328.229 239.729 328.133C240.175 328.037 240.585 327.803 240.906 327.46C241.227 327.116 241.446 326.68 241.534 326.204C241.622 325.729 241.576 325.237 241.401 324.789C241.226 324.342 240.931 323.96 240.552 323.691C240.173 323.422 239.728 323.279 239.273 323.279C238.969 323.279 238.669 323.342 238.388 323.466C238.108 323.59 237.853 323.772 237.639 324.001C237.425 324.229 237.255 324.501 237.14 324.8C237.025 325.098 236.966 325.418 236.968 325.741Z" fill="#E6E6E6"/>
<path d="M176.917 196.954H153.983V349.923H176.917V196.954Z" fill="#E0E0E0"/>
<path d="M172.557 349.912H176.917V336.734H168L172.557 349.912Z" fill="#FAFAFA"/>
<path d="M91.2102 196.954H68.2765V349.923H91.2102V196.954Z" fill="#E0E0E0"/>
<path d="M176.917 196.954H87.4035V341.837H176.917V196.954Z" fill="#FAFAFA"/>
<path d="M173.058 201.037V233.838H91.2623V201.037H173.058ZM173.538 200.537H90.7617V234.315H173.517V200.549L173.538 200.537Z" fill="#E0E0E0"/>
<path d="M173.058 237.842V324.843H134.095V237.842H173.058ZM173.538 237.332H133.625V325.353H173.538V237.332Z" fill="#E0E0E0"/>
<path d="M130.226 237.842V324.843H91.2623V237.842H130.226ZM130.695 237.332H90.7617V325.353H130.674V237.332H130.695Z" fill="#E0E0E0"/>
<path d="M91.7629 349.912H87.4035V336.734H96.3309L91.7629 349.912Z" fill="#FAFAFA"/>
<path d="M129.85 217.454C129.848 217.941 129.982 218.418 130.235 218.825C130.488 219.231 130.849 219.549 131.272 219.737C131.695 219.925 132.161 219.975 132.611 219.881C133.06 219.788 133.474 219.554 133.799 219.21C134.124 218.866 134.345 218.427 134.435 217.949C134.526 217.471 134.48 216.976 134.305 216.525C134.131 216.074 133.834 215.689 133.453 215.418C133.072 215.147 132.624 215.002 132.165 215.002C131.553 215.002 130.966 215.26 130.532 215.72C130.098 216.179 129.853 216.802 129.85 217.454Z" fill="#E6E6E6"/>
<path d="M138.11 279.274C138.11 279.761 138.246 280.238 138.501 280.643C138.756 281.048 139.118 281.364 139.542 281.55C139.965 281.736 140.431 281.784 140.881 281.688C141.33 281.592 141.743 281.357 142.066 281.011C142.389 280.666 142.609 280.226 142.697 279.747C142.785 279.269 142.738 278.773 142.561 278.324C142.384 277.874 142.086 277.49 141.704 277.221C141.322 276.951 140.873 276.809 140.415 276.811C140.111 276.811 139.811 276.875 139.53 276.999C139.25 277.123 138.996 277.304 138.781 277.533C138.567 277.762 138.398 278.033 138.282 278.332C138.167 278.631 138.109 278.951 138.11 279.274Z" fill="#E6E6E6"/>
<path d="M121.601 279.274C121.603 279.758 121.74 280.231 121.994 280.633C122.249 281.034 122.609 281.347 123.031 281.531C123.452 281.715 123.915 281.762 124.362 281.666C124.808 281.57 125.218 281.335 125.539 280.992C125.86 280.649 126.079 280.212 126.167 279.737C126.255 279.262 126.209 278.769 126.034 278.322C125.859 277.875 125.564 277.492 125.185 277.224C124.806 276.955 124.361 276.811 123.906 276.811C123.602 276.811 123.301 276.875 123.021 276.999C122.741 277.123 122.486 277.304 122.272 277.533C122.058 277.762 121.888 278.034 121.773 278.332C121.658 278.631 121.599 278.951 121.601 279.274Z" fill="#E6E6E6"/>
<path d="M118.993 154.303H109.326C110.217 159.291 110.778 164.339 111.005 169.411C111.005 174.957 103.642 196.954 114.133 196.954C124.625 196.954 117.262 175.013 117.262 169.411C117.506 164.338 118.085 159.29 118.993 154.303Z" fill="#E0E0E0"/>
<path d="M82.2098 176.799V183.455C82.2208 187.023 83.5583 190.441 85.9303 192.964C88.3023 195.487 91.5163 196.909 94.8708 196.921H101.128C104.483 196.909 107.697 195.487 110.069 192.964C112.441 190.441 113.778 187.023 113.789 183.455V176.799H82.2098Z" fill="#F5F5F5"/>
<path d="M216.61 239.04C216.61 246.805 224.776 253.15 234.757 253.15H243.768C253.748 253.15 261.914 246.805 261.914 239.04H216.61Z" fill="#E0E0E0"/>
<path d="M455.375 227.659C449.91 232.407 442.359 241.092 435.455 253.317C430.845 261.459 428.071 269.956 426.851 281.248C426.851 268.492 426.924 254.792 426.966 241.858C428.353 238.53 431.523 230.854 433.797 224.797C441.379 204.575 444.226 199.594 451.036 182.157C460.141 158.862 469.465 131.285 466.795 133.493C461.351 137.985 440.492 179.528 438.24 185.473C432.099 201.341 428.303 218.123 426.987 235.224C426.987 223.022 427.07 211.93 427.112 203.322C427.258 175.246 427.706 166.183 427.925 163.388C428.77 161.968 429.761 160.315 430.345 159.428C435.247 151.885 437.134 145.473 441.744 134.225C448.293 118.307 453.925 90.0314 452.277 91.4513C445.415 97.397 440.013 110.154 432.9 126.427C425.787 142.7 427.821 152.051 426.413 165.939C426.121 168.668 425.892 178.962 425.725 193.216C423.889 178.019 420.427 168.013 414.117 158.917C406.358 147.725 398.849 140.171 393.342 136.222C387.836 132.273 402.854 159.76 410.029 171.718C416.422 182.412 422.314 191.83 425.673 201.114C425.495 220.449 425.412 244.919 425.412 267.671C423.764 257.31 421.073 246.14 417.486 237.498C413.168 227.116 406.535 211.186 401.248 205.784C399.986 204.486 406.775 235.468 411.134 243.699C415.494 251.93 418.696 259.706 421.438 264.376C422.075 265.485 424.202 269.667 425.412 272.086C425.412 299.895 425.558 324.432 425.787 332.785H426.914C426.841 330.633 426.82 316.479 426.851 297.754C429.573 287.593 435.789 275.99 440.92 265.408C446.51 253.949 460.84 222.945 455.375 227.659Z" fill="#E0E0E0"/>
<path d="M442.683 349.912H409.998L407.526 315.835H445.154L442.683 349.912Z" fill="#F0F0F0"/>
<path d="M447.584 319.807H405.086L403.876 308.303H448.805L447.584 319.807Z" fill="#F5F5F5"/>
<path d="M142.136 7.46808H83.6804V75.7439H142.136V7.46808Z" fill="#E0E0E0"/>
<path d="M148.466 7.46808H88.0814V75.7439H148.466V7.46808Z" fill="#F5F5F5"/>
<path d="M143.408 70.364V12.8481L93.1396 12.8481V70.364H143.408Z" fill="white"/>
<path d="M131.216 56.4094V26.7806H105.321V56.4094H131.216Z" fill="#F5F5F5"/>
<path d="M440.19 15.4216H385.885V78.85H440.19V15.4216Z" fill="#E0E0E0"/>
<path d="M446.072 15.4216H389.984V78.85H446.072V15.4216Z" fill="#F5F5F5"/>
<path d="M441.379 73.8471V20.4244L394.688 20.4244V73.8471H441.379Z" fill="white"/>
<path d="M418.028 62.6323C426.075 62.6323 432.598 55.6942 432.598 47.1357C432.598 38.5772 426.075 31.6392 418.028 31.6392C409.981 31.6392 403.458 38.5772 403.458 47.1357C403.458 55.6942 409.981 62.6323 418.028 62.6323Z" fill="#F5F5F5"/>
<path d="M202.865 48.1785H159.5V98.828H202.865V48.1785Z" fill="#E0E0E0"/>
<path d="M207.558 48.1785H162.764V98.828H207.558V48.1785Z" fill="#F5F5F5"/>
<path d="M203.803 94.8346V52.1719H166.519V94.8346H203.803Z" fill="white"/>
<path d="M185.166 62.71L174.967 81.5011H195.366L185.166 62.71Z" fill="#F5F5F5"/>
<path d="M289.862 397.999C408.646 397.999 504.939 392.377 504.939 385.442C504.939 378.507 408.646 372.885 289.862 372.885C171.078 372.885 74.7846 378.507 74.7846 385.442C74.7846 392.377 171.078 397.999 289.862 397.999Z" fill="#F5F5F5"/>
<path d="M399.957 105.007L388.953 100.569C388.953 100.569 374.433 127.048 370.273 128.39C364.616 130.209 352.902 135.268 345.958 136.155C345.015 137.264 343.473 140.714 343.617 141.968C352.946 145.085 373.446 140.947 377.838 137.686C387.833 130.287 399.957 105.007 399.957 105.007Z" fill="#E58A7B"/>
<path d="M403.341 98.9833C405.393 106.56 394.278 121.801 394.278 121.801L379.713 113.637C379.713 113.637 382.442 107.369 385.77 100.991C391.105 90.6859 401 90.342 403.341 98.9833Z" fill="#4B59F7"/>
<path opacity="0.2" d="M403.341 98.9833C405.393 106.56 394.278 121.801 394.278 121.801L379.713 113.637C379.713 113.637 382.442 107.369 385.77 100.991C391.105 90.6859 401 90.342 403.341 98.9833Z" fill="black"/>
<path opacity="0.2" d="M385.492 116.898L391.227 120.115L392.237 102.511C388.898 105.073 386.546 112.794 385.492 116.898Z" fill="black"/>
<path d="M393.756 93.2817C393.756 93.2817 382.42 118.507 389.031 165.473H433.701C434.411 158.618 432.06 125.162 440.568 92.8602C435.668 91.9025 430.709 91.2688 425.726 90.9633C419.405 90.597 413.067 90.597 406.746 90.9633C402.364 91.4083 398.022 92.1833 393.756 93.2817Z" fill="#4B59F7"/>
<path opacity="0.2" d="M393.756 93.2817C393.756 93.2817 382.42 118.507 389.031 165.473H433.701C434.411 158.618 432.06 125.162 440.568 92.8602C435.668 91.9025 430.709 91.2688 425.726 90.9633C419.405 90.597 413.067 90.597 406.746 90.9633C402.364 91.4083 398.022 92.1833 393.756 93.2817Z" fill="black"/>
<g style="mix-blend-mode:multiply">
<path d="M383.396 386.441C383.329 387.639 400.268 388.604 421.222 388.604C442.176 388.604 459.237 387.639 459.304 386.441C459.37 385.243 442.443 384.289 421.477 384.289C400.512 384.289 383.474 385.254 383.396 386.441Z" fill="#E8ECF1"/>
</g>
<path d="M413.214 354.963L405.291 358.03L412.116 375.66L420.039 372.593L413.214 354.963Z" fill="#E58A7B"/>
<path d="M448.544 377.91H440.191L437.129 358.576H445.482L448.544 377.91Z" fill="#E58A7B"/>
<path d="M439.614 376.945H448.998C449.161 376.946 449.319 377.004 449.442 377.11C449.566 377.215 449.649 377.362 449.675 377.522L450.884 384.943C450.91 385.13 450.895 385.319 450.841 385.499C450.786 385.679 450.694 385.845 450.57 385.986C450.446 386.127 450.292 386.24 450.121 386.316C449.949 386.393 449.763 386.431 449.575 386.43C446.303 386.374 444.728 386.175 440.601 386.175C438.061 386.175 432.836 386.441 429.309 386.441C425.781 386.441 425.548 382.98 427.002 382.658C433.524 381.249 436.053 379.33 438.227 377.467C438.611 377.13 439.104 376.945 439.614 376.945Z" fill="#263238"/>
<path d="M411.882 374.084L420.756 371.488C420.915 371.443 421.084 371.454 421.235 371.519C421.386 371.583 421.511 371.698 421.588 371.843L424.916 378.498C424.993 378.667 425.033 378.851 425.032 379.037C425.031 379.222 424.989 379.406 424.91 379.574C424.831 379.742 424.716 379.89 424.573 380.009C424.43 380.128 424.264 380.214 424.084 380.262C420.856 381.15 418.693 381.693 414.655 382.869C411.871 383.679 409.031 384.999 406.28 385.875C404.372 386.485 399.891 386.507 397.572 386.507C394.145 386.507 393.379 382.891 394.855 382.725C398.571 382.314 399.07 382.503 401.122 381.471C404.48 380.004 407.523 377.902 410.085 375.282C410.568 374.731 411.188 374.318 411.882 374.084Z" fill="#263238"/>
<path d="M347.356 136.111L338.171 132.262L334.388 142.445C338.153 143.018 341.983 143.018 345.747 142.445L347.356 136.111Z" fill="#E58A7B"/>
<path d="M331.338 131.995L331.094 138.762L334.388 142.422L338.171 132.239L331.338 131.995Z" fill="#E58A7B"/>
<path d="M414.301 356.46L406.353 359.528L409.873 368.645L417.82 365.577L414.301 356.46Z" fill="#CF6F64"/>
<path d="M445.482 358.576H437.129L438.715 368.548H447.068L445.482 358.576Z" fill="#CF6F64"/>
<path opacity="0.2" d="M387.611 152.772C387.778 154.78 387.966 156.832 388.21 158.94L421.422 148.157C426.608 146.62 431.116 143.361 434.201 138.917C434.334 135.955 434.5 132.838 434.755 129.588C434.866 128.013 434.999 126.394 435.144 124.752C435.288 123.11 435.487 121.291 435.698 119.538L387.611 152.772Z" fill="black"/>
<path d="M398.46 116.388L397.351 116.255C398.005 110.708 402.143 106.338 406.502 106.449V107.558C402.686 107.48 399.048 111.418 398.46 116.388Z" fill="white"/>
<path d="M404.372 126.627H404.184V125.517C408 125.661 411.583 121.679 412.171 116.721L413.28 116.854C412.692 122.278 408.687 126.627 404.372 126.627Z" fill="white"/>
<path d="M425.105 69.5875C423.541 75.6996 421.699 86.8922 425.726 90.9633C425.726 90.9633 422.908 97.1641 411.56 97.1641C401.189 97.1641 406.746 90.9633 406.746 90.9633C413.646 89.3437 413.768 84.3076 412.858 79.5377L425.105 69.5875Z" fill="#E58A7B"/>
<path d="M420.113 73.6475L412.869 79.5377C413.094 80.6338 413.224 81.7472 413.258 82.8655C415.376 84.9732 419.625 79.6375 420.057 76.9087C420.277 75.8344 420.296 74.7286 420.113 73.6475Z" fill="#CF6F64"/>
<path d="M400.412 69.5099C400.916 70.3835 401.595 71.1438 402.406 71.7431C403.217 72.3424 404.143 72.7679 405.127 72.9931C407.789 73.581 409.12 71.1295 408.388 68.6669C407.733 66.4483 405.548 63.4644 402.841 63.9747C402.262 64.0941 401.719 64.3507 401.259 64.723C400.799 65.0953 400.434 65.5725 400.196 66.1145C399.958 66.6565 399.854 67.2477 399.891 67.8384C399.929 68.4292 400.108 69.0024 400.412 69.5099Z" fill="#CF6F64"/>
<path d="M404.816 49.9534C400.667 51.8502 399.203 68.3341 404.417 70.7745C409.63 73.2149 412.67 46.3482 404.816 49.9534Z" fill="#263238"/>
<path d="M426.369 60.3916C425.371 68.6668 425.26 73.5366 420.823 77.774C419.448 79.1802 417.711 80.179 415.804 80.6603C413.897 81.1416 411.895 81.0865 410.017 80.5012C408.139 79.9159 406.46 78.8231 405.165 77.3435C403.869 75.8639 403.007 74.0551 402.675 72.1167C401.333 64.6845 403.185 52.4049 411.483 49.1103C413.226 48.3414 415.143 48.0527 417.036 48.2742C418.928 48.4958 420.727 49.2195 422.246 50.3703C423.764 51.5212 424.947 53.0572 425.672 54.8193C426.398 56.5814 426.638 58.5053 426.369 60.3916Z" fill="#E58A7B"/>
<path d="M412.736 54.2352C418.882 52.6711 423.396 51.6062 421.777 56.72C419.636 63.5531 417.062 70.1644 420.512 70.4639C422.62 70.6525 431.938 66.7035 430.751 62.699C429.719 59.2158 434.079 58.2619 434.855 56.4981C437.728 50.1087 429.508 50.9517 430.973 47.0693C432.437 43.1868 424.317 36.9305 419.88 40.0476C412.659 45.0837 400.268 45.006 406.779 36.7198C411.45 30.8073 403.119 32.0164 403.119 32.0164C403.119 32.0164 408.155 35.0004 399.68 39.615C390.717 44.5401 398.937 57.7738 412.736 54.2352Z" fill="#263238"/>
<path d="M429.63 69.5099C428.417 71.2654 426.595 72.5069 424.517 72.9931C421.777 73.581 420.723 71.1295 421.755 68.6669C422.675 66.4483 425.204 63.4644 427.822 63.9747C430.44 64.4849 431.039 67.3357 429.63 69.5099Z" fill="#E58A7B"/>
<path d="M389.031 165.473C389.031 165.473 381.532 232.584 380.944 258.053C380.345 284.543 406.358 367.195 406.358 367.195L419.669 361.648C419.669 361.648 404.139 286.129 406.358 260.116C408.71 231.752 418.427 165.518 418.427 165.518L389.031 165.473Z" fill="#4B59F7"/>
<path opacity="0.2" d="M407.667 183.898C401.688 196.3 405.715 220.826 408.954 235.358C410.185 225.097 411.649 213.96 413.036 203.654C412.903 187.814 411.671 175.579 407.667 183.898Z" fill="black"/>
<path d="M419.081 357.256C419.148 357.256 420.657 361.493 420.657 361.493L405.304 367.949L402.886 363.446L419.081 357.256Z" fill="#4B59F7"/>
<path d="M404.883 165.473C404.883 165.473 410.618 229.301 414.411 253.206C418.582 279.396 434.933 366.618 434.933 366.618H450.23C450.23 366.618 441.067 281.514 439.337 255.58C437.451 227.448 433.702 165.473 433.702 165.473H404.883Z" fill="#4B59F7"/>
<path d="M450.463 362.636C450.529 362.636 450.973 366.907 450.973 366.907H434.156L432.958 362.004L450.463 362.636Z" fill="#4B59F7"/>
<path opacity="0.2" d="M444.606 357.577C444.571 357.578 444.537 357.566 444.511 357.543C444.484 357.521 444.467 357.49 444.461 357.455C444.373 356.679 436.109 279.806 434.556 256.511C432.87 231.242 429.475 175.191 429.442 174.625C429.44 174.606 429.443 174.588 429.449 174.57C429.455 174.553 429.464 174.537 429.477 174.523C429.489 174.51 429.504 174.499 429.521 174.492C429.538 174.484 429.557 174.481 429.575 174.481C429.611 174.48 429.647 174.494 429.673 174.519C429.7 174.544 429.716 174.577 429.719 174.614C429.719 175.179 433.147 231.187 434.833 256.5C436.386 279.795 444.65 356.612 444.728 357.444C444.731 357.463 444.73 357.482 444.726 357.5C444.721 357.518 444.713 357.534 444.701 357.549C444.69 357.564 444.675 357.576 444.659 357.585C444.642 357.593 444.624 357.598 444.606 357.6V357.577Z" fill="black"/>
<path d="M413.679 62.699C413.679 63.3756 413.258 63.9192 412.814 63.9192C412.37 63.9192 412.048 63.3756 412.093 62.699C412.137 62.0223 412.514 61.4788 412.958 61.4788C413.402 61.4788 413.723 62.0334 413.679 62.699Z" fill="#263238"/>
<path d="M406.07 62.699C406.07 63.3756 405.637 63.9192 405.204 63.9192C404.772 63.9192 404.439 63.3756 404.472 62.699C404.505 62.0223 404.905 61.4788 405.348 61.4788C405.792 61.4788 406.114 62.0334 406.07 62.699Z" fill="#263238"/>
<path d="M408.465 63.0428C407.54 65.1091 406.346 67.0447 404.916 68.8C406.025 69.9093 408.099 69.399 408.099 69.399L408.465 63.0428Z" fill="#DF5753"/>
<path d="M408.665 72.2277C408.64 72.2278 408.614 72.2226 408.59 72.2124C408.567 72.2022 408.545 72.1873 408.528 72.1686C408.51 72.1499 408.496 72.1278 408.488 72.1036C408.479 72.0795 408.475 72.0537 408.477 72.0281C408.479 71.9741 408.503 71.9233 408.542 71.8861C408.581 71.849 408.633 71.8283 408.687 71.8284C409.536 71.8343 410.375 71.65 411.143 71.2891C411.91 70.9282 412.588 70.3999 413.125 69.7429C413.163 69.7094 413.212 69.6909 413.263 69.6909C413.314 69.6909 413.363 69.7094 413.402 69.7429C413.438 69.7802 413.458 69.8299 413.458 69.8816C413.458 69.9333 413.438 69.983 413.402 70.0203C412.827 70.7185 412.103 71.2791 411.284 71.6611C410.464 72.0431 409.569 72.2367 408.665 72.2277Z" fill="#263238"/>
<path d="M415.032 60.658C414.979 60.6852 414.92 60.6994 414.86 60.6994C414.801 60.6994 414.742 60.6852 414.689 60.658C414.274 60.3897 413.801 60.2228 413.31 60.1708C412.819 60.1188 412.322 60.1831 411.86 60.3585C411.815 60.381 411.766 60.3943 411.715 60.3975C411.665 60.4007 411.615 60.3939 411.567 60.3774C411.52 60.3608 411.476 60.3349 411.439 60.3012C411.401 60.2675 411.371 60.2266 411.35 60.181C411.308 60.0823 411.307 59.9714 411.347 59.8719C411.386 59.7725 411.463 59.6923 411.56 59.6485C412.14 59.4117 412.769 59.3182 413.393 59.3762C414.016 59.4341 414.617 59.6417 415.143 59.9813C415.186 60.0102 415.222 60.0473 415.25 60.0904C415.278 60.1334 415.298 60.1817 415.307 60.2322C415.316 60.2828 415.315 60.3347 415.304 60.3849C415.293 60.4352 415.273 60.4827 415.243 60.5249C415.187 60.5885 415.114 60.6347 415.032 60.658Z" fill="#263238"/>
<path d="M403.13 58.4394C403.071 58.4251 403.017 58.3944 402.975 58.3507C402.938 58.3145 402.908 58.2714 402.888 58.2238C402.868 58.1762 402.858 58.125 402.858 58.0734C402.858 58.0217 402.868 57.9706 402.888 57.923C402.908 57.8754 402.938 57.8322 402.975 57.7961C403.4 57.3192 403.929 56.947 404.522 56.7084C405.115 56.4698 405.754 56.3713 406.391 56.4206C406.442 56.4284 406.491 56.4467 406.535 56.4742C406.579 56.5018 406.616 56.538 406.645 56.5806C406.674 56.6232 406.694 56.6714 406.704 56.7221C406.714 56.7728 406.713 56.825 406.702 56.8754C406.678 56.9781 406.618 57.0686 406.532 57.1298C406.446 57.1911 406.341 57.219 406.236 57.2081C405.732 57.1764 405.227 57.2598 404.76 57.452C404.293 57.6441 403.876 57.9401 403.54 58.3174C403.49 58.3736 403.425 58.4147 403.352 58.4362C403.28 58.4577 403.203 58.4588 403.13 58.4394Z" fill="#263238"/>
<path d="M444.861 103.775L433.324 100.703C433.324 100.703 422.01 128.557 418.005 130.365C412.57 132.85 398.804 141.458 392.947 145.529C392.625 146.915 392.88 150.587 393.612 151.596C403.596 149.777 422.709 142.423 426.702 138.684C435.809 130.154 444.861 103.775 444.861 103.775Z" fill="#E58A7B"/>
<path d="M436.807 378.41C436.245 378.454 435.684 378.301 435.221 377.977C435.078 377.848 434.971 377.684 434.911 377.501C434.851 377.318 434.839 377.123 434.877 376.934C434.884 376.817 434.923 376.703 434.989 376.605C435.056 376.507 435.147 376.43 435.254 376.38C436.186 375.903 438.793 377.556 439.093 377.744C439.126 377.764 439.151 377.795 439.165 377.831C439.179 377.867 439.181 377.907 439.17 377.944C439.161 377.983 439.141 378.018 439.114 378.047C439.087 378.076 439.053 378.098 439.015 378.11C438.292 378.288 437.552 378.388 436.807 378.41ZM435.698 376.679C435.614 376.661 435.527 376.661 435.443 376.679C435.401 376.701 435.365 376.734 435.342 376.776C435.318 376.817 435.307 376.865 435.31 376.912C435.28 377.041 435.285 377.176 435.324 377.302C435.363 377.429 435.435 377.543 435.532 377.633C435.964 378.021 437.052 378.066 438.482 377.789C437.63 377.227 436.671 376.85 435.665 376.679H435.698Z" fill="#4B59F7"/>
<path d="M438.959 378.11C438.931 378.119 438.9 378.119 438.871 378.11C438.039 377.644 436.475 375.814 436.708 374.882C436.742 374.734 436.826 374.603 436.945 374.508C437.063 374.414 437.21 374.362 437.362 374.361C437.511 374.341 437.662 374.353 437.806 374.397C437.95 374.441 438.082 374.516 438.194 374.616C439.115 375.403 439.17 377.822 439.17 377.944C439.176 377.98 439.169 378.017 439.151 378.05C439.133 378.082 439.104 378.107 439.07 378.121C439.033 378.129 438.994 378.125 438.959 378.11ZM437.473 374.727H437.395C437.14 374.727 437.107 374.871 437.096 374.926C436.963 375.47 437.95 376.857 438.771 377.511C438.767 376.574 438.477 375.661 437.939 374.893C437.81 374.781 437.644 374.721 437.473 374.727Z" fill="#4B59F7"/>
<path d="M407.356 377.023C406.678 377.26 405.939 377.26 405.26 377.023C405.106 376.94 404.975 376.818 404.88 376.671C404.785 376.524 404.729 376.355 404.716 376.18C404.702 376.07 404.716 375.959 404.757 375.856C404.798 375.753 404.864 375.662 404.949 375.592C405.837 374.793 409.464 375.592 409.874 375.747C409.913 375.757 409.948 375.78 409.972 375.813C409.996 375.845 410.009 375.885 410.007 375.925C410.009 375.966 409.998 376.008 409.977 376.043C409.955 376.079 409.923 376.107 409.885 376.124C409.069 376.493 408.223 376.794 407.356 377.023ZM405.548 375.703C405.421 375.728 405.303 375.786 405.204 375.869C405.169 375.896 405.142 375.932 405.126 375.973C405.11 376.014 405.107 376.059 405.116 376.102C405.123 376.219 405.159 376.331 405.221 376.43C405.283 376.529 405.369 376.611 405.471 376.668C406.058 376.979 407.423 376.735 409.187 375.991C407.999 375.692 406.769 375.594 405.548 375.703Z" fill="#4B59F7"/>
<path d="M409.852 376.125H409.763C408.654 375.925 406.436 374.649 406.369 373.695C406.369 373.473 406.469 373.163 407.001 372.985C407.181 372.921 407.372 372.894 407.563 372.906C407.753 372.917 407.94 372.967 408.111 373.052C409.309 373.64 409.941 375.77 409.974 375.869C409.982 375.903 409.981 375.938 409.971 375.971C409.961 376.004 409.943 376.034 409.919 376.058C409.902 376.085 409.879 376.108 409.852 376.125ZM407.223 373.318H407.112C406.768 373.44 406.768 373.584 406.768 373.629C406.768 374.206 408.377 375.259 409.497 375.614C409.239 374.723 408.693 373.943 407.944 373.396C407.721 373.283 407.465 373.255 407.223 373.318Z" fill="#4B59F7"/>
<path d="M393.89 144.874L382.32 150.199L380.978 153.526L385.248 156.399C385.248 156.399 393.235 155.534 395.509 150.398L393.89 144.874Z" fill="#E58A7B"/>
<path d="M394.378 151.785C394.119 149.562 393.385 147.421 392.226 145.506L394.056 144.131C395.433 146.336 396.311 148.816 396.63 151.397L394.378 151.785Z" fill="#263238"/>
<path d="M396.352 146.449C396.597 146.834 396.717 147.284 396.696 147.74C396.676 148.195 396.515 148.633 396.237 148.994C395.959 149.355 395.576 149.622 395.14 149.757C394.705 149.893 394.239 149.891 393.805 149.753C393.37 149.614 392.989 149.345 392.714 148.982C392.438 148.619 392.281 148.18 392.263 147.724C392.246 147.268 392.369 146.819 392.617 146.436C392.864 146.053 393.223 145.755 393.646 145.584C394.12 145.342 394.67 145.298 395.177 145.46C395.684 145.622 396.106 145.977 396.352 146.449Z" fill="#263238"/>
<path d="M374.499 154.502L376.041 156.055L386.424 151.618L382.32 150.198L374.499 154.502Z" fill="#E58A7B"/>
<path opacity="0.2" d="M419.081 357.256C419.148 357.256 420.657 361.493 420.657 361.493L405.304 367.949L402.886 363.446L419.081 357.256Z" fill="black"/>
<path opacity="0.2" d="M450.463 362.636C450.529 362.636 450.973 366.907 450.973 366.907H434.156L432.958 362.004L450.463 362.636Z" fill="black"/>
<path d="M447.867 100.581C450.917 110.42 438.993 123.875 438.993 123.875L422.52 117.153C424.473 111.466 426.724 105.886 429.264 100.436C434.323 89.5323 444.783 90.6527 447.867 100.581Z" fill="#4B59F7"/>
<path opacity="0.2" d="M447.867 100.581C450.917 110.42 438.993 123.875 438.993 123.875L422.52 117.153C424.473 111.466 426.724 105.886 429.264 100.436C434.323 89.5323 444.783 90.6527 447.867 100.581Z" fill="black"/>
<path d="M284.182 1.99939H277.094V3.14194H284.182V1.99939Z" fill="#4B59F7"/>
<path d="M375.94 47.2207L375.082 66.2587L376.223 66.3101L377.081 47.2721L375.94 47.2207Z" fill="#4B59F7"/>
<path d="M373.734 7.12421H242.84L230.66 279.695H361.554L373.734 7.12421Z" fill="#4B59F7"/>
<path opacity="0.56" d="M369.829 10.8735H238.935L226.755 283.445H357.65L369.829 10.8735Z" fill="#FAFAFA"/>
<path opacity="0.07" d="M365.925 14.6119H235.03L222.839 287.183H353.734L365.925 14.6119Z" fill="#4B59F7"/>
<path d="M351.027 133.493H239.301L238.369 154.347H350.095L351.027 133.493Z" fill="white"/>
<path d="M300.744 118.274H239.978L239.567 127.603H300.333L300.744 118.274Z" fill="#4B59F7"/>
<path d="M348.509 189.777H236.783L235.851 210.632H347.577L348.509 189.777Z" fill="white"/>
<path opacity="0.47" d="M328.021 238.796H252.89L251.769 263.788H326.901L328.021 238.796Z" fill="#4B59F7"/>
<path d="M322.996 267.671H247.865C247.832 267.679 247.798 267.679 247.765 267.671C247.754 267.638 247.754 267.603 247.765 267.571L248.874 242.568C248.874 242.551 248.878 242.534 248.884 242.518C248.891 242.503 248.901 242.489 248.914 242.477C248.926 242.466 248.941 242.457 248.957 242.452C248.973 242.446 248.99 242.444 249.007 242.446H324.138C324.152 242.439 324.167 242.435 324.183 242.435C324.198 242.435 324.213 242.439 324.227 242.446C324.235 242.459 324.239 242.475 324.239 242.49C324.239 242.506 324.235 242.521 324.227 242.535L323.14 267.593C323.127 267.619 323.106 267.64 323.08 267.654C323.054 267.668 323.025 267.674 322.996 267.671ZM247.998 267.404H322.863L323.972 242.668H249.107L247.998 267.404Z" fill="white"/>
<path d="M287.621 174.558H237.46L237.049 183.898H287.2L287.621 174.558Z" fill="#4B59F7"/>
<path d="M326.59 66.1265C326.303 72.1957 324.145 78.0275 320.411 82.821C317.647 86.4419 314.091 89.3814 310.014 91.4138C305.938 93.4463 301.45 94.5178 296.895 94.5461C293.214 94.5742 289.566 93.8483 286.176 92.4133C282.786 90.9782 279.726 88.8644 277.184 86.2019C274.643 83.5394 272.673 80.3848 271.396 76.9322C270.12 73.4796 269.563 69.8022 269.762 66.1265C270.152 58.4991 273.441 51.3089 278.957 46.0263C284.472 40.7436 291.798 37.7676 299.435 37.7069C303.119 37.6725 306.77 38.3939 310.164 39.8265C313.558 41.259 316.622 43.3724 319.167 46.0358C321.712 48.6993 323.684 51.8564 324.961 55.3119C326.237 58.7675 326.792 62.4481 326.59 66.1265Z" fill="white"/>
<path d="M329.263 43.6526C329.191 45.2664 328.617 46.8175 327.622 48.0897C326.885 49.0514 325.938 49.8322 324.854 50.3724C323.77 50.9126 322.577 51.198 321.365 51.2068C320.192 51.2139 319.034 50.9335 317.994 50.3902C316.953 49.8468 316.062 49.057 315.397 48.0897C314.517 46.7826 314.082 45.2267 314.155 43.6526C314.262 41.6275 315.138 39.7196 316.603 38.318C318.069 36.9163 320.014 36.1265 322.042 36.1096C323.02 36.1006 323.99 36.2921 324.891 36.6722C325.793 37.0523 326.607 37.613 327.284 38.3197C327.96 39.0264 328.485 39.8641 328.825 40.7813C329.166 41.6985 329.315 42.6756 329.263 43.6526Z" fill="#4B59F7"/>
<path d="M251.337 143.92C251.283 144.814 250.893 145.654 250.245 146.272C249.596 146.889 248.738 147.238 247.843 147.248C247.41 147.253 246.981 147.169 246.583 147.002C246.184 146.835 245.824 146.588 245.524 146.276C245.225 145.964 244.993 145.594 244.842 145.189C244.691 144.783 244.625 144.352 244.648 143.92C244.696 143.024 245.085 142.181 245.734 141.562C246.384 140.943 247.245 140.596 248.142 140.592C248.574 140.588 249.002 140.673 249.4 140.841C249.798 141.009 250.158 141.256 250.457 141.567C250.756 141.879 250.988 142.248 251.139 142.653C251.291 143.057 251.358 143.488 251.337 143.92Z" fill="#263238"/>
<path d="M266.29 143.92C266.239 144.815 265.85 145.657 265.201 146.275C264.552 146.893 263.692 147.241 262.796 147.248C262.364 147.251 261.937 147.167 261.539 146.999C261.142 146.831 260.783 146.584 260.485 146.272C260.186 145.96 259.955 145.591 259.805 145.186C259.655 144.782 259.589 144.351 259.612 143.92C259.66 143.026 260.047 142.184 260.694 141.566C261.341 140.948 262.2 140.599 263.095 140.592C263.527 140.587 263.956 140.671 264.355 140.838C264.754 141.005 265.114 141.252 265.413 141.564C265.713 141.876 265.945 142.246 266.096 142.651C266.247 143.056 266.313 143.488 266.29 143.92Z" fill="#263238"/>
<path d="M281.254 143.92C281.203 144.815 280.814 145.657 280.165 146.275C279.516 146.893 278.656 147.241 277.76 147.248C277.328 147.251 276.9 147.167 276.502 146.999C276.104 146.831 275.744 146.584 275.445 146.272C275.146 145.961 274.914 145.592 274.762 145.187C274.611 144.783 274.544 144.351 274.565 143.92C274.616 143.025 275.005 142.183 275.654 141.565C276.303 140.947 277.163 140.599 278.059 140.592C278.492 140.587 278.92 140.671 279.319 140.838C279.718 141.005 280.078 141.252 280.377 141.564C280.677 141.876 280.909 142.246 281.06 142.651C281.211 143.056 281.277 143.488 281.254 143.92Z" fill="#263238"/>
<path d="M248.819 200.205C248.765 201.098 248.375 201.939 247.727 202.556C247.078 203.174 246.22 203.523 245.324 203.532C244.893 203.536 244.464 203.451 244.066 203.283C243.668 203.116 243.309 202.869 243.01 202.557C242.711 202.245 242.478 201.876 242.327 201.472C242.176 201.067 242.109 200.636 242.13 200.205C242.18 199.31 242.57 198.468 243.219 197.85C243.868 197.232 244.728 196.884 245.624 196.877C246.056 196.873 246.484 196.958 246.882 197.126C247.28 197.293 247.639 197.54 247.939 197.852C248.238 198.164 248.47 198.533 248.621 198.937C248.773 199.342 248.84 199.773 248.819 200.205Z" fill="#263238"/>
<path d="M263.772 200.205C263.721 201.097 263.333 201.938 262.687 202.556C262.04 203.173 261.183 203.523 260.289 203.532C259.856 203.537 259.427 203.454 259.029 203.287C258.63 203.12 258.27 202.872 257.97 202.561C257.671 202.249 257.439 201.879 257.288 201.473C257.137 201.068 257.071 200.636 257.094 200.205C257.145 199.31 257.534 198.468 258.183 197.85C258.832 197.232 259.692 196.884 260.588 196.877C261.019 196.873 261.447 196.958 261.845 197.126C262.242 197.293 262.601 197.541 262.899 197.853C263.197 198.164 263.429 198.534 263.579 198.938C263.729 199.343 263.794 199.774 263.772 200.205Z" fill="#263238"/>
<path d="M278.769 200.205C278.718 201.099 278.329 201.941 277.68 202.559C277.031 203.177 276.171 203.525 275.275 203.532C274.843 203.534 274.416 203.449 274.019 203.28C273.622 203.112 273.263 202.865 272.964 202.554C272.665 202.242 272.433 201.874 272.281 201.47C272.129 201.066 272.061 200.636 272.08 200.205C272.133 199.311 272.524 198.47 273.172 197.853C273.821 197.235 274.679 196.886 275.574 196.877C276.007 196.872 276.436 196.955 276.834 197.122C277.233 197.289 277.593 197.537 277.893 197.849C278.192 198.16 278.424 198.53 278.575 198.936C278.726 199.341 278.792 199.773 278.769 200.205Z" fill="#263238"/>
<path d="M293.7 200.205C293.647 201.098 293.256 201.939 292.608 202.556C291.96 203.174 291.101 203.523 290.206 203.532C289.774 203.534 289.347 203.449 288.95 203.28C288.552 203.112 288.194 202.865 287.895 202.554C287.596 202.242 287.364 201.874 287.212 201.47C287.06 201.066 286.991 200.636 287.011 200.205C287.064 199.311 287.454 198.47 288.103 197.853C288.751 197.235 289.61 196.886 290.505 196.877C290.937 196.873 291.365 196.958 291.763 197.126C292.161 197.293 292.521 197.54 292.82 197.852C293.119 198.164 293.351 198.533 293.503 198.937C293.654 199.342 293.721 199.773 293.7 200.205Z" fill="#263238"/>
<path d="M308.72 200.205C308.666 201.098 308.276 201.939 307.628 202.556C306.979 203.174 306.121 203.523 305.225 203.532C304.793 203.537 304.364 203.454 303.965 203.287C303.567 203.12 303.206 202.872 302.907 202.561C302.608 202.249 302.375 201.879 302.225 201.473C302.074 201.068 302.008 200.636 302.031 200.205C302.081 199.31 302.471 198.468 303.12 197.85C303.769 197.232 304.629 196.884 305.525 196.877C305.957 196.873 306.385 196.958 306.783 197.126C307.181 197.293 307.54 197.54 307.839 197.852C308.139 198.164 308.371 198.533 308.522 198.937C308.674 199.342 308.741 199.773 308.72 200.205Z" fill="#263238"/>
<path d="M306.449 64.6464C311.092 60.1061 311.339 52.8285 307 48.3914C302.661 43.9544 295.379 44.0381 290.736 48.5785C286.093 53.1188 285.847 60.3964 290.186 64.8334C294.525 69.2705 301.806 69.1867 306.449 64.6464Z" fill="#4B59F7"/>
<path d="M320.411 82.8211C317.647 86.4419 314.091 89.3814 310.014 91.4139C305.938 93.4464 301.45 94.5179 296.895 94.5461C292.478 94.5836 288.119 93.5337 284.204 91.4889C280.288 89.4441 276.936 86.4674 274.443 82.8211C279.834 77.4522 288.364 73.9469 297.815 73.9469C307.266 73.9469 315.497 77.4522 320.411 82.8211Z" fill="#4B59F7"/>
<path opacity="0.1" d="M306.449 64.6464C311.092 60.1061 311.339 52.8285 307 48.3914C302.661 43.9544 295.379 44.0381 290.736 48.5785C286.093 53.1188 285.847 60.3964 290.186 64.8334C294.525 69.2705 301.806 69.1867 306.449 64.6464Z" fill="white"/>
<path opacity="0.1" d="M320.411 82.8211C317.647 86.4419 314.091 89.3814 310.014 91.4139C305.938 93.4464 301.45 94.5179 296.895 94.5461C292.478 94.5836 288.119 93.5337 284.204 91.4889C280.288 89.4441 276.936 86.4674 274.443 82.8211C279.834 77.4522 288.364 73.9469 297.815 73.9469C307.266 73.9469 315.497 77.4522 320.411 82.8211Z" fill="white"/>
<path d="M157.204 159.372C156.15 161.679 155.041 164.22 154.076 166.682C153.11 169.145 152.123 171.685 151.269 174.214C149.525 179.199 148.197 184.319 147.298 189.522L147.054 191.153C147.031 191.433 147.057 191.714 147.132 191.985C147.393 192.904 147.806 193.774 148.352 194.558C149.776 196.589 151.429 198.45 153.277 200.105C155.225 201.917 157.269 203.624 159.4 205.219C161.53 206.86 163.771 208.458 165.978 209.966L163.904 213.86C158.633 211.563 153.63 208.695 148.984 205.307C146.506 203.5 144.269 201.382 142.328 199.007C141.178 197.592 140.281 195.99 139.677 194.27C139.326 193.196 139.146 192.072 139.145 190.942C139.145 190.676 139.145 190.288 139.145 190.099V189.556L139.256 188.446C139.892 182.667 141.107 176.966 142.883 171.43C143.748 168.701 144.669 165.983 145.723 163.332C146.777 160.681 147.864 158.085 149.206 155.39L157.204 159.372Z" fill="#E58A7B"/>
<path d="M164.414 209.278L172.257 205.307L170.227 213.915C170.227 213.915 164.847 215.424 162.351 212.806L164.414 209.278Z" fill="#E58A7B"/>
<path d="M179.434 206.716L177.348 213.838L170.227 213.915L172.257 205.307L179.434 206.716Z" fill="#E58A7B"/>
<path d="M190.504 117.841C190.924 119.378 191.508 120.866 192.246 122.278C192.03 122.523 191.752 122.704 191.442 122.804C191.131 122.903 190.8 122.917 190.482 122.844L190.504 117.841Z" fill="#DF5753"/>
<path d="M190.271 117.908C190.731 117.908 191.103 117.336 191.103 116.632C191.103 115.927 190.731 115.356 190.271 115.356C189.812 115.356 189.439 115.927 189.439 116.632C189.439 117.336 189.812 117.908 190.271 117.908Z" fill="#263238"/>
<path d="M190.027 115.4L191.713 114.923C191.713 114.923 190.892 116.232 190.027 115.4Z" fill="#263238"/>
<path d="M168.84 125.983C169.849 131.141 170.859 140.603 167.243 144.053C167.243 144.053 168.663 149.289 178.258 149.289C188.807 149.289 183.294 144.053 183.294 144.053C177.537 142.678 177.681 138.407 178.69 134.391L168.84 125.983Z" fill="#E58A7B"/>
<path d="M166.034 114.225C166.566 122.844 166.61 126.504 170.959 130.931C177.515 137.586 187.986 135.057 190.038 126.493C191.891 118.728 190.715 105.95 182.273 102.522C180.42 101.759 178.403 101.481 176.413 101.714C174.423 101.948 172.525 102.685 170.899 103.857C169.273 105.029 167.973 106.596 167.121 108.41C166.27 110.224 165.896 112.226 166.034 114.225Z" fill="#E58A7B"/>
<path d="M166.888 104.53C162.562 106.105 156.793 104.929 159.056 118.273C161.452 132.406 157.769 137.054 157.769 137.054C157.769 137.054 174.176 140.548 190.926 136.843C190.926 136.843 185.812 127.902 187.243 121.313C189.073 112.993 187.631 109.921 187.631 109.921C187.631 109.921 172.967 102.311 166.888 104.53Z" fill="#263238"/>
<path d="M185.191 118.717C185.195 120.356 185.665 121.96 186.544 123.343C187.72 125.14 189.106 124.452 189.45 122.544C189.761 120.869 189.528 117.908 188.03 116.754C186.533 115.6 185.213 116.732 185.191 118.717Z" fill="#E58A7B"/>
<path d="M163.127 105.983C161.885 102.489 167.808 97.1086 180.343 99.3272C192.878 101.546 193.422 111.984 193.422 111.984L190.892 108.967L191.003 112.139L178.125 114.613L163.127 105.983Z" fill="#263238"/>
<path d="M164.192 144.641C164.118 144.135 164.245 143.619 164.545 143.205C164.846 142.79 165.296 142.51 165.801 142.423C169.705 141.779 178.579 140.47 183.039 141.091C186.367 141.557 187.232 143.487 187.376 145.074C187.399 145.351 187.361 145.631 187.267 145.893C187.173 146.155 187.023 146.394 186.829 146.594C186.634 146.793 186.4 146.949 186.14 147.051C185.88 147.152 185.602 147.196 185.324 147.181L166.045 146.316C165.59 146.293 165.157 146.114 164.82 145.809C164.482 145.503 164.261 145.091 164.192 144.641Z" fill="#4B59F7"/>
<path opacity="0.6" d="M164.192 144.641C164.118 144.135 164.245 143.619 164.545 143.205C164.846 142.79 165.296 142.51 165.801 142.423C169.705 141.779 178.579 140.47 183.039 141.091C186.367 141.557 187.232 143.487 187.376 145.074C187.399 145.351 187.361 145.631 187.267 145.893C187.173 146.155 187.023 146.394 186.829 146.594C186.634 146.793 186.4 146.949 186.14 147.051C185.88 147.152 185.602 147.196 185.324 147.181L166.045 146.316C165.59 146.293 165.157 146.114 164.82 145.809C164.482 145.503 164.261 145.091 164.192 144.641Z" fill="black"/>
<path d="M175.34 338.431L182.495 343.401L194.464 327.172L187.309 322.214L175.34 338.431Z" fill="#E58A7B"/>
<path d="M158.657 338.11L166.211 342.414L176.805 325.253L169.25 320.949L158.657 338.11Z" fill="#E58A7B"/>
<path d="M194.453 327.172L188.286 335.536L181.131 330.578L187.298 322.214L194.453 327.172Z" fill="#CF6F64"/>
<path d="M169.239 320.949L176.805 325.264L171.347 334.105L163.782 329.79L169.239 320.949Z" fill="#CF6F64"/>
<path d="M181.375 198.818C181.375 198.818 209.306 234.015 204.059 267.682C199.833 294.87 175.318 331.687 175.318 331.687L163.793 325.963C171.917 309.685 178.849 292.839 184.536 275.558C186.29 270.192 186.802 264.499 186.033 258.907C185.265 253.315 183.235 247.971 180.099 243.278C165.945 222.612 143.271 234.914 158.524 198.818H181.375Z" fill="#4B59F7"/>
<path opacity="0.6" d="M181.375 198.818C181.375 198.818 209.306 234.015 204.059 267.682C199.833 294.87 175.318 331.687 175.318 331.687L163.793 325.963C171.917 309.685 178.849 292.839 184.536 275.558C186.29 270.192 186.802 264.499 186.033 258.907C185.265 253.315 183.235 247.971 180.099 243.278C165.945 222.612 143.271 234.914 158.524 198.818H181.375Z" fill="black"/>
<path opacity="0.4" d="M195.074 221.425L191.014 217.387C191.014 217.709 198.879 266.262 201.087 279.906C202.389 275.92 203.387 271.841 204.071 267.704C206.666 251.187 201.242 234.315 195.074 221.425Z" fill="black"/>
<path d="M193.843 198.818C193.843 198.818 227.476 243.056 228.43 269.579C229.218 291.764 191.824 334.749 191.824 334.749L180.953 327.716C180.953 327.716 202.839 297.188 208.352 272.252C206.223 247.537 161.186 198.818 161.186 198.818H193.843Z" fill="#4B59F7"/>
<path opacity="0.6" d="M193.843 198.818C193.843 198.818 227.476 243.056 228.43 269.579C229.218 291.764 191.824 334.749 191.824 334.749L180.953 327.716C180.953 327.716 202.839 297.188 208.352 272.252C206.223 247.537 161.186 198.818 161.186 198.818H193.843Z" fill="black"/>
<path d="M152.234 146.028C148.64 146.882 145.19 159.949 145.19 159.949L159.245 169.333C159.245 169.333 163.926 158.995 162.284 154.469C160.587 149.755 156.749 144.952 152.234 146.028Z" fill="#4B59F7"/>
<path opacity="0.2" d="M154.985 154.447L154.009 165.839L159.234 169.344C160.676 166.097 161.744 162.695 162.417 159.206L154.985 154.447Z" fill="black"/>
<path d="M198.003 146.283C198.003 146.283 202.152 147.736 193.843 198.807H158.502C159.101 184.386 159.112 175.512 152.234 146.028C157.183 145.008 162.199 144.348 167.243 144.053C172.586 143.67 177.95 143.67 183.294 144.053C190.194 144.685 198.003 146.283 198.003 146.283Z" fill="#4B59F7"/>
<path d="M201.597 154.447C202.396 156.666 203.239 159.05 204.126 161.347C205.013 163.643 205.857 166.006 206.755 168.335L209.473 175.301L210.16 177.043L210.515 177.908L210.682 178.341C210.682 178.418 210.682 178.418 210.682 178.407C210.479 178.122 210.213 177.886 209.905 177.72C209.467 177.461 208.972 177.313 208.463 177.287C208.041 177.274 207.621 177.353 207.232 177.52C206.722 177.753 206.722 177.853 206.733 177.842C206.825 177.768 206.907 177.682 206.977 177.586C207.591 176.78 208.122 175.914 208.563 175.002C209.085 173.981 209.584 172.894 210.083 171.796C211.059 169.577 211.958 167.281 212.856 164.963C213.755 162.645 214.609 160.304 215.441 157.941L217.97 150.864L222.24 151.973C221.397 157.032 220.31 161.957 219.001 166.971C218.369 169.467 217.626 171.94 216.783 174.436C216.361 175.69 215.895 176.932 215.363 178.208C214.808 179.592 214.125 180.922 213.322 182.179C213.027 182.602 212.701 183.002 212.346 183.377C211.779 183.989 211.092 184.476 210.327 184.808C209.648 185.099 208.913 185.236 208.175 185.207C207.348 185.176 206.543 184.936 205.834 184.508C204.999 183.987 204.305 183.267 203.815 182.412C203.649 182.123 203.505 181.835 203.405 181.624L203.194 181.203L202.773 180.337L201.93 178.618C200.82 176.311 199.711 173.981 198.746 171.641C197.781 169.3 196.76 166.926 195.806 164.541C194.853 162.156 193.998 159.771 193.189 157.198L201.597 154.447Z" fill="#E58A7B"/>
<path d="M198.003 146.283C202.251 147.292 207.032 159.849 207.032 159.849L194.398 170.598C194.398 170.598 186.222 156.91 187.875 152.395C189.595 147.692 192.457 144.963 198.003 146.283Z" fill="#4B59F7"/>
<path d="M219.978 146.893L224.415 143.188L227.498 147.991L225.224 151.995C225.224 151.995 221.608 155.323 218.414 153.626C217.906 152.486 217.785 151.212 218.067 149.997C218.349 148.782 219.02 147.692 219.978 146.893Z" fill="#E58A7B"/>
<path d="M232.424 143.199L232.091 144.408L225.069 145.584L224.381 143.188L232.424 143.199Z" fill="#E58A7B"/>
<path d="M192.689 335.314L180.022 327.128L182.296 323.179L196.528 331.931L192.689 335.314Z" fill="#4B59F7"/>
<path d="M171.17 341.837C170.058 341.701 168.99 341.322 168.041 340.728C168.002 340.714 167.968 340.688 167.944 340.655C167.92 340.621 167.907 340.58 167.907 340.539C167.907 340.498 167.92 340.457 167.944 340.423C167.968 340.39 168.002 340.364 168.041 340.35C168.385 340.239 171.369 339.319 172.234 340.029C172.332 340.11 172.406 340.215 172.448 340.334C172.491 340.453 172.502 340.581 172.478 340.705C172.463 340.905 172.397 341.098 172.286 341.264C172.176 341.431 172.024 341.567 171.846 341.659C171.638 341.773 171.406 341.834 171.17 341.837ZM168.674 340.617C170.06 341.327 171.17 341.582 171.702 341.315C171.818 341.251 171.915 341.158 171.985 341.046C172.055 340.933 172.095 340.805 172.101 340.672C172.101 340.495 172.101 340.417 172.001 340.373C171.536 339.995 169.872 340.284 168.651 340.617H168.674Z" fill="#263238"/>
<path d="M168.119 340.805C168.06 340.804 168.005 340.78 167.964 340.739C167.947 340.708 167.939 340.674 167.939 340.639C167.939 340.604 167.947 340.57 167.964 340.539C167.964 340.439 168.685 338.032 169.816 337.488C169.961 337.423 170.118 337.388 170.277 337.388C170.435 337.388 170.592 337.423 170.737 337.488C170.893 337.538 171.028 337.638 171.12 337.772C171.212 337.907 171.257 338.069 171.247 338.232C171.17 339.23 169.14 340.606 168.208 340.838L168.119 340.805ZM170.271 337.777C170.163 337.78 170.057 337.807 169.96 337.855C169.273 338.187 168.707 339.485 168.43 340.273C169.406 339.862 170.748 338.775 170.792 338.165C170.792 338.065 170.792 337.943 170.537 337.832C170.454 337.788 170.364 337.758 170.271 337.744V337.777Z" fill="#263238"/>
<path d="M186.999 346.629C185.745 346.629 184.004 345.02 183.05 344.033C183.025 343.999 183.012 343.958 183.012 343.917C183.012 343.875 183.025 343.834 183.05 343.8C183.072 343.764 183.103 343.735 183.14 343.716C183.177 343.696 183.219 343.687 183.261 343.689C183.704 343.689 187.553 344.266 188.097 345.353C188.155 345.451 188.185 345.562 188.185 345.675C188.185 345.788 188.155 345.899 188.097 345.997C188.016 346.166 187.892 346.312 187.739 346.42C187.586 346.529 187.407 346.597 187.221 346.618L186.999 346.629ZM183.782 344.188C185.18 345.542 186.411 346.296 187.11 346.207C187.232 346.191 187.349 346.146 187.449 346.074C187.55 346.002 187.631 345.907 187.687 345.797C187.711 345.759 187.725 345.715 187.725 345.669C187.725 345.624 187.711 345.58 187.687 345.542C187.398 344.943 185.346 344.432 183.782 344.188Z" fill="#263238"/>
<path d="M183.904 344.133C183.655 344.14 183.406 344.121 183.161 344.077C183.127 344.072 183.094 344.058 183.067 344.037C183.04 344.016 183.019 343.987 183.005 343.955C182.989 343.923 182.98 343.887 182.98 343.85C182.98 343.813 182.989 343.777 183.005 343.745C183.072 343.667 184.57 341.859 185.989 341.737C186.391 341.706 186.79 341.833 187.099 342.092C187.531 342.469 187.509 342.802 187.398 343.012C187.121 343.767 185.202 344.133 183.904 344.133ZM183.616 343.722C184.858 343.789 186.844 343.379 187.099 342.835C187.099 342.835 187.187 342.658 186.899 342.413C186.784 342.314 186.65 342.239 186.505 342.193C186.36 342.147 186.207 342.131 186.056 342.147C185.1 342.414 184.248 342.968 183.616 343.734V343.722Z" fill="#263238"/>
<path d="M168.419 339.607L159.012 336.945C158.85 336.896 158.675 336.908 158.522 336.98C158.368 337.052 158.246 337.177 158.18 337.333L155.007 344.466C154.933 344.648 154.898 344.845 154.905 345.042C154.912 345.239 154.96 345.433 155.047 345.61C155.134 345.787 155.257 345.944 155.409 346.069C155.561 346.195 155.738 346.288 155.928 346.34C159.256 347.206 160.853 347.45 164.991 348.637C167.542 349.347 171.181 350.667 174.697 351.665C178.213 352.663 179.389 349.236 178.025 348.504C171.857 345.242 171.369 342.957 169.683 340.517C169.381 340.075 168.934 339.753 168.419 339.607Z" fill="#4B59F7"/>
<path d="M183.305 342.735L175.274 337.189C175.138 337.09 174.97 337.044 174.802 337.06C174.634 337.077 174.479 337.154 174.364 337.278L169.04 343.001C168.91 343.149 168.813 343.323 168.756 343.511C168.698 343.7 168.682 343.898 168.707 344.093C168.732 344.288 168.799 344.476 168.902 344.643C169.005 344.811 169.143 344.955 169.306 345.065C172.135 346.962 173.599 347.727 177.137 350.178C179.356 351.687 183.649 355.037 186.644 357.122C189.639 359.208 191.869 356.346 190.804 355.215C186.034 350.123 184.991 346.928 184.203 344.033C184.067 343.508 183.748 343.048 183.305 342.735Z" fill="#4B59F7"/>
<path d="M176.794 332.419L162.318 325.22L163.815 321.293L179.278 328.88L176.794 332.419Z" fill="#4B59F7"/>
<path d="M157.969 196.733L156.749 199.927C156.627 200.171 156.915 200.427 157.326 200.427H194.021C194.342 200.427 194.608 200.271 194.631 200.072L194.941 196.899C194.941 196.688 194.686 196.5 194.342 196.5H158.546C158.438 196.49 158.33 196.505 158.229 196.546C158.129 196.586 158.04 196.65 157.969 196.733Z" fill="#4B59F7"/>
<path opacity="0.4" d="M157.969 196.733L156.749 199.927C156.627 200.171 156.915 200.427 157.326 200.427H194.021C194.342 200.427 194.608 200.271 194.631 200.072L194.941 196.899C194.941 196.688 194.686 196.5 194.342 196.5H158.546C158.438 196.49 158.33 196.505 158.229 196.546C158.129 196.586 158.04 196.65 157.969 196.733Z" fill="white"/>
<path d="M163.748 200.737H162.783C162.595 200.737 162.451 200.637 162.462 200.515L162.916 196.4C162.916 196.289 163.094 196.189 163.283 196.189H164.248C164.436 196.189 164.58 196.289 164.569 196.4L164.115 200.515C164.103 200.637 163.937 200.737 163.748 200.737Z" fill="#4B59F7"/>
<path d="M186.378 200.737H185.424C185.235 200.737 185.091 200.637 185.102 200.515L185.546 196.4C185.546 196.289 185.734 196.189 185.923 196.189H186.877C187.065 196.189 187.221 196.289 187.199 196.4L186.755 200.515C186.699 200.637 186.577 200.737 186.378 200.737Z" fill="#4B59F7"/>
<g style="mix-blend-mode:multiply">
<path d="M162.905 388.593C179.318 388.593 192.623 387.629 192.623 386.441C192.623 385.252 179.318 384.289 162.905 384.289C146.493 384.289 133.188 385.252 133.188 386.441C133.188 387.629 146.493 388.593 162.905 388.593Z" fill="#F5F5F5"/>
</g>
<path d="M181.009 383.401C175.751 381.871 169.916 379.907 166.389 377.855C166.289 377.788 166.178 377.755 166.078 377.7V353.895H176.716C177.523 353.847 178.282 353.492 178.837 352.904C179.392 352.315 179.701 351.537 179.701 350.728C179.701 349.919 179.392 349.14 178.837 348.552C178.282 347.963 177.523 347.608 176.716 347.561H166.133V239.051H159.744V347.561H149.173C148.741 347.535 148.309 347.598 147.902 347.746C147.496 347.893 147.124 348.122 146.809 348.419C146.494 348.716 146.244 349.073 146.072 349.47C145.901 349.867 145.813 350.295 145.813 350.728C145.813 351.16 145.901 351.588 146.072 351.985C146.244 352.382 146.494 352.74 146.809 353.036C147.124 353.333 147.496 353.562 147.902 353.71C148.309 353.857 148.741 353.92 149.173 353.895H159.744V377.666C159.644 377.666 159.544 377.755 159.444 377.822C155.861 379.907 150.071 381.871 144.813 383.368C144.458 383.475 144.153 383.706 143.953 384.019C143.754 384.332 143.673 384.706 143.725 385.073C143.777 385.441 143.959 385.777 144.238 386.022C144.517 386.267 144.875 386.403 145.246 386.407H180.576C180.931 386.383 181.266 386.238 181.527 385.997C181.787 385.755 181.957 385.431 182.008 385.079C182.058 384.728 181.987 384.369 181.805 384.064C181.623 383.758 181.342 383.524 181.009 383.401Z" fill="#E0E0E0"/>
<path d="M182.639 228.003H143.194C140.02 228.003 137.448 230.576 137.448 233.749V245.474C137.448 248.647 140.02 251.22 143.194 251.22H182.639C185.813 251.22 188.385 248.647 188.385 245.474V233.749C188.385 230.576 185.813 228.003 182.639 228.003Z" fill="#4B59F7"/>
<path d="M142.828 251.231V253.25C142.828 254.914 144.636 256.267 146.854 256.267H179.023C181.242 256.267 183.05 254.914 183.05 253.25V251.231H142.828Z" fill="#4B59F7"/>
<path opacity="0.3" d="M142.828 251.231V253.25C142.828 254.914 144.636 256.267 146.854 256.267H179.023C181.242 256.267 183.05 254.914 183.05 253.25V251.231H142.828Z" fill="white"/>
</g>
<defs>
<filter id="filter0_dd_902_10361" x="0.543213" y="-0.000610352" width="545.457" height="420" filterUnits="userSpaceOnUse" color-interpolation-filters="sRGB">
<feFlood flood-opacity="0" result="BackgroundImageFix"/>
<feColorMatrix in="SourceAlpha" type="matrix" values="0 0 0 0 0 0 0 0 0 0 0 0 0 0 0 0 0 0 127 0" result="hardAlpha"/>
<feMorphology radius="2" operator="erode" in="SourceAlpha" result="effect1_dropShadow_902_10361"/>
<feOffset dy="4"/>
<feGaussianBlur stdDeviation="3"/>
<feColorMatrix type="matrix" values="0 0 0 0 0 0 0 0 0 0 0 0 0 0 0 0 0 0 0.05 0"/>
<feBlend mode="normal" in2="BackgroundImageFix" result="effect1_dropShadow_902_10361"/>
<feColorMatrix in="SourceAlpha" type="matrix" values="0 0 0 0 0 0 0 0 0 0 0 0 0 0 0 0 0 0 127 0" result="hardAlpha"/>
<feMorphology radius="3" operator="erode" in="SourceAlpha" result="effect2_dropShadow_902_10361"/>
<feOffset dy="10"/>
<feGaussianBlur stdDeviation="7.5"/>
<feColorMatrix type="matrix" values="0 0 0 0 0 0 0 0 0 0 0 0 0 0 0 0 0 0 0.1 0"/>
<feBlend mode="normal" in2="effect1_dropShadow_902_10361" result="effect2_dropShadow_902_10361"/>
<feBlend mode="normal" in="SourceGraphic" in2="effect2_dropShadow_902_10361" result="shape"/>
</filter>
</defs>
</svg>
