<svg width="41" height="41" viewBox="0 0 41 41" fill="none" xmlns="http://www.w3.org/2000/svg">
<rect x="0.78125" y="0.693115" width="40.2188" height="39.6136" rx="19.8068" fill="#4B59F7"/>
<path d="M17.4146 26.7489C17.4146 26.8336 17.3172 26.9013 17.1945 26.9013C17.0547 26.914 16.9574 26.8463 16.9574 26.7489C16.9574 26.6642 17.0547 26.5965 17.1775 26.5965C17.3045 26.5838 17.4146 26.6515 17.4146 26.7489ZM16.0979 26.5584C16.0682 26.6431 16.1529 26.7404 16.2799 26.7658C16.39 26.8082 16.517 26.7658 16.5424 26.6812C16.5678 26.5965 16.4874 26.4991 16.3604 26.461C16.2503 26.4314 16.1275 26.4737 16.0979 26.5584ZM17.9693 26.4864C17.8465 26.516 17.7618 26.5965 17.7745 26.6939C17.7872 26.7785 17.8973 26.8336 18.0243 26.8039C18.1471 26.7743 18.2318 26.6939 18.2191 26.6092C18.2064 26.5287 18.092 26.4737 17.9693 26.4864ZM20.7551 10.2622C14.8828 10.2622 10.3906 14.7205 10.3906 20.5929C10.3906 25.2882 13.3459 29.3062 17.567 30.7203C18.109 30.8177 18.2995 30.4832 18.2995 30.208C18.2995 29.9455 18.2868 28.4975 18.2868 27.6084C18.2868 27.6084 15.3231 28.2435 14.7007 26.3467C14.7007 26.3467 14.218 25.1146 13.5237 24.7971C13.5237 24.7971 12.5541 24.1324 13.5914 24.1451C13.5914 24.1451 14.6457 24.2298 15.2257 25.2374C16.1529 26.8717 17.7068 26.4017 18.3122 26.1223C18.4096 25.4449 18.6848 24.9749 18.9896 24.6955C16.6229 24.433 14.235 24.09 14.235 20.017C14.235 18.8527 14.5568 18.2685 15.2342 17.5233C15.1241 17.2481 14.7642 16.1134 15.3443 14.6485C16.2291 14.3733 18.2656 15.7916 18.2656 15.7916C19.1124 15.5545 20.0227 15.4318 20.9245 15.4318C21.8263 15.4318 22.7366 15.5545 23.5834 15.7916C23.5834 15.7916 25.6199 14.3691 26.5047 14.6485C27.0848 16.1177 26.7249 17.2481 26.6148 17.5233C27.2922 18.2727 27.7072 18.857 27.7072 20.017C27.7072 24.1027 25.2134 24.4287 22.8467 24.6955C23.2362 25.03 23.5664 25.665 23.5664 26.66C23.5664 28.0868 23.5537 29.8523 23.5537 30.1995C23.5537 30.4747 23.7485 30.8092 24.2862 30.7118C28.5201 29.3062 31.3906 25.2882 31.3906 20.5929C31.3906 14.7205 26.6275 10.2622 20.7551 10.2622ZM14.5059 24.8648C14.4509 24.9072 14.4636 25.0045 14.5356 25.085C14.6033 25.1527 14.7007 25.1824 14.7557 25.1273C14.8108 25.085 14.7981 24.9876 14.7261 24.9072C14.6584 24.8394 14.561 24.8098 14.5059 24.8648ZM14.0487 24.5219C14.0191 24.5769 14.0614 24.6447 14.1461 24.687C14.2138 24.7293 14.2985 24.7166 14.3281 24.6574C14.3578 24.6023 14.3154 24.5346 14.2307 24.4923C14.1461 24.4668 14.0783 24.4795 14.0487 24.5219ZM15.4205 26.0291C15.3527 26.0842 15.3781 26.2112 15.4755 26.2916C15.5729 26.389 15.6957 26.4017 15.7507 26.334C15.8057 26.2789 15.7803 26.1519 15.6957 26.0715C15.6025 25.9741 15.4755 25.9614 15.4205 26.0291ZM14.9378 25.4068C14.8701 25.4491 14.8701 25.5592 14.9378 25.6566C15.0055 25.7539 15.1199 25.7963 15.1749 25.7539C15.2426 25.6989 15.2426 25.5888 15.1749 25.4914C15.1156 25.3941 15.0055 25.3517 14.9378 25.4068Z" fill="white"/>
</svg>
