<svg width="34" height="34" viewBox="0 0 34 34" fill="none" xmlns="http://www.w3.org/2000/svg">
<path d="M23.3745 6.37487C23.3745 2.85408 20.5205 0 16.9997 0C13.4789 0 10.6248 2.85408 10.6248 6.37487C10.6248 9.89566 13.4789 12.7497 16.9997 12.7497C20.5205 12.7497 23.3745 9.89566 23.3745 6.37487ZM15.5115 16.0102C11.5717 13.5984 5.19021 12.9357 1.97887 12.7531C0.899787 12.692 0 13.5141 0 14.552V29.347C0 30.2986 0.769633 31.0921 1.75907 31.1433C4.65831 31.2953 10.5239 31.8525 14.5779 33.8944C15.2001 34.2078 15.9379 33.7809 15.9379 33.1062V16.7712C15.9372 16.4611 15.7838 16.1769 15.5115 16.0102ZM32.0205 12.7531C28.8098 12.935 22.4276 13.5984 18.4885 16.0102C18.2162 16.1769 18.0628 16.4724 18.0628 16.7825V33.1042C18.0628 33.7809 18.8026 34.2085 19.4268 33.8944C23.4801 31.8545 29.3424 31.2973 32.2409 31.1452C33.2304 31.0934 34 30.2999 34 29.3483V14.552C33.9993 13.5141 33.0995 12.692 32.0205 12.7531V12.7531Z" fill="white"/>
</svg>
